BabelStoneHanPUA.ttf.ufo
<glyph name="percent" format="2">
  <advance width="512"/>
  <unicode hex="0025"/>
  <outline>
    <contour>
      <point x="225" y="703"/>
      <point x="259" y="663" type="qcurve"/>
      <point x="290" y="625"/>
      <point x="290" y="567" type="qcurve"/>
      <point x="290" y="514"/>
      <point x="253" y="478" type="qcurve"/>
      <point x="215" y="439"/>
      <point x="160" y="439" type="qcurve"/>
      <point x="105" y="439"/>
      <point x="68" y="476" type="qcurve"/>
      <point x="33" y="512"/>
      <point x="33" y="567" type="qcurve"/>
      <point x="33" y="620"/>
      <point x="63" y="659" type="qcurve"/>
      <point x="100" y="704"/>
      <point x="160" y="704" type="qcurve"/>
    </contour>
    <contour>
      <point x="85" y="625"/>
      <point x="85" y="567" type="qcurve"/>
      <point x="85" y="511"/>
      <point x="106" y="486" type="qcurve"/>
      <point x="127" y="462"/>
      <point x="160" y="462" type="qcurve"/>
      <point x="192" y="462"/>
      <point x="214" y="489" type="qcurve"/>
      <point x="238" y="516"/>
      <point x="238" y="567" type="qcurve"/>
      <point x="238" y="621"/>
      <point x="211" y="655" type="qcurve"/>
      <point x="191" y="682"/>
      <point x="160" y="682" type="qcurve"/>
      <point x="131" y="682"/>
      <point x="109" y="657" type="qcurve"/>
    </contour>
    <contour>
      <point x="409" y="332"/>
      <point x="443" y="293" type="qcurve"/>
      <point x="480" y="253"/>
      <point x="480" y="195" type="qcurve"/>
      <point x="480" y="142"/>
      <point x="443" y="105" type="qcurve"/>
      <point x="405" y="66"/>
      <point x="350" y="66" type="qcurve"/>
      <point x="295" y="66"/>
      <point x="259" y="103" type="qcurve"/>
      <point x="223" y="138"/>
      <point x="223" y="195" type="qcurve"/>
      <point x="224" y="248"/>
      <point x="255" y="287" type="qcurve"/>
      <point x="290" y="332"/>
      <point x="350" y="332" type="qcurve"/>
    </contour>
    <contour>
      <point x="275" y="253"/>
      <point x="275" y="195" type="qcurve"/>
      <point x="275" y="138"/>
      <point x="296" y="113" type="qcurve"/>
      <point x="317" y="89"/>
      <point x="350" y="89" type="qcurve"/>
      <point x="383" y="89"/>
      <point x="405" y="116" type="qcurve"/>
      <point x="428" y="143"/>
      <point x="428" y="195" type="qcurve"/>
      <point x="428" y="249"/>
      <point x="401" y="283" type="qcurve"/>
      <point x="381" y="310"/>
      <point x="350" y="310" type="qcurve"/>
      <point x="322" y="310"/>
      <point x="301" y="285" type="qcurve"/>
    </contour>
    <contour>
      <point x="449" y="704" type="line"/>
      <point x="67" y="66" type="line"/>
      <point x="48" y="66" type="line"/>
      <point x="430" y="704" type="line"/>
    </contour>
  </outline>
</glyph>
<glyph name="ampersand" format="2">
  <advance width="512"/>
  <unicode hex="0026"/>
  <outline>
    <contour>
      <point x="398" y="103"/>
      <point x="426" y="103" type="qcurve"/>
      <point x="468" y="103"/>
      <point x="501" y="158" type="qcurve"/>
      <point x="516" y="148" type="line"/>
      <point x="472" y="66"/>
      <point x="426" y="66" type="qcurve"/>
      <point x="381" y="66"/>
      <point x="329" y="126" type="qcurve"/>
      <point x="263" y="66"/>
      <point x="187" y="66" type="qcurve"/>
      <point x="118" y="67"/>
      <point x="69" y="113" type="qcurve"/>
      <point x="25" y="160"/>
      <point x="25" y="233" type="qcurve"/>
      <point x="25" y="334"/>
      <point x="146" y="434" type="qcurve"/>
      <point x="122" y="503"/>
      <point x="122" y="555" type="qcurve"/>
      <point x="123" y="617"/>
      <point x="160" y="663" type="qcurve"/>
      <point x="195" y="704"/>
      <point x="249" y="704" type="qcurve"/>
      <point x="287" y="703"/>
      <point x="312" y="681" type="qcurve"/>
      <point x="343" y="654"/>
      <point x="343" y="618" type="qcurve"/>
      <point x="342" y="528"/>
      <point x="197" y="416" type="qcurve"/>
      <point x="225" y="352"/>
      <point x="271" y="271" type="qcurve"/>
      <point x="302" y="220"/>
      <point x="330" y="184" type="qcurve"/>
      <point x="333" y="188"/>
      <point x="336" y="191" type="qcurve"/>
      <point x="403" y="271"/>
      <point x="403" y="359" type="qcurve"/>
      <point x="403" y="418"/>
      <point x="325" y="418" type="qcurve"/>
      <point x="325" y="435" type="line"/>
      <point x="505" y="435" type="line"/>
      <point x="505" y="418" type="line"/>
      <point x="428" y="417"/>
      <point x="428" y="359" type="qcurve"/>
      <point x="428" y="240"/>
      <point x="355" y="153" type="qcurve"/>
    </contour>
    <contour>
      <point x="312" y="563"/>
      <point x="312" y="618" type="qcurve"/>
      <point x="312" y="647"/>
      <point x="293" y="663" type="qcurve"/>
      <point x="276" y="679"/>
      <point x="249" y="679" type="qcurve"/>
      <point x="206" y="679"/>
      <point x="187" y="652" type="qcurve"/>
      <point x="163" y="613"/>
      <point x="163" y="555" type="qcurve"/>
      <point x="164" y="515"/>
      <point x="180" y="460" type="qcurve"/>
    </contour>
    <contour>
      <point x="77" y="311"/>
      <point x="77" y="233" type="qcurve"/>
      <point x="77" y="181"/>
      <point x="111" y="153" type="qcurve"/>
      <point x="151" y="119"/>
      <point x="211" y="119" type="qcurve"/>
      <point x="257" y="120"/>
      <point x="302" y="157" type="qcurve"/>
      <point x="269" y="198"/>
      <point x="233" y="258" type="qcurve"/>
      <point x="189" y="331"/>
      <point x="164" y="389" type="qcurve"/>
    </contour>
  </outline>
</glyph>
<glyph name="asterisk" format="2">
  <advance width="512"/>
  <unicode hex="002A"/>
  <outline>
    <contour>
      <point x="279" y="617"/>
      <point x="279" y="616" type="qcurve"/>
      <point x="279" y="614"/>
      <point x="278" y="611" type="qcurve"/>
      <point x="318" y="595"/>
      <point x="354" y="595" type="qcurve"/>
      <point x="391" y="595"/>
      <point x="404" y="582" type="qcurve"/>
      <point x="415" y="569"/>
      <point x="415" y="557" type="qcurve"/>
      <point x="414" y="544"/>
      <point x="404" y="537" type="qcurve"/>
      <point x="394" y="529"/>
      <point x="376" y="529" type="qcurve"/>
      <point x="346" y="529"/>
      <point x="319" y="565" type="qcurve"/>
      <point x="299" y="589"/>
      <point x="271" y="601" type="qcurve"/>
      <point x="266" y="599"/>
      <point x="263" y="596" type="qcurve"/>
      <point x="264" y="571"/>
      <point x="280" y="541" type="qcurve"/>
      <point x="295" y="517"/>
      <point x="295" y="502" type="qcurve"/>
      <point x="295" y="488"/>
      <point x="283" y="479" type="qcurve"/>
      <point x="272" y="470"/>
      <point x="256" y="470" type="qcurve"/>
      <point x="239" y="470"/>
      <point x="229" y="479" type="qcurve"/>
      <point x="217" y="489"/>
      <point x="217" y="502" type="qcurve"/>
      <point x="218" y="517"/>
      <point x="231" y="541" type="qcurve"/>
      <point x="248" y="571"/>
      <point x="248" y="596" type="qcurve"/>
      <point x="243" y="599"/>
      <point x="240" y="600" type="qcurve"/>
      <point x="203" y="583"/>
      <point x="181" y="555" type="qcurve"/>
      <point x="156" y="529"/>
      <point x="137" y="529" type="qcurve"/>
      <point x="118" y="529"/>
      <point x="108" y="538" type="qcurve"/>
      <point x="98" y="545"/>
      <point x="98" y="557" type="qcurve"/>
      <point x="98" y="573"/>
      <point x="111" y="583" type="qcurve"/>
      <point x="126" y="595"/>
      <point x="163" y="595" type="qcurve"/>
      <point x="200" y="595"/>
      <point x="233" y="611" type="qcurve"/>
      <point x="233" y="620" type="line"/>
      <point x="194" y="636"/>
      <point x="151" y="636" type="qcurve"/>
      <point x="123" y="636"/>
      <point x="110" y="648" type="qcurve"/>
      <point x="98" y="660"/>
      <point x="98" y="675" type="qcurve"/>
      <point x="98" y="688"/>
      <point x="107" y="695" type="qcurve"/>
      <point x="117" y="703"/>
      <point x="135" y="703" type="qcurve"/>
      <point x="165" y="703"/>
      <point x="187" y="673" type="qcurve"/>
      <point x="208" y="646"/>
      <point x="239" y="630" type="qcurve"/>
      <point x="244" y="634"/>
      <point x="251" y="634" type="qcurve"/>
      <point x="251" y="659"/>
      <point x="230" y="693" type="qcurve"/>
      <point x="217" y="715"/>
      <point x="217" y="730" type="qcurve"/>
      <point x="217" y="743"/>
      <point x="229" y="753" type="qcurve"/>
      <point x="241" y="762"/>
      <point x="256" y="762" type="qcurve"/>
      <point x="272" y="761"/>
      <point x="282" y="754" type="qcurve"/>
      <point x="295" y="743"/>
      <point x="295" y="730" type="qcurve"/>
      <point x="294" y="716"/>
      <point x="281" y="692" type="qcurve"/>
      <point x="263" y="658"/>
      <point x="263" y="634" type="qcurve"/>
      <point x="268" y="632"/>
      <point x="271" y="631" type="qcurve"/>
      <point x="272" y="630"/>
      <point x="272" y="629" type="qcurve"/>
      <point x="301" y="646"/>
      <point x="320" y="673" type="qcurve"/>
      <point x="345" y="703"/>
      <point x="373" y="703" type="qcurve"/>
      <point x="394" y="702"/>
      <point x="404" y="695" type="qcurve"/>
      <point x="415" y="685"/>
      <point x="415" y="675" type="qcurve"/>
      <point x="415" y="664"/>
      <point x="403" y="652" type="qcurve"/>
      <point x="387" y="637"/>
      <point x="350" y="636" type="qcurve"/>
      <point x="306" y="636"/>
      <point x="278" y="618" type="qcurve"/>
    </contour>
  </outline>
</glyph>
<glyph name="slash" format="2">
  <advance width="512"/>
  <unicode hex="002F"/>
  <outline>
    <contour>
      <point x="503" y="836" type="line"/>
      <point x="60" y="-76" type="line"/>
      <point x="8" y="-76" type="line"/>
      <point x="451" y="836" type="line"/>
    </contour>
  </outline>
</glyph>
<glyph name="three" format="2">
  <advance width="512"/>
  <unicode hex="0033"/>
  <outline>
    <contour>
      <point x="460" y="157"/>
      <point x="397" y="108" type="qcurve"/>
      <point x="337" y="66"/>
      <point x="258" y="66" type="qcurve"/>
      <point x="165" y="66"/>
      <point x="105" y="115" type="qcurve"/>
      <point x="52" y="160"/>
      <point x="52" y="215" type="qcurve"/>
      <point x="53" y="231"/>
      <point x="63" y="243" type="qcurve"/>
      <point x="73" y="253"/>
      <point x="88" y="253" type="qcurve"/>
      <point x="101" y="252"/>
      <point x="111" y="242" type="qcurve"/>
      <point x="121" y="233"/>
      <point x="121" y="215" type="qcurve"/>
      <point x="120" y="200"/>
      <point x="113" y="190" type="qcurve"/>
      <point x="106" y="180"/>
      <point x="106" y="164" type="qcurve"/>
      <point x="105" y="146"/>
      <point x="153" y="118" type="qcurve"/>
      <point x="197" y="95"/>
      <point x="258" y="94" type="qcurve"/>
      <point x="313" y="95"/>
      <point x="365" y="129" type="qcurve"/>
      <point x="408" y="159"/>
      <point x="408" y="234" type="qcurve"/>
      <point x="407" y="305"/>
      <point x="364" y="341" type="qcurve"/>
      <point x="320" y="372"/>
      <point x="265" y="372" type="qcurve"/>
      <point x="251" y="372"/>
      <point x="239" y="365" type="qcurve"/>
      <point x="225" y="357"/>
      <point x="215" y="357" type="qcurve"/>
      <point x="186" y="358"/>
      <point x="186" y="386" type="qcurve"/>
      <point x="187" y="413"/>
      <point x="215" y="413" type="qcurve"/>
      <point x="227" y="413"/>
      <point x="240" y="406" type="qcurve"/>
      <point x="252" y="400"/>
      <point x="265" y="400" type="qcurve"/>
      <point x="292" y="400"/>
      <point x="338" y="436" type="qcurve"/>
      <point x="388" y="476"/>
      <point x="388" y="546" type="qcurve"/>
      <point x="388" y="612"/>
      <point x="345" y="645" type="qcurve"/>
      <point x="304" y="676"/>
      <point x="255" y="676" type="qcurve"/>
      <point x="194" y="675"/>
      <point x="154" y="644" type="qcurve"/>
      <point x="121" y="613"/>
      <point x="131" y="594" type="qcurve"/>
      <point x="142" y="574"/>
      <point x="143" y="552" type="qcurve"/>
      <point x="143" y="534"/>
      <point x="133" y="524" type="qcurve"/>
      <point x="124" y="513"/>
      <point x="109" y="513" type="qcurve"/>
      <point x="95" y="514"/>
      <point x="85" y="524" type="qcurve"/>
      <point x="74" y="536"/>
      <point x="74" y="552" type="qcurve"/>
      <point x="74" y="614"/>
      <point x="132" y="660" type="qcurve"/>
      <point x="182" y="704"/>
      <point x="255" y="704" type="qcurve"/>
      <point x="341" y="704"/>
      <point x="386" y="662" type="qcurve"/>
      <point x="440" y="612"/>
      <point x="440" y="546" type="qcurve"/>
      <point x="439" y="453"/>
      <point x="348" y="407" type="qcurve"/>
      <point x="332" y="399"/>
      <point x="320" y="392" type="qcurve"/>
      <point x="339" y="387"/>
      <point x="360" y="380" type="qcurve"/>
      <point x="460" y="345"/>
      <point x="460" y="234" type="qcurve"/>
    </contour>
  </outline>
</glyph>
<glyph name="four" format="2">
  <advance width="512"/>
  <unicode hex="0034"/>
  <outline>
    <contour>
      <point x="479" y="246" type="line"/>
      <point x="479" y="207" type="line"/>
      <point x="362" y="207" type="line"/>
      <point x="362" y="150" type="line"/>
      <point x="362" y="93"/>
      <point x="455" y="93" type="qcurve"/>
      <point x="455" y="76" type="line"/>
      <point x="220" y="76" type="line"/>
      <point x="220" y="93" type="line"/>
      <point x="313" y="93"/>
      <point x="313" y="150" type="qcurve"/>
      <point x="313" y="207" type="line"/>
      <point x="33" y="207" type="line"/>
      <point x="33" y="253" type="line"/>
      <point x="339" y="694" type="line"/>
      <point x="362" y="694" type="line"/>
      <point x="362" y="246" type="line"/>
    </contour>
    <contour>
      <point x="313" y="623" type="line"/>
      <point x="56" y="246" type="line"/>
      <point x="313" y="246" type="line"/>
    </contour>
  </outline>
</glyph>
<glyph name="five" format="2">
  <advance width="512"/>
  <unicode hex="0035"/>
  <outline>
    <contour>
      <point x="408" y="632" type="line"/>
      <point x="120" y="632" type="line"/>
      <point x="120" y="403" type="line"/>
      <point x="182" y="451"/>
      <point x="270" y="451" type="qcurve"/>
      <point x="345" y="450"/>
      <point x="397" y="407" type="qcurve"/>
      <point x="464" y="350"/>
      <point x="464" y="247" type="qcurve"/>
      <point x="464" y="163"/>
      <point x="398" y="111" type="qcurve"/>
      <point x="341" y="66"/>
      <point x="254" y="66" type="qcurve"/>
      <point x="169" y="66"/>
      <point x="100" y="114" type="qcurve"/>
      <point x="49" y="147"/>
      <point x="49" y="187" type="qcurve"/>
      <point x="49" y="204"/>
      <point x="59" y="214" type="qcurve"/>
      <point x="70" y="223"/>
      <point x="83" y="223" type="qcurve"/>
      <point x="97" y="223"/>
      <point x="107" y="211" type="qcurve"/>
      <point x="118" y="200"/>
      <point x="118" y="187" type="qcurve"/>
      <point x="116" y="177"/>
      <point x="112" y="171" type="qcurve"/>
      <point x="107" y="162"/>
      <point x="107" y="153" type="qcurve"/>
      <point x="107" y="143"/>
      <point x="147" y="119" type="qcurve"/>
      <point x="190" y="94"/>
      <point x="254" y="94" type="qcurve"/>
      <point x="310" y="94"/>
      <point x="358" y="130" type="qcurve"/>
      <point x="412" y="174"/>
      <point x="412" y="247" type="qcurve"/>
      <point x="411" y="331"/>
      <point x="353" y="377" type="qcurve"/>
      <point x="308" y="412"/>
      <point x="244" y="412" type="qcurve"/>
      <point x="184" y="411"/>
      <point x="111" y="380" type="qcurve"/>
      <point x="104" y="388" type="line"/>
      <point x="104" y="682" type="line"/>
      <point x="430" y="682" type="line"/>
    </contour>
  </outline>
</glyph>
<glyph name="A" format="2">
  <advance width="512"/>
  <unicode hex="0041"/>
  <outline>
    <contour>
      <point x="463" y="89"/>
      <point x="503" y="89" type="qcurve"/>
      <point x="503" y="76" type="line"/>
      <point x="345" y="76" type="line"/>
      <point x="345" y="89" type="line"/>
      <point x="381" y="90"/>
      <point x="394" y="100" type="qcurve"/>
      <point x="403" y="112"/>
      <point x="393" y="148" type="qcurve"/>
      <point x="343" y="304" type="line"/>
      <point x="136" y="304" type="line"/>
      <point x="82" y="131" type="line"/>
      <point x="75" y="105"/>
      <point x="79" y="98" type="qcurve"/>
      <point x="85" y="90"/>
      <point x="116" y="89" type="qcurve"/>
      <point x="116" y="76" type="line"/>
      <point x="12" y="76" type="line"/>
      <point x="12" y="89" type="line"/>
      <point x="50" y="91"/>
      <point x="63" y="131" type="qcurve"/>
      <point x="121" y="319" type="line"/>
      <point x="121" y="321" type="line"/>
      <point x="230" y="668" type="line"/>
      <point x="277" y="694" type="line"/>
      <point x="445" y="148" type="line"/>
    </contour>
    <contour>
      <point x="141" y="321" type="line"/>
      <point x="338" y="321" type="line"/>
      <point x="240" y="633" type="line"/>
    </contour>
  </outline>
</glyph>
<glyph name="F" format="2">
  <advance width="512"/>
  <unicode hex="0046"/>
  <outline>
    <contour>
      <point x="109" y="677"/>
      <point x="33" y="677" type="qcurve"/>
      <point x="33" y="694" type="line"/>
      <point x="479" y="694" type="line"/>
      <point x="470" y="539" type="line"/>
      <point x="457" y="539" type="line"/>
      <point x="451" y="615"/>
      <point x="420" y="645" type="qcurve"/>
      <point x="387" y="672"/>
      <point x="314" y="672" type="qcurve"/>
      <point x="238" y="672" type="line"/>
      <point x="161" y="671"/>
      <point x="161" y="610" type="qcurve"/>
      <point x="161" y="400" type="line"/>
      <point x="299" y="400" type="line"/>
      <point x="392" y="401"/>
      <point x="392" y="483" type="qcurve"/>
      <point x="409" y="483" type="line"/>
      <point x="409" y="286" type="line"/>
      <point x="392" y="286" type="line"/>
      <point x="392" y="377"/>
      <point x="299" y="377" type="qcurve"/>
      <point x="161" y="377" type="line"/>
      <point x="161" y="153" type="line"/>
      <point x="162" y="93"/>
      <point x="238" y="93" type="qcurve"/>
      <point x="238" y="76" type="line"/>
      <point x="33" y="76" type="line"/>
      <point x="33" y="93" type="line"/>
      <point x="109" y="93"/>
      <point x="109" y="153" type="qcurve"/>
      <point x="109" y="610" type="line"/>
    </contour>
  </outline>
</glyph>
<glyph name="I" format="2">
  <advance width="512"/>
  <unicode hex="0049"/>
  <outline>
    <contour>
      <point x="283" y="121"/>
      <point x="302" y="106" type="qcurve"/>
      <point x="318" y="93"/>
      <point x="354" y="93" type="qcurve"/>
      <point x="413" y="93" type="line"/>
      <point x="413" y="76" type="line"/>
      <point x="99" y="76" type="line"/>
      <point x="99" y="93" type="line"/>
      <point x="167" y="93" type="line"/>
      <point x="197" y="93"/>
      <point x="215" y="109" type="qcurve"/>
      <point x="231" y="121"/>
      <point x="231" y="155" type="qcurve"/>
      <point x="231" y="620" type="line"/>
      <point x="230" y="657"/>
      <point x="211" y="666" type="qcurve"/>
      <point x="190" y="677"/>
      <point x="163" y="677" type="qcurve"/>
      <point x="99" y="677" type="line"/>
      <point x="99" y="694" type="line"/>
      <point x="413" y="694" type="line"/>
      <point x="413" y="677" type="line"/>
      <point x="348" y="677" type="line"/>
      <point x="321" y="677"/>
      <point x="302" y="668" type="qcurve"/>
      <point x="283" y="657"/>
      <point x="283" y="620" type="qcurve"/>
      <point x="283" y="155" type="line"/>
    </contour>
  </outline>
</glyph>
<glyph name="L" format="2">
  <advance width="512"/>
  <unicode hex="004C"/>
  <outline>
    <contour>
      <point x="149" y="99"/>
      <point x="209" y="99" type="qcurve"/>
      <point x="301" y="99" type="line"/>
      <point x="344" y="100"/>
      <point x="375" y="116" type="qcurve"/>
      <point x="405" y="133"/>
      <point x="478" y="242" type="qcurve"/>
      <point x="490" y="236" type="line"/>
      <point x="416" y="76" type="line"/>
      <point x="23" y="76" type="line"/>
      <point x="23" y="93" type="line"/>
      <point x="97" y="93"/>
      <point x="97" y="151" type="qcurve"/>
      <point x="97" y="605" type="line"/>
      <point x="96" y="677"/>
      <point x="23" y="677" type="qcurve"/>
      <point x="23" y="694" type="line"/>
      <point x="224" y="694" type="line"/>
      <point x="224" y="677" type="line"/>
      <point x="149" y="677"/>
      <point x="149" y="605" type="qcurve"/>
      <point x="149" y="151" type="line"/>
    </contour>
  </outline>
</glyph>
<glyph name="N" format="2">
  <advance width="512"/>
  <unicode hex="004E"/>
  <outline>
    <contour>
      <point x="108" y="154" type="line"/>
      <point x="108" y="93"/>
      <point x="181" y="93" type="qcurve"/>
      <point x="181" y="76" type="line"/>
      <point x="18" y="76" type="line"/>
      <point x="18" y="93" type="line"/>
      <point x="91" y="93"/>
      <point x="91" y="154" type="qcurve"/>
      <point x="91" y="614" type="line"/>
      <point x="91" y="677"/>
      <point x="18" y="677" type="qcurve"/>
      <point x="18" y="694" type="line"/>
      <point x="136" y="694" type="line"/>
      <point x="403" y="188" type="line"/>
      <point x="403" y="610" type="line"/>
      <point x="403" y="677"/>
      <point x="330" y="677" type="qcurve"/>
      <point x="330" y="694" type="line"/>
      <point x="494" y="694" type="line"/>
      <point x="494" y="677" type="line"/>
      <point x="420" y="677"/>
      <point x="420" y="610" type="qcurve"/>
      <point x="420" y="76" type="line"/>
      <point x="403" y="76" type="line"/>
      <point x="108" y="636" type="line"/>
    </contour>
  </outline>
</glyph>
<glyph name="O" format="2">
  <advance width="512"/>
  <unicode hex="004F"/>
  <outline>
    <contour>
      <point x="176" y="704"/>
      <point x="261" y="704" type="qcurve"/>
      <point x="350" y="704"/>
      <point x="411" y="620" type="qcurve"/>
      <point x="482" y="527"/>
      <point x="482" y="383" type="qcurve"/>
      <point x="482" y="252"/>
      <point x="412" y="158" type="qcurve"/>
      <point x="341" y="66"/>
      <point x="259" y="66" type="qcurve"/>
      <point x="174" y="66"/>
      <point x="101" y="159" type="qcurve"/>
      <point x="31" y="246"/>
      <point x="31" y="373" type="qcurve"/>
      <point x="31" y="514"/>
      <point x="104" y="611" type="qcurve"/>
    </contour>
    <contour>
      <point x="83" y="491"/>
      <point x="83" y="373" type="qcurve"/>
      <point x="83" y="242"/>
      <point x="146" y="163" type="qcurve"/>
      <point x="205" y="89"/>
      <point x="259" y="89" type="qcurve"/>
      <point x="315" y="89"/>
      <point x="367" y="153" type="qcurve"/>
      <point x="430" y="239"/>
      <point x="430" y="383" type="qcurve"/>
      <point x="430" y="517"/>
      <point x="364" y="613" type="qcurve"/>
      <point x="315" y="682"/>
      <point x="261" y="682" type="qcurve"/>
      <point x="202" y="681"/>
      <point x="144" y="593" type="qcurve"/>
    </contour>
  </outline>
</glyph>
<glyph name="Q" format="2">
  <advance width="512"/>
  <unicode hex="0051"/>
  <outline>
    <contour>
      <point x="164" y="704"/>
      <point x="249" y="704" type="qcurve"/>
      <point x="338" y="704"/>
      <point x="399" y="620" type="qcurve"/>
      <point x="470" y="527"/>
      <point x="470" y="383" type="qcurve"/>
      <point x="470" y="252"/>
      <point x="400" y="158" type="qcurve"/>
      <point x="382" y="136"/>
      <point x="366" y="120" type="qcurve"/>
      <point x="397" y="49"/>
      <point x="428" y="49" type="qcurve"/>
      <point x="452" y="50"/>
      <point x="480" y="66" type="qcurve"/>
      <point x="494" y="55" type="line"/>
      <point x="443" y="-13"/>
      <point x="400" y="-13" type="qcurve"/>
      <point x="345" y="-12"/>
      <point x="320" y="85" type="qcurve"/>
      <point x="284" y="66"/>
      <point x="247" y="66" type="qcurve"/>
      <point x="162" y="66"/>
      <point x="89" y="159" type="qcurve"/>
      <point x="19" y="246"/>
      <point x="19" y="373" type="qcurve"/>
      <point x="19" y="514"/>
      <point x="92" y="611" type="qcurve"/>
    </contour>
    <contour>
      <point x="281" y="245"/>
      <point x="241" y="245" type="qcurve"/>
      <point x="209" y="244"/>
      <point x="193" y="219" type="qcurve"/>
      <point x="173" y="187"/>
      <point x="173" y="156" type="qcurve"/>
      <point x="173" y="136"/>
      <point x="177" y="118" type="qcurve"/>
      <point x="213" y="89"/>
      <point x="247" y="89" type="qcurve"/>
      <point x="280" y="89"/>
      <point x="313" y="113" type="qcurve"/>
    </contour>
    <contour>
      <point x="308" y="267"/>
      <point x="354" y="152" type="qcurve"/>
      <point x="354" y="153"/>
      <point x="355" y="153" type="qcurve"/>
      <point x="418" y="239"/>
      <point x="418" y="383" type="qcurve"/>
      <point x="418" y="517"/>
      <point x="352" y="613" type="qcurve"/>
      <point x="303" y="682"/>
      <point x="249" y="682" type="qcurve"/>
      <point x="190" y="681"/>
      <point x="132" y="593" type="qcurve"/>
      <point x="71" y="491"/>
      <point x="71" y="373" type="qcurve"/>
      <point x="71" y="242"/>
      <point x="134" y="163" type="qcurve"/>
      <point x="140" y="157"/>
      <point x="144" y="150" type="qcurve"/>
      <point x="150" y="176"/>
      <point x="163" y="209" type="qcurve"/>
      <point x="192" y="268"/>
      <point x="241" y="268" type="qcurve"/>
    </contour>
  </outline>
</glyph>
<glyph name="U" format="2">
  <advance width="512"/>
  <unicode hex="0055"/>
  <outline>
    <contour>
      <point x="150" y="160"/>
      <point x="183" y="127" type="qcurve"/>
      <point x="218" y="93"/>
      <point x="281" y="93" type="qcurve"/>
      <point x="334" y="94"/>
      <point x="370" y="131" type="qcurve"/>
      <point x="409" y="174"/>
      <point x="409" y="243" type="qcurve"/>
      <point x="409" y="615" type="line"/>
      <point x="409" y="677"/>
      <point x="346" y="677" type="qcurve"/>
      <point x="346" y="694" type="line"/>
      <point x="487" y="694" type="line"/>
      <point x="487" y="677" type="line"/>
      <point x="426" y="676"/>
      <point x="426" y="615" type="qcurve"/>
      <point x="426" y="243" type="line"/>
      <point x="426" y="162"/>
      <point x="383" y="113" type="qcurve"/>
      <point x="341" y="66"/>
      <point x="281" y="66" type="qcurve"/>
      <point x="188" y="66"/>
      <point x="145" y="108" type="qcurve"/>
      <point x="98" y="154"/>
      <point x="98" y="233" type="qcurve"/>
      <point x="98" y="606" type="line"/>
      <point x="98" y="679"/>
      <point x="26" y="679" type="qcurve"/>
      <point x="26" y="694" type="line"/>
      <point x="223" y="694" type="line"/>
      <point x="223" y="677" type="line"/>
      <point x="150" y="676"/>
      <point x="150" y="606" type="qcurve"/>
      <point x="150" y="233" type="line"/>
    </contour>
  </outline>
</glyph>
<glyph name="W" format="2">
  <advance width="512"/>
  <unicode hex="0057"/>
  <outline>
    <contour>
      <point x="59" y="658"/>
      <point x="47" y="668" type="qcurve"/>
      <point x="33" y="678"/>
      <point x="11" y="677" type="qcurve"/>
      <point x="11" y="694" type="line"/>
      <point x="154" y="694" type="line"/>
      <point x="154" y="677" type="line"/>
      <point x="132" y="678"/>
      <point x="123" y="672" type="qcurve"/>
      <point x="113" y="666"/>
      <point x="117" y="638" type="qcurve"/>
      <point x="192" y="220" type="line"/>
      <point x="258" y="642" type="line"/>
      <point x="252" y="661"/>
      <point x="243" y="668" type="qcurve"/>
      <point x="231" y="677"/>
      <point x="204" y="677" type="qcurve"/>
      <point x="204" y="694" type="line"/>
      <point x="356" y="694" type="line"/>
      <point x="356" y="677" type="line"/>
      <point x="328" y="677"/>
      <point x="318" y="671" type="qcurve"/>
      <point x="307" y="664"/>
      <point x="311" y="634" type="qcurve"/>
      <point x="374" y="219" type="line"/>
      <point x="445" y="637" type="line"/>
      <point x="448" y="663"/>
      <point x="441" y="670" type="qcurve"/>
      <point x="432" y="678"/>
      <point x="416" y="677" type="qcurve"/>
      <point x="416" y="694" type="line"/>
      <point x="502" y="694" type="line"/>
      <point x="502" y="677" type="line"/>
      <point x="484" y="678"/>
      <point x="477" y="671" type="qcurve"/>
      <point x="470" y="664"/>
      <point x="466" y="637" type="qcurve"/>
      <point x="372" y="82" type="line"/>
      <point x="372" y="76" type="line"/>
      <point x="347" y="76" type="line"/>
      <point x="267" y="583" type="line"/>
      <point x="190" y="89" type="line"/>
      <point x="190" y="76" type="line"/>
      <point x="167" y="76" type="line"/>
      <point x="63" y="638" type="line"/>
    </contour>
  </outline>
</glyph>
<glyph name="Y" format="2">
  <advance width="512"/>
  <unicode hex="0059"/>
  <outline>
    <contour>
      <point x="46" y="678"/>
      <point x="6" y="677" type="qcurve"/>
      <point x="6" y="694" type="line"/>
      <point x="192" y="694" type="line"/>
      <point x="192" y="677" type="line"/>
      <point x="139" y="678"/>
      <point x="126" y="666" type="qcurve"/>
      <point x="113" y="655"/>
      <point x="123" y="634" type="qcurve"/>
      <point x="268" y="376" type="line"/>
      <point x="411" y="635" type="line"/>
      <point x="423" y="660"/>
      <point x="413" y="669" type="qcurve"/>
      <point x="400" y="679"/>
      <point x="369" y="678" type="qcurve"/>
      <point x="369" y="694" type="line"/>
      <point x="507" y="694" type="line"/>
      <point x="507" y="681" type="line"/>
      <point x="457" y="681"/>
      <point x="432" y="635" type="qcurve"/>
      <point x="279" y="357" type="line"/>
      <point x="279" y="161" type="line"/>
      <point x="279" y="128"/>
      <point x="300" y="110" type="qcurve"/>
      <point x="323" y="93"/>
      <point x="372" y="93" type="qcurve"/>
      <point x="372" y="76" type="line"/>
      <point x="134" y="76" type="line"/>
      <point x="134" y="93" type="line"/>
      <point x="183" y="93"/>
      <point x="205" y="111" type="qcurve"/>
      <point x="227" y="128"/>
      <point x="227" y="161" type="qcurve"/>
      <point x="227" y="357" type="line"/>
      <point x="71" y="634" type="line"/>
    </contour>
  </outline>
</glyph>
<glyph name="Z" format="2">
  <advance width="512"/>
  <unicode hex="005A"/>
  <outline>
    <contour>
      <point x="249" y="99" type="line"/>
      <point x="303" y="99"/>
      <point x="361" y="120" type="qcurve"/>
      <point x="416" y="141"/>
      <point x="465" y="214" type="qcurve"/>
      <point x="477" y="208" type="line"/>
      <point x="421" y="76" type="line"/>
      <point x="36" y="76" type="line"/>
      <point x="36" y="110" type="line"/>
      <point x="377" y="672" type="line"/>
      <point x="227" y="672" type="line"/>
      <point x="152" y="672"/>
      <point x="103" y="644" type="qcurve"/>
      <point x="59" y="617"/>
      <point x="49" y="554" type="qcurve"/>
      <point x="37" y="554" type="line"/>
      <point x="55" y="694" type="line"/>
      <point x="433" y="694" type="line"/>
      <point x="433" y="672" type="line"/>
      <point x="92" y="99" type="line"/>
    </contour>
  </outline>
</glyph>
<glyph name="a" format="2">
  <advance width="512"/>
  <unicode hex="0061"/>
  <outline>
    <contour>
      <point x="408" y="111"/>
      <point x="432" y="111" type="qcurve"/>
      <point x="442" y="111"/>
      <point x="466" y="123" type="qcurve"/>
      <point x="478" y="108" type="line"/>
      <point x="436" y="66"/>
      <point x="396" y="66" type="qcurve"/>
      <point x="377" y="66"/>
      <point x="367" y="78" type="qcurve"/>
      <point x="356" y="91"/>
      <point x="356" y="115" type="qcurve"/>
      <point x="356" y="137" type="line"/>
      <point x="330" y="113"/>
      <point x="302" y="97" type="qcurve"/>
      <point x="242" y="66"/>
      <point x="169" y="66" type="qcurve"/>
      <point x="113" y="67"/>
      <point x="76" y="95" type="qcurve"/>
      <point x="32" y="128"/>
      <point x="33" y="183" type="qcurve"/>
      <point x="32" y="247"/>
      <point x="99" y="283" type="qcurve"/>
      <point x="161" y="318"/>
      <point x="260" y="317" type="qcurve"/>
      <point x="310" y="317"/>
      <point x="356" y="296" type="qcurve"/>
      <point x="356" y="386" type="line"/>
      <point x="356" y="426"/>
      <point x="322" y="447" type="qcurve"/>
      <point x="288" y="467"/>
      <point x="237" y="467" type="qcurve"/>
      <point x="214" y="466"/>
      <point x="186" y="459" type="qcurve"/>
      <point x="156" y="449"/>
      <point x="156" y="407" type="qcurve"/>
      <point x="155" y="389"/>
      <point x="143" y="382" type="qcurve"/>
      <point x="130" y="375"/>
      <point x="118" y="375" type="qcurve"/>
      <point x="106" y="377"/>
      <point x="96" y="384" type="qcurve"/>
      <point x="85" y="394"/>
      <point x="85" y="407" type="qcurve"/>
      <point x="85" y="444"/>
      <point x="127" y="468" type="qcurve"/>
      <point x="171" y="496"/>
      <point x="237" y="495" type="qcurve"/>
      <point x="312" y="494"/>
      <point x="360" y="457" type="qcurve"/>
      <point x="408" y="419"/>
      <point x="408" y="359" type="qcurve"/>
      <point x="408" y="129" type="line"/>
    </contour>
    <contour>
      <point x="209" y="287"/>
      <point x="145" y="259" type="qcurve"/>
      <point x="84" y="231"/>
      <point x="85" y="183" type="qcurve"/>
      <point x="84" y="144"/>
      <point x="115" y="125" type="qcurve"/>
      <point x="146" y="105"/>
      <point x="206" y="105" type="qcurve"/>
      <point x="252" y="106"/>
      <point x="297" y="128" type="qcurve"/>
      <point x="331" y="147"/>
      <point x="356" y="172" type="qcurve"/>
      <point x="356" y="281" type="line"/>
      <point x="314" y="286" type="line"/>
    </contour>
  </outline>
</glyph>
<glyph name="b" format="2">
  <advance width="512"/>
  <unicode hex="0062"/>
  <outline>
    <contour>
      <point x="99" y="635"/>
      <point x="35" y="634" type="qcurve"/>
      <point x="35" y="651" type="line"/>
      <point x="142" y="704" type="line"/>
      <point x="152" y="704" type="line"/>
      <point x="152" y="416" type="line"/>
      <point x="243" y="485"/>
      <point x="304" y="485" type="qcurve"/>
      <point x="365" y="485"/>
      <point x="416" y="437" type="qcurve"/>
      <point x="477" y="384"/>
      <point x="477" y="290" type="qcurve"/>
      <point x="477" y="182"/>
      <point x="416" y="127" type="qcurve"/>
      <point x="350" y="66"/>
      <point x="245" y="66" type="qcurve"/>
      <point x="176" y="67"/>
      <point x="100" y="110" type="qcurve"/>
      <point x="100" y="578" type="line"/>
    </contour>
    <contour>
      <point x="152" y="129" type="line"/>
      <point x="213" y="94"/>
      <point x="273" y="94" type="qcurve"/>
      <point x="340" y="94"/>
      <point x="386" y="152" type="qcurve"/>
      <point x="425" y="202"/>
      <point x="425" y="290" type="qcurve"/>
      <point x="424" y="353"/>
      <point x="381" y="402" type="qcurve"/>
      <point x="346" y="443"/>
      <point x="300" y="443" type="qcurve"/>
      <point x="243" y="442"/>
      <point x="152" y="387" type="qcurve"/>
    </contour>
  </outline>
</glyph>
<glyph name="c" format="2">
  <advance width="512"/>
  <unicode hex="0063"/>
  <outline>
    <contour>
      <point x="354" y="494"/>
      <point x="396" y="463" type="qcurve"/>
      <point x="425" y="441"/>
      <point x="421" y="419" type="qcurve"/>
      <point x="415" y="397"/>
      <point x="393" y="397" type="qcurve"/>
      <point x="373" y="397"/>
      <point x="360" y="419" type="qcurve"/>
      <point x="330" y="460"/>
      <point x="257" y="459" type="qcurve"/>
      <point x="201" y="458"/>
      <point x="159" y="415" type="qcurve"/>
      <point x="110" y="366"/>
      <point x="111" y="276" type="qcurve"/>
      <point x="111" y="194"/>
      <point x="163" y="146" type="qcurve"/>
      <point x="215" y="103"/>
      <point x="285" y="103" type="qcurve"/>
      <point x="366" y="102"/>
      <point x="436" y="172" type="qcurve"/>
      <point x="453" y="156" type="line"/>
      <point x="376" y="67"/>
      <point x="285" y="66" type="qcurve"/>
      <point x="192" y="66"/>
      <point x="128" y="117" type="qcurve"/>
      <point x="59" y="176"/>
      <point x="59" y="276" type="qcurve"/>
      <point x="59" y="364"/>
      <point x="108" y="422" type="qcurve"/>
      <point x="171" y="494"/>
      <point x="277" y="494" type="qcurve"/>
    </contour>
  </outline>
</glyph>
<glyph name="e" format="2">
  <advance width="512"/>
  <unicode hex="0065"/>
  <outline>
    <contour>
      <point x="164" y="67"/>
      <point x="106" y="131" type="qcurve"/>
      <point x="53" y="187"/>
      <point x="53" y="275" type="qcurve"/>
      <point x="53" y="366"/>
      <point x="107" y="432" type="qcurve"/>
      <point x="159" y="495"/>
      <point x="262" y="495" type="qcurve"/>
      <point x="356" y="495"/>
      <point x="402" y="431" type="qcurve"/>
      <point x="435" y="392"/>
      <point x="441" y="316" type="qcurve"/>
      <point x="441" y="293" type="line"/>
      <point x="105" y="293" type="line"/>
      <point x="105" y="275" type="line"/>
      <point x="106" y="201"/>
      <point x="152" y="156" type="qcurve"/>
      <point x="199" y="111"/>
      <point x="280" y="111" type="qcurve"/>
      <point x="324" y="110"/>
      <point x="364" y="134" type="qcurve"/>
      <point x="401" y="158"/>
      <point x="437" y="207" type="qcurve"/>
      <point x="460" y="199" type="line"/>
      <point x="383" y="67"/>
      <point x="260" y="67" type="qcurve"/>
    </contour>
    <contour>
      <point x="184" y="466"/>
      <point x="144" y="411" type="qcurve"/>
      <point x="114" y="373"/>
      <point x="107" y="316" type="qcurve"/>
      <point x="388" y="316" type="line"/>
      <point x="384" y="393"/>
      <point x="357" y="429" type="qcurve"/>
      <point x="326" y="467"/>
      <point x="262" y="467" type="qcurve"/>
    </contour>
  </outline>
</glyph>
<glyph name="g" format="2">
  <advance width="512"/>
  <unicode hex="0067"/>
  <outline>
    <contour>
      <point x="154" y="-42"/>
      <point x="108" y="-27" type="qcurve"/>
      <point x="53" y="-8"/>
      <point x="53" y="31" type="qcurve"/>
      <point x="53" y="71"/>
      <point x="98" y="110" type="qcurve"/>
      <point x="113" y="122"/>
      <point x="132" y="132" type="qcurve"/>
      <point x="116" y="137"/>
      <point x="107" y="141" type="qcurve"/>
      <point x="73" y="160"/>
      <point x="73" y="182" type="qcurve"/>
      <point x="74" y="206"/>
      <point x="111" y="228" type="qcurve"/>
      <point x="130" y="240"/>
      <point x="157" y="247" type="qcurve"/>
      <point x="131" y="257"/>
      <point x="112" y="275" type="qcurve"/>
      <point x="65" y="317"/>
      <point x="65" y="366" type="qcurve"/>
      <point x="65" y="427"/>
      <point x="113" y="464" type="qcurve"/>
      <point x="151" y="496"/>
      <point x="215" y="496" type="qcurve"/>
      <point x="282" y="496"/>
      <point x="322" y="471" type="qcurve"/>
      <point x="345" y="480"/>
      <point x="358" y="484" type="qcurve"/>
      <point x="387" y="497"/>
      <point x="405" y="497" type="qcurve"/>
      <point x="425" y="496"/>
      <point x="438" y="486" type="qcurve"/>
      <point x="454" y="473"/>
      <point x="454" y="460" type="qcurve"/>
      <point x="453" y="448"/>
      <point x="449" y="441" type="qcurve"/>
      <point x="444" y="434"/>
      <point x="438" y="434" type="qcurve"/>
      <point x="423" y="434"/>
      <point x="414" y="447" type="qcurve"/>
      <point x="404" y="459"/>
      <point x="386" y="460" type="qcurve"/>
      <point x="376" y="460"/>
      <point x="348" y="451" type="qcurve"/>
      <point x="391" y="409"/>
      <point x="391" y="357" type="qcurve"/>
      <point x="390" y="299"/>
      <point x="347" y="269" type="qcurve"/>
      <point x="299" y="236"/>
      <point x="229" y="236" type="qcurve"/>
      <point x="208" y="236"/>
      <point x="190" y="239" type="qcurve"/>
      <point x="127" y="223"/>
      <point x="128" y="202" type="qcurve"/>
      <point x="127" y="183"/>
      <point x="260" y="182" type="qcurve"/>
      <point x="336" y="181"/>
      <point x="390" y="156" type="qcurve"/>
      <point x="451" y="124"/>
      <point x="451" y="69" type="qcurve"/>
      <point x="451" y="18"/>
      <point x="399" y="-12" type="qcurve"/>
      <point x="347" y="-43"/>
      <point x="230" y="-43" type="qcurve"/>
    </contour>
    <contour>
      <point x="342" y="123"/>
      <point x="260" y="123" type="qcurve"/>
      <point x="201" y="123"/>
      <point x="164" y="127" type="qcurve"/>
      <point x="154" y="124"/>
      <point x="147" y="120" type="qcurve"/>
      <point x="105" y="95"/>
      <point x="105" y="59" type="qcurve"/>
      <point x="106" y="22"/>
      <point x="146" y="9" type="qcurve"/>
      <point x="185" y="-4"/>
      <point x="270" y="-4" type="qcurve"/>
      <point x="335" y="-4"/>
      <point x="374" y="15" type="qcurve"/>
      <point x="413" y="35"/>
      <point x="413" y="60" type="qcurve"/>
      <point x="413" y="84"/>
      <point x="380" y="103" type="qcurve"/>
    </contour>
    <contour>
      <point x="118" y="355"/>
      <point x="155" y="309" type="qcurve"/>
      <point x="194" y="265"/>
      <point x="243" y="265" type="qcurve"/>
      <point x="283" y="265"/>
      <point x="313" y="284" type="qcurve"/>
      <point x="339" y="301"/>
      <point x="339" y="326" type="qcurve"/>
      <point x="339" y="381"/>
      <point x="300" y="420" type="qcurve"/>
      <point x="256" y="464"/>
      <point x="204" y="464" type="qcurve"/>
      <point x="164" y="463"/>
      <point x="142" y="447" type="qcurve"/>
      <point x="117" y="430"/>
      <point x="117" y="403" type="qcurve"/>
    </contour>
  </outline>
</glyph>
<glyph name="h" format="2">
  <advance width="512"/>
  <unicode hex="0068"/>
  <outline>
    <contour>
      <point x="102" y="632"/>
      <point x="32" y="632" type="qcurve"/>
      <point x="32" y="649" type="line"/>
      <point x="144" y="704" type="line"/>
      <point x="155" y="704" type="line"/>
      <point x="155" y="402" type="line"/>
      <point x="245" y="485"/>
      <point x="294" y="485" type="qcurve"/>
      <point x="421" y="485"/>
      <point x="421" y="388" type="qcurve"/>
      <point x="421" y="143" type="line"/>
      <point x="421" y="93"/>
      <point x="481" y="93" type="qcurve"/>
      <point x="481" y="76" type="line"/>
      <point x="311" y="76" type="line"/>
      <point x="311" y="93" type="line"/>
      <point x="369" y="94"/>
      <point x="369" y="143" type="qcurve"/>
      <point x="369" y="388" type="line"/>
      <point x="369" y="440"/>
      <point x="294" y="440" type="qcurve"/>
      <point x="237" y="440"/>
      <point x="155" y="376" type="qcurve"/>
      <point x="155" y="139" type="line"/>
      <point x="156" y="93"/>
      <point x="214" y="93" type="qcurve"/>
      <point x="214" y="76" type="line"/>
      <point x="43" y="76" type="line"/>
      <point x="43" y="93" type="line"/>
      <point x="103" y="93"/>
      <point x="103" y="139" type="qcurve"/>
      <point x="103" y="584" type="line"/>
    </contour>
  </outline>
</glyph>
<glyph name="j" format="2">
  <advance width="512"/>
  <unicode hex="006A"/>
  <outline>
    <contour>
      <point x="408" y="668"/>
      <point x="421" y="658" type="qcurve"/>
      <point x="433" y="648"/>
      <point x="433" y="629" type="qcurve"/>
      <point x="432" y="613"/>
      <point x="422" y="601" type="qcurve"/>
      <point x="411" y="588"/>
      <point x="392" y="588" type="qcurve"/>
      <point x="373" y="588"/>
      <point x="363" y="600" type="qcurve"/>
      <point x="352" y="614"/>
      <point x="352" y="629" type="qcurve"/>
      <point x="353" y="649"/>
      <point x="363" y="659" type="qcurve"/>
      <point x="374" y="669"/>
      <point x="392" y="669" type="qcurve"/>
    </contour>
    <contour>
      <point x="40" y="36"/>
      <point x="40" y="112" type="qcurve"/>
      <point x="41" y="152"/>
      <point x="54" y="171" type="qcurve"/>
      <point x="67" y="190"/>
      <point x="97" y="190" type="qcurve"/>
      <point x="111" y="190"/>
      <point x="120" y="178" type="qcurve"/>
      <point x="129" y="168"/>
      <point x="129" y="155" type="qcurve"/>
      <point x="129" y="134"/>
      <point x="114" y="112" type="qcurve"/>
      <point x="99" y="90"/>
      <point x="99" y="69" type="qcurve"/>
      <point x="100" y="29"/>
      <point x="137" y="-1" type="qcurve"/>
      <point x="177" y="-30"/>
      <point x="238" y="-30" type="qcurve"/>
      <point x="312" y="-30"/>
      <point x="343" y="7" type="qcurve"/>
      <point x="377" y="46"/>
      <point x="377" y="122" type="qcurve"/>
      <point x="377" y="372" type="line"/>
      <point x="377" y="407"/>
      <point x="349" y="414" type="qcurve"/>
      <point x="315" y="424"/>
      <point x="248" y="424" type="qcurve"/>
      <point x="248" y="446" type="line"/>
      <point x="329" y="447"/>
      <point x="408" y="495" type="qcurve"/>
      <point x="431" y="495" type="line"/>
      <point x="431" y="110" type="line"/>
      <point x="431" y="34"/>
      <point x="383" y="-12" type="qcurve"/>
      <point x="335" y="-58"/>
      <point x="238" y="-58" type="qcurve"/>
      <point x="161" y="-58"/>
      <point x="101" y="-12" type="qcurve"/>
    </contour>
  </outline>
</glyph>
<glyph name="n" format="2">
  <advance width="512"/>
  <unicode hex="006E"/>
  <outline>
    <contour>
      <point x="423" y="93"/>
      <point x="481" y="93" type="qcurve"/>
      <point x="481" y="76" type="line"/>
      <point x="311" y="76" type="line"/>
      <point x="311" y="93" type="line"/>
      <point x="370" y="94"/>
      <point x="370" y="143" type="qcurve"/>
      <point x="370" y="388" type="line"/>
      <point x="370" y="450"/>
      <point x="294" y="450" type="qcurve"/>
      <point x="234" y="450"/>
      <point x="143" y="380" type="qcurve"/>
      <point x="143" y="139" type="line"/>
      <point x="144" y="93"/>
      <point x="202" y="93" type="qcurve"/>
      <point x="202" y="76" type="line"/>
      <point x="32" y="76" type="line"/>
      <point x="32" y="93" type="line"/>
      <point x="91" y="93"/>
      <point x="91" y="139" type="qcurve"/>
      <point x="91" y="381" type="line"/>
      <point x="90" y="424"/>
      <point x="32" y="424" type="qcurve"/>
      <point x="32" y="441" type="line"/>
      <point x="132" y="495" type="line"/>
      <point x="143" y="495" type="line"/>
      <point x="143" y="407" type="line"/>
      <point x="237" y="495"/>
      <point x="294" y="495" type="qcurve"/>
      <point x="422" y="494"/>
      <point x="422" y="388" type="qcurve"/>
      <point x="422" y="143" type="line"/>
    </contour>
  </outline>
</glyph>
<glyph name="o" format="2">
  <advance width="512"/>
  <unicode hex="006F"/>
  <outline>
    <contour>
      <point x="165" y="495"/>
      <point x="259" y="495" type="qcurve"/>
      <point x="356" y="495"/>
      <point x="414" y="423" type="qcurve"/>
      <point x="462" y="367"/>
      <point x="462" y="270" type="qcurve"/>
      <point x="461" y="186"/>
      <point x="403" y="125" type="qcurve"/>
      <point x="347" y="66"/>
      <point x="259" y="66" type="qcurve"/>
      <point x="166" y="66"/>
      <point x="111" y="123" type="qcurve"/>
      <point x="50" y="186"/>
      <point x="50" y="270" type="qcurve"/>
      <point x="51" y="364"/>
      <point x="109" y="431" type="qcurve"/>
    </contour>
    <contour>
      <point x="102" y="361"/>
      <point x="102" y="270" type="qcurve"/>
      <point x="102" y="186"/>
      <point x="153" y="135" type="qcurve"/>
      <point x="198" y="91"/>
      <point x="259" y="91" type="qcurve"/>
      <point x="316" y="91"/>
      <point x="362" y="136" type="qcurve"/>
      <point x="410" y="185"/>
      <point x="410" y="270" type="qcurve"/>
      <point x="410" y="365"/>
      <point x="365" y="416" type="qcurve"/>
      <point x="319" y="470"/>
      <point x="259" y="470" type="qcurve"/>
      <point x="198" y="470"/>
      <point x="149" y="418" type="qcurve"/>
    </contour>
  </outline>
</glyph>
<glyph name="q" format="2">
  <advance width="512"/>
  <unicode hex="0071"/>
  <outline>
    <contour>
      <point x="395" y="-19"/>
      <point x="411" y="-29" type="qcurve"/>
      <point x="427" y="-38"/>
      <point x="478" y="-38" type="qcurve"/>
      <point x="478" y="-58" type="line"/>
      <point x="257" y="-58" type="line"/>
      <point x="257" y="-38" type="line"/>
      <point x="302" y="-38"/>
      <point x="320" y="-29" type="qcurve"/>
      <point x="342" y="-18"/>
      <point x="342" y="9" type="qcurve"/>
      <point x="342" y="104" type="line"/>
      <point x="285" y="67"/>
      <point x="231" y="66" type="qcurve"/>
      <point x="146" y="67"/>
      <point x="94" y="121" type="qcurve"/>
      <point x="32" y="185"/>
      <point x="33" y="278" type="qcurve"/>
      <point x="33" y="377"/>
      <point x="84" y="435" type="qcurve"/>
      <point x="133" y="496"/>
      <point x="202" y="495" type="qcurve"/>
      <point x="272" y="495"/>
      <point x="342" y="446" type="qcurve"/>
      <point x="377" y="495" type="line"/>
      <point x="394" y="495" type="line"/>
      <point x="394" y="9" type="line"/>
    </contour>
    <contour>
      <point x="342" y="420" type="line"/>
      <point x="277" y="451"/>
      <point x="232" y="450" type="qcurve"/>
      <point x="166" y="451"/>
      <point x="126" y="405" type="qcurve"/>
      <point x="85" y="357"/>
      <point x="85" y="278" type="qcurve"/>
      <point x="86" y="189"/>
      <point x="138" y="138" type="qcurve"/>
      <point x="186" y="94"/>
      <point x="244" y="94" type="qcurve"/>
      <point x="293" y="94"/>
      <point x="342" y="133" type="qcurve"/>
    </contour>
  </outline>
</glyph>
<glyph name="s" format="2">
  <advance width="512"/>
  <unicode hex="0073"/>
  <outline>
    <contour>
      <point x="428" y="367" type="line"/>
      <point x="414" y="367" type="line"/>
      <point x="385" y="429"/>
      <point x="351" y="448" type="qcurve"/>
      <point x="316" y="467"/>
      <point x="280" y="467" type="qcurve"/>
      <point x="213" y="466"/>
      <point x="179" y="444" type="qcurve"/>
      <point x="149" y="422"/>
      <point x="149" y="391" type="qcurve"/>
      <point x="149" y="364"/>
      <point x="168" y="345" type="qcurve"/>
      <point x="185" y="327"/>
      <point x="281" y="311" type="qcurve"/>
      <point x="383" y="295"/>
      <point x="419" y="262" type="qcurve"/>
      <point x="452" y="230"/>
      <point x="453" y="191" type="qcurve"/>
      <point x="453" y="146"/>
      <point x="410" y="107" type="qcurve"/>
      <point x="363" y="66"/>
      <point x="281" y="66" type="qcurve"/>
      <point x="191" y="68"/>
      <point x="97" y="120" type="qcurve"/>
      <point x="60" y="204" type="line"/>
      <point x="74" y="215" type="line"/>
      <point x="126" y="149"/>
      <point x="175" y="121" type="qcurve"/>
      <point x="222" y="94"/>
      <point x="268" y="94" type="qcurve"/>
      <point x="327" y="94"/>
      <point x="366" y="122" type="qcurve"/>
      <point x="400" y="149"/>
      <point x="400" y="179" type="qcurve"/>
      <point x="400" y="210"/>
      <point x="376" y="229" type="qcurve"/>
      <point x="349" y="249"/>
      <point x="253" y="265" type="qcurve"/>
      <point x="152" y="284"/>
      <point x="127" y="311" type="qcurve"/>
      <point x="96" y="339"/>
      <point x="97" y="378" type="qcurve"/>
      <point x="97" y="429"/>
      <point x="143" y="462" type="qcurve"/>
      <point x="190" y="495"/>
      <point x="266" y="495" type="qcurve"/>
      <point x="340" y="496"/>
      <point x="436" y="436" type="qcurve"/>
    </contour>
  </outline>
</glyph>
<glyph name="v" format="2">
  <advance width="512"/>
  <unicode hex="0076"/>
  <outline>
    <contour>
      <point x="90" y="478"/>
      <point x="54" y="478" type="qcurve"/>
      <point x="54" y="495" type="line"/>
      <point x="207" y="495" type="line"/>
      <point x="207" y="478" type="line"/>
      <point x="176" y="479"/>
      <point x="164" y="472" type="qcurve"/>
      <point x="151" y="464"/>
      <point x="158" y="446" type="qcurve"/>
      <point x="272" y="144" type="line"/>
      <point x="391" y="445" type="line"/>
      <point x="396" y="465"/>
      <point x="392" y="471" type="qcurve"/>
      <point x="386" y="479"/>
      <point x="364" y="478" type="qcurve"/>
      <point x="364" y="495" type="line"/>
      <point x="458" y="495" type="line"/>
      <point x="458" y="478" type="line"/>
      <point x="428" y="478"/>
      <point x="415" y="445" type="qcurve"/>
      <point x="270" y="76" type="line"/>
      <point x="246" y="76" type="line"/>
      <point x="104" y="446" type="line"/>
    </contour>
  </outline>
</glyph>
<glyph name="w" format="2">
  <advance width="512"/>
  <unicode hex="0077"/>
  <outline>
    <contour>
      <point x="495" y="478" type="line"/>
      <point x="467" y="477"/>
      <point x="457" y="440" type="qcurve"/>
      <point x="350" y="76" type="line"/>
      <point x="329" y="76" type="line"/>
      <point x="262" y="362" type="line"/>
      <point x="168" y="76" type="line"/>
      <point x="147" y="76" type="line"/>
      <point x="61" y="432" type="line"/>
      <point x="48" y="479"/>
      <point x="17" y="478" type="qcurve"/>
      <point x="17" y="495" type="line"/>
      <point x="144" y="495" type="line"/>
      <point x="144" y="478" type="line"/>
      <point x="111" y="478"/>
      <point x="107" y="471" type="qcurve"/>
      <point x="103" y="463"/>
      <point x="110" y="432" type="qcurve"/>
      <point x="172" y="160" type="line"/>
      <point x="172" y="155" type="line"/>
      <point x="253" y="401" type="line"/>
      <point x="246" y="435" type="line"/>
      <point x="235" y="478"/>
      <point x="201" y="478" type="qcurve"/>
      <point x="201" y="495" type="line"/>
      <point x="334" y="495" type="line"/>
      <point x="334" y="478" type="line"/>
      <point x="303" y="478"/>
      <point x="296" y="471" type="qcurve"/>
      <point x="288" y="463"/>
      <point x="292" y="435" type="qcurve"/>
      <point x="350" y="157" type="line"/>
      <point x="350" y="151" type="line"/>
      <point x="436" y="440" type="line"/>
      <point x="443" y="470"/>
      <point x="434" y="474" type="qcurve"/>
      <point x="425" y="479"/>
      <point x="412" y="478" type="qcurve"/>
      <point x="412" y="495" type="line"/>
      <point x="495" y="495" type="line"/>
    </contour>
  </outline>
</glyph>
<glyph name="y" format="2">
  <advance width="512"/>
  <unicode hex="0079"/>
  <outline>
    <contour>
      <point x="226" y="-57"/>
      <point x="180" y="-58" type="qcurve"/>
      <point x="142" y="-57"/>
      <point x="126" y="-41" type="qcurve"/>
      <point x="108" y="-25"/>
      <point x="108" y="-6" type="qcurve"/>
      <point x="107" y="25"/>
      <point x="123" y="38" type="qcurve"/>
      <point x="139" y="51"/>
      <point x="158" y="51" type="qcurve"/>
      <point x="192" y="51"/>
      <point x="199" y="14" type="qcurve"/>
      <point x="202" y="-19"/>
      <point x="208" y="-19" type="qcurve"/>
      <point x="216" y="-19"/>
      <point x="225" y="0" type="qcurve"/>
      <point x="260" y="91" type="line"/>
      <point x="116" y="440" type="line"/>
      <point x="98" y="479"/>
      <point x="46" y="478" type="qcurve"/>
      <point x="46" y="495" type="line"/>
      <point x="221" y="495" type="line"/>
      <point x="221" y="478" type="line"/>
      <point x="183" y="478"/>
      <point x="170" y="469" type="qcurve"/>
      <point x="161" y="461"/>
      <point x="168" y="440" type="qcurve"/>
      <point x="287" y="158" type="line"/>
      <point x="398" y="442" type="line"/>
      <point x="403" y="463"/>
      <point x="396" y="470" type="qcurve"/>
      <point x="387" y="479"/>
      <point x="368" y="478" type="qcurve"/>
      <point x="368" y="495" type="line"/>
      <point x="466" y="495" type="line"/>
      <point x="466" y="478" type="line"/>
      <point x="437" y="478"/>
      <point x="424" y="442" type="qcurve"/>
      <point x="251" y="0" type="line"/>
    </contour>
  </outline>
</glyph>
<glyph name="asciitilde" format="2">
  <advance width="512"/>
  <unicode hex="007E"/>
  <outline>
    <contour>
      <point x="471" y="686" type="line"/>
      <point x="383" y="568"/>
      <point x="332" y="568" type="qcurve"/>
      <point x="307" y="568"/>
      <point x="234" y="607" type="qcurve"/>
      <point x="169" y="641"/>
      <point x="141" y="641" type="qcurve"/>
      <point x="108" y="640"/>
      <point x="68" y="579" type="qcurve"/>
      <point x="42" y="595" type="line"/>
      <point x="103" y="700"/>
      <point x="160" y="700" type="qcurve"/>
      <point x="188" y="700"/>
      <point x="254" y="663" type="qcurve"/>
      <point x="324" y="627"/>
      <point x="352" y="627" type="qcurve"/>
      <point x="384" y="627"/>
      <point x="445" y="705" type="qcurve"/>
    </contour>
  </outline>
</glyph>
<glyph name="uniE080" format="2">
  <advance width="1024"/>
  <unicode hex="E080"/>
  <outline>
    <contour>
      <point x="652" y="641"/>
      <point x="778" y="632" type="qcurve"/>
      <point x="778" y="633" type="line"/>
      <point x="753" y="663"/>
      <point x="725" y="681" type="qcurve"/>
      <point x="716" y="687"/>
      <point x="720" y="696" type="qcurve"/>
      <point x="725" y="705"/>
      <point x="738" y="698" type="qcurve"/>
      <point x="859" y="645"/>
      <point x="862" y="611" type="qcurve"/>
      <point x="866" y="587"/>
      <point x="853" y="572" type="qcurve"/>
      <point x="840" y="556"/>
      <point x="834" y="555" type="qcurve"/>
      <point x="828" y="555"/>
      <point x="818" y="574" type="qcurve"/>
      <point x="807" y="592"/>
      <point x="797" y="607" type="qcurve"/>
      <point x="586" y="606"/>
      <point x="429" y="578" type="qcurve"/>
      <point x="417" y="575"/>
      <point x="416" y="582" type="qcurve"/>
      <point x="410" y="602"/>
      <point x="400" y="620" type="qcurve"/>
      <point x="394" y="633"/>
      <point x="406" y="634" type="qcurve"/>
      <point x="499" y="665"/>
      <point x="578" y="748" type="qcurve"/>
      <point x="430" y="748" type="line"/>
      <point x="388" y="747"/>
      <point x="357" y="741" type="qcurve"/>
      <point x="349" y="738"/>
      <point x="346" y="747" type="qcurve"/>
      <point x="342" y="765"/>
      <point x="327" y="777" type="qcurve"/>
      <point x="320" y="784"/>
      <point x="323" y="788" type="qcurve"/>
      <point x="327" y="791"/>
      <point x="334" y="787" type="qcurve"/>
      <point x="372" y="779"/>
      <point x="418" y="779" type="qcurve"/>
      <point x="619" y="779" type="line"/>
      <point x="618" y="781"/>
      <point x="618" y="782" type="qcurve"/>
      <point x="608" y="824"/>
      <point x="584" y="848" type="qcurve"/>
      <point x="576" y="856"/>
      <point x="580" y="863" type="qcurve"/>
      <point x="586" y="872"/>
      <point x="599" y="863" type="qcurve"/>
      <point x="663" y="835"/>
      <point x="667" y="813" type="qcurve"/>
      <point x="666" y="792"/>
      <point x="656" y="779" type="qcurve"/>
      <point x="815" y="779" type="line"/>
      <point x="821" y="779"/>
      <point x="827" y="786" type="qcurve"/>
      <point x="863" y="827" type="line"/>
      <point x="870" y="834"/>
      <point x="877" y="827" type="qcurve"/>
      <point x="903" y="801"/>
      <point x="921" y="779" type="qcurve"/>
      <point x="932" y="765"/>
      <point x="925" y="755" type="qcurve"/>
      <point x="920" y="749"/>
      <point x="907" y="748" type="qcurve"/>
      <point x="612" y="748" type="line"/>
      <point x="633" y="730"/>
      <point x="651" y="717" type="qcurve"/>
      <point x="657" y="711"/>
      <point x="656" y="705" type="qcurve"/>
      <point x="653" y="701"/>
      <point x="646" y="702" type="qcurve"/>
      <point x="618" y="708"/>
      <point x="578" y="678" type="qcurve"/>
      <point x="529" y="652"/>
      <point x="490" y="629" type="qcurve"/>
    </contour>
    <contour>
      <point x="136" y="835"/>
      <point x="140" y="844" type="qcurve"/>
      <point x="146" y="853"/>
      <point x="159" y="844" type="qcurve"/>
      <point x="250" y="801"/>
      <point x="253" y="774" type="qcurve"/>
      <point x="254" y="750"/>
      <point x="241" y="735" type="qcurve"/>
      <point x="227" y="720"/>
      <point x="221" y="720" type="qcurve"/>
      <point x="215" y="721"/>
      <point x="206" y="740" type="qcurve"/>
      <point x="183" y="796"/>
      <point x="144" y="829" type="qcurve"/>
    </contour>
    <contour>
      <point x="60" y="712"/>
      <point x="64" y="719" type="qcurve"/>
      <point x="70" y="729"/>
      <point x="83" y="719" type="qcurve"/>
      <point x="167" y="676"/>
      <point x="170" y="649" type="qcurve"/>
      <point x="170" y="624"/>
      <point x="157" y="611" type="qcurve"/>
      <point x="143" y="597"/>
      <point x="136" y="597" type="qcurve"/>
      <point x="129" y="598"/>
      <point x="122" y="617" type="qcurve"/>
      <point x="101" y="677"/>
      <point x="68" y="704" type="qcurve"/>
    </contour>
    <contour>
      <point x="320" y="727"/>
      <point x="327" y="723" type="qcurve"/>
      <point x="335" y="718"/>
      <point x="329" y="709" type="qcurve"/>
      <point x="232" y="530"/>
      <point x="232" y="527" type="qcurve"/>
      <point x="198" y="462"/>
      <point x="219" y="366" type="qcurve"/>
      <point x="222" y="336"/>
      <point x="212" y="323" type="qcurve"/>
      <point x="202" y="313"/>
      <point x="183" y="317" type="qcurve"/>
      <point x="159" y="322"/>
      <point x="146" y="341" type="qcurve"/>
      <point x="133" y="362"/>
      <point x="142" y="390" type="qcurve"/>
      <point x="151" y="412"/>
      <point x="155" y="437" type="qcurve"/>
      <point x="155" y="441"/>
      <point x="156" y="442" type="qcurve"/>
      <point x="159" y="494"/>
      <point x="102" y="495" type="qcurve"/>
      <point x="89" y="494"/>
      <point x="88" y="510" type="qcurve"/>
      <point x="88" y="525"/>
      <point x="104" y="526" type="qcurve"/>
      <point x="148" y="524"/>
      <point x="166" y="525" type="qcurve"/>
      <point x="188" y="547"/>
      <point x="314" y="718" type="qcurve"/>
    </contour>
    <contour>
      <point x="391" y="562"/>
      <point x="394" y="565" type="qcurve"/>
      <point x="397" y="567"/>
      <point x="404" y="566" type="qcurve"/>
      <point x="446" y="554"/>
      <point x="480" y="541" type="qcurve"/>
      <point x="487" y="536"/>
      <point x="486" y="532" type="qcurve"/>
      <point x="484" y="526"/>
      <point x="468" y="526" type="qcurve"/>
      <point x="444" y="526"/>
      <point x="443" y="499" type="qcurve"/>
      <point x="437" y="437"/>
      <point x="419" y="387" type="qcurve"/>
      <point x="383" y="330"/>
      <point x="268" y="302" type="qcurve"/>
      <point x="254" y="299"/>
      <point x="253" y="311" type="qcurve"/>
      <point x="252" y="322"/>
      <point x="265" y="326" type="qcurve"/>
      <point x="319" y="346"/>
      <point x="347" y="373" type="qcurve"/>
      <point x="394" y="442"/>
      <point x="391" y="555" type="qcurve"/>
    </contour>
    <contour>
      <point x="563" y="562"/>
      <point x="567" y="566" type="qcurve"/>
      <point x="572" y="569"/>
      <point x="582" y="565" type="qcurve"/>
      <point x="620" y="549"/>
      <point x="644" y="537" type="qcurve"/>
      <point x="649" y="534"/>
      <point x="649" y="530" type="qcurve"/>
      <point x="647" y="525"/>
      <point x="643" y="524" type="qcurve"/>
      <point x="628" y="521"/>
      <point x="624" y="514" type="qcurve"/>
      <point x="620" y="506"/>
      <point x="619" y="493" type="qcurve"/>
      <point x="619" y="385" type="line"/>
      <point x="620" y="367"/>
      <point x="621" y="340" type="qcurve"/>
      <point x="622" y="331"/>
      <point x="615" y="327" type="qcurve"/>
      <point x="571" y="306"/>
      <point x="568" y="307" type="qcurve"/>
      <point x="564" y="310"/>
      <point x="567" y="320" type="qcurve"/>
      <point x="570" y="345"/>
      <point x="571" y="385" type="qcurve"/>
      <point x="571" y="493" type="line"/>
      <point x="570" y="523"/>
      <point x="567" y="548" type="qcurve"/>
    </contour>
    <contour>
      <point x="863" y="371"/>
      <point x="870" y="375" type="qcurve"/>
      <point x="898" y="390"/>
      <point x="917" y="496" type="qcurve"/>
      <point x="919" y="509"/>
      <point x="931" y="508" type="qcurve"/>
      <point x="943" y="506"/>
      <point x="942" y="491" type="qcurve"/>
      <point x="930" y="392"/>
      <point x="957" y="377" type="qcurve"/>
      <point x="962" y="373"/>
      <point x="959" y="369" type="qcurve"/>
      <point x="936" y="330"/>
      <point x="867" y="327" type="qcurve"/>
      <point x="789" y="327" type="line"/>
      <point x="746" y="327"/>
      <point x="737" y="339" type="qcurve"/>
      <point x="727" y="351"/>
      <point x="727" y="376" type="qcurve"/>
      <point x="727" y="494" type="line"/>
      <point x="727" y="495" type="line"/>
      <point x="724" y="534"/>
      <point x="723" y="564" type="qcurve"/>
      <point x="722" y="580"/>
      <point x="732" y="577" type="qcurve"/>
      <point x="785" y="560"/>
      <point x="803" y="551" type="qcurve"/>
      <point x="817" y="542"/>
      <point x="801" y="535" type="qcurve"/>
      <point x="778" y="525"/>
      <point x="775" y="501" type="qcurve"/>
      <point x="775" y="389" type="line"/>
      <point x="776" y="377"/>
      <point x="777" y="373" type="qcurve"/>
      <point x="779" y="369"/>
      <point x="794" y="369" type="qcurve"/>
      <point x="846" y="369" type="line"/>
    </contour>
    <contour>
      <point x="490" y="209" type="line"/>
      <point x="254" y="209" type="line"/>
      <point x="254" y="123" type="line"/>
      <point x="490" y="123" type="line"/>
    </contour>
    <contour>
      <point x="538" y="123" type="line"/>
      <point x="774" y="123" type="line"/>
      <point x="774" y="209" type="line"/>
      <point x="538" y="209" type="line"/>
    </contour>
    <contour>
      <point x="691" y="43" type="qcurve"/>
      <point x="682" y="47"/>
      <point x="686" y="54" type="qcurve"/>
      <point x="690" y="60"/>
      <point x="703" y="57" type="qcurve"/>
      <point x="873" y="21"/>
      <point x="919" y="-16" type="qcurve"/>
      <point x="943" y="-36"/>
      <point x="943" y="-56" type="qcurve"/>
      <point x="943" y="-75"/>
      <point x="939" y="-85" type="qcurve"/>
      <point x="935" y="-94"/>
      <point x="928" y="-95" type="qcurve"/>
      <point x="920" y="-96"/>
      <point x="913" y="-86" type="qcurve"/>
      <point x="890" y="-58"/>
      <point x="838" y="-31" type="qcurve"/>
      <point x="837" y="-31" type="line"/>
      <point x="833" y="-30"/>
      <point x="832" y="-31" type="qcurve"/>
      <point x="672" y="-45"/>
      <point x="425" y="-64" type="qcurve"/>
      <point x="192" y="-81"/>
      <point x="131" y="-94" type="qcurve"/>
      <point x="118" y="-97"/>
      <point x="117" y="-89" type="qcurve"/>
      <point x="109" y="-55"/>
      <point x="93" y="-33" type="qcurve"/>
      <point x="84" y="-23"/>
      <point x="100" y="-25" type="qcurve"/>
      <point x="181" y="-33"/>
      <point x="490" y="-25" type="qcurve"/>
      <point x="490" y="90" type="line"/>
      <point x="254" y="90" type="line"/>
      <point x="254" y="52" type="line"/>
      <point x="253" y="46"/>
      <point x="249" y="45" type="qcurve"/>
      <point x="239" y="42"/>
      <point x="217" y="35" type="qcurve"/>
      <point x="202" y="30"/>
      <point x="203" y="38" type="qcurve"/>
      <point x="205" y="59"/>
      <point x="206" y="79" type="qcurve"/>
      <point x="206" y="221" type="line"/>
      <point x="205" y="242"/>
      <point x="204" y="257" type="qcurve"/>
      <point x="204" y="264"/>
      <point x="208" y="265" type="qcurve"/>
      <point x="212" y="267"/>
      <point x="221" y="260" type="qcurve"/>
      <point x="234" y="250"/>
      <point x="252" y="239" type="qcurve"/>
      <point x="490" y="239" type="line"/>
      <point x="490" y="261" type="line"/>
      <point x="489" y="292"/>
      <point x="486" y="317" type="qcurve"/>
      <point x="485" y="329"/>
      <point x="495" y="327" type="qcurve"/>
      <point x="548" y="313"/>
      <point x="566" y="306" type="qcurve"/>
      <point x="580" y="299"/>
      <point x="564" y="293" type="qcurve"/>
      <point x="549" y="287"/>
      <point x="545" y="279" type="qcurve"/>
      <point x="538" y="269"/>
      <point x="538" y="261" type="qcurve"/>
      <point x="538" y="239" type="line"/>
      <point x="754" y="239" type="line"/>
      <point x="760" y="239"/>
      <point x="763" y="243" type="qcurve"/>
      <point x="781" y="265" type="line"/>
      <point x="788" y="271"/>
      <point x="795" y="266" type="qcurve"/>
      <point x="824" y="251"/>
      <point x="852" y="233" type="qcurve"/>
      <point x="858" y="228"/>
      <point x="857" y="223" type="qcurve"/>
      <point x="854" y="219"/>
      <point x="844" y="218" type="qcurve"/>
      <point x="832" y="216"/>
      <point x="826" y="208" type="qcurve"/>
      <point x="822" y="201"/>
      <point x="822" y="191" type="qcurve"/>
      <point x="822" y="159" type="line"/>
      <point x="822" y="133"/>
      <point x="828" y="89" type="qcurve"/>
      <point x="830" y="79"/>
      <point x="821" y="76" type="qcurve"/>
      <point x="786" y="60"/>
      <point x="779" y="60" type="qcurve"/>
      <point x="774" y="61"/>
      <point x="774" y="69" type="qcurve"/>
      <point x="774" y="90" type="line"/>
      <point x="538" y="90" type="line"/>
      <point x="538" y="-23" type="line"/>
      <point x="654" y="-17"/>
      <point x="811" y="-11" type="qcurve"/>
      <point x="760" y="17"/>
    </contour>
  </outline>
</glyph>
<glyph name="uniE081" format="2">
  <advance width="1024"/>
  <unicode hex="E081"/>
  <outline>
    <contour>
      <point x="490" y="127" type="line"/>
      <point x="220" y="127" type="line"/>
      <point x="193" y="127"/>
      <point x="159" y="121" type="qcurve"/>
      <point x="154" y="120"/>
      <point x="153" y="123" type="qcurve"/>
      <point x="140" y="141"/>
      <point x="130" y="158" type="qcurve"/>
      <point x="124" y="167"/>
      <point x="137" y="164" type="qcurve"/>
      <point x="198" y="159"/>
      <point x="205" y="158" type="qcurve"/>
      <point x="490" y="158" type="line"/>
      <point x="490" y="212" type="line"/>
      <point x="333" y="197"/>
      <point x="192" y="197" type="qcurve"/>
      <point x="177" y="197"/>
      <point x="177" y="206" type="qcurve"/>
      <point x="178" y="214"/>
      <point x="188" y="215" type="qcurve"/>
      <point x="399" y="228"/>
      <point x="529" y="248" type="qcurve"/>
      <point x="659" y="268"/>
      <point x="715" y="284" type="qcurve"/>
      <point x="721" y="289"/>
      <point x="729" y="282" type="qcurve"/>
      <point x="744" y="263"/>
      <point x="766" y="238" type="qcurve"/>
      <point x="773" y="229"/>
      <point x="769" y="225" type="qcurve"/>
      <point x="766" y="222"/>
      <point x="754" y="226" type="qcurve"/>
      <point x="734" y="232"/>
      <point x="712" y="232" type="qcurve"/>
      <point x="656" y="232"/>
      <point x="541" y="219" type="qcurve"/>
      <point x="539" y="219"/>
      <point x="538" y="218" type="qcurve"/>
      <point x="538" y="158" type="line"/>
      <point x="754" y="158" type="line"/>
      <point x="766" y="158"/>
      <point x="770" y="162" type="qcurve"/>
      <point x="775" y="166"/>
      <point x="784" y="175" type="qcurve"/>
      <point x="810" y="210" type="line"/>
      <point x="817" y="218"/>
      <point x="826" y="210" type="qcurve"/>
      <point x="857" y="184"/>
      <point x="887" y="155" type="qcurve"/>
      <point x="897" y="144"/>
      <point x="896" y="136" type="qcurve"/>
      <point x="894" y="128"/>
      <point x="881" y="127" type="qcurve"/>
      <point x="538" y="127" type="line"/>
      <point x="538" y="66" type="line"/>
      <point x="826" y="66" type="line"/>
      <point x="838" y="66"/>
      <point x="842" y="69" type="qcurve"/>
      <point x="856" y="83" type="line"/>
      <point x="882" y="117" type="line"/>
      <point x="889" y="126"/>
      <point x="898" y="117" type="qcurve"/>
      <point x="929" y="91"/>
      <point x="959" y="63" type="qcurve"/>
      <point x="969" y="52"/>
      <point x="968" y="43" type="qcurve"/>
      <point x="966" y="36"/>
      <point x="953" y="35" type="qcurve"/>
      <point x="538" y="35" type="line"/>
      <point x="538" y="-10" type="line"/>
      <point x="536" y="-41"/>
      <point x="517" y="-61" type="qcurve"/>
      <point x="497" y="-81"/>
      <point x="472" y="-88" type="qcurve"/>
      <point x="459" y="-91"/>
      <point x="455" y="-85" type="qcurve"/>
      <point x="446" y="-70"/>
      <point x="412" y="-55" type="qcurve"/>
      <point x="385" y="-43"/>
      <point x="324" y="-32" type="qcurve"/>
      <point x="312" y="-31"/>
      <point x="313" y="-22" type="qcurve"/>
      <point x="313" y="-13"/>
      <point x="326" y="-14" type="qcurve"/>
      <point x="367" y="-16"/>
      <point x="422" y="-19" type="qcurve"/>
      <point x="477" y="-22"/>
      <point x="487" y="-16" type="qcurve"/>
      <point x="490" y="-12"/>
      <point x="490" y="0" type="qcurve"/>
      <point x="490" y="35" type="line"/>
      <point x="148" y="35" type="line"/>
      <point x="121" y="35"/>
      <point x="87" y="29" type="qcurve"/>
      <point x="82" y="28"/>
      <point x="81" y="30" type="qcurve"/>
      <point x="68" y="49"/>
      <point x="58" y="66" type="qcurve"/>
      <point x="52" y="75"/>
      <point x="65" y="72" type="qcurve"/>
      <point x="126" y="67"/>
      <point x="133" y="66" type="qcurve"/>
      <point x="490" y="66" type="line"/>
    </contour>
    <contour>
      <point x="347" y="802" type="qcurve"/>
      <point x="356" y="798"/>
      <point x="350" y="790" type="qcurve"/>
      <point x="307" y="733"/>
      <point x="240" y="645" type="qcurve"/>
      <point x="208" y="605"/>
      <point x="202" y="578" type="qcurve"/>
      <point x="191" y="528"/>
      <point x="197" y="489" type="qcurve"/>
      <point x="200" y="472"/>
      <point x="189" y="465" type="qcurve"/>
      <point x="180" y="459"/>
      <point x="162" y="462" type="qcurve"/>
      <point x="140" y="466"/>
      <point x="131" y="477" type="qcurve"/>
      <point x="120" y="490"/>
      <point x="130" y="505" type="qcurve"/>
      <point x="143" y="525"/>
      <point x="149" y="548" type="qcurve"/>
      <point x="152" y="559"/>
      <point x="150" y="567" type="qcurve"/>
      <point x="140" y="578"/>
      <point x="124" y="583" type="qcurve"/>
      <point x="104" y="589"/>
      <point x="81" y="591" type="qcurve"/>
      <point x="69" y="592"/>
      <point x="70" y="603" type="qcurve"/>
      <point x="71" y="615"/>
      <point x="85" y="613" type="qcurve"/>
      <point x="145" y="604"/>
      <point x="158" y="612" type="qcurve"/>
      <point x="169" y="614"/>
      <point x="193" y="642" type="qcurve"/>
      <point x="240" y="698"/>
      <point x="333" y="800" type="qcurve"/>
      <point x="339" y="807"/>
    </contour>
    <contour>
      <point x="53" y="758" type="qcurve"/>
      <point x="57" y="763"/>
      <point x="69" y="759" type="qcurve"/>
      <point x="124" y="748"/>
      <point x="154" y="733" type="qcurve"/>
      <point x="174" y="725"/>
      <point x="178" y="717" type="qcurve"/>
      <point x="183" y="705"/>
      <point x="173" y="687" type="qcurve"/>
      <point x="164" y="671"/>
      <point x="154" y="670" type="qcurve"/>
      <point x="144" y="670"/>
      <point x="138" y="681" type="qcurve"/>
      <point x="125" y="704"/>
      <point x="106" y="719" type="qcurve"/>
      <point x="87" y="733"/>
      <point x="56" y="751" type="qcurve"/>
      <point x="50" y="755"/>
    </contour>
    <contour>
      <point x="132" y="849" type="qcurve"/>
      <point x="136" y="853"/>
      <point x="148" y="850" type="qcurve"/>
      <point x="202" y="840"/>
      <point x="232" y="827" type="qcurve"/>
      <point x="252" y="818"/>
      <point x="256" y="810" type="qcurve"/>
      <point x="262" y="798"/>
      <point x="252" y="780" type="qcurve"/>
      <point x="245" y="764"/>
      <point x="233" y="764" type="qcurve"/>
      <point x="222" y="763"/>
      <point x="218" y="774" type="qcurve"/>
      <point x="204" y="796"/>
      <point x="185" y="811" type="qcurve"/>
      <point x="166" y="825"/>
      <point x="135" y="842" type="qcurve"/>
      <point x="128" y="845"/>
    </contour>
    <contour>
      <point x="706" y="587" type="qcurve"/>
      <point x="707" y="591"/>
      <point x="717" y="590" type="qcurve"/>
      <point x="800" y="570"/>
      <point x="848" y="550" type="qcurve"/>
      <point x="887" y="534"/>
      <point x="891" y="520" type="qcurve"/>
      <point x="896" y="503"/>
      <point x="881" y="492" type="qcurve"/>
      <point x="868" y="483"/>
      <point x="862" y="484" type="qcurve"/>
      <point x="856" y="482"/>
      <point x="843" y="494" type="qcurve"/>
      <point x="812" y="520"/>
      <point x="781" y="539" type="qcurve"/>
      <point x="743" y="563"/>
      <point x="710" y="578" type="qcurve"/>
      <point x="700" y="582"/>
    </contour>
    <contour>
      <point x="438" y="605" type="qcurve"/>
      <point x="460" y="595"/>
      <point x="490" y="575" type="qcurve"/>
      <point x="498" y="570"/>
      <point x="495" y="566" type="qcurve"/>
      <point x="493" y="563"/>
      <point x="483" y="566" type="qcurve"/>
      <point x="470" y="568"/>
      <point x="463" y="567" type="qcurve"/>
      <point x="457" y="566"/>
      <point x="441" y="554" type="qcurve"/>
      <point x="407" y="528"/>
      <point x="359" y="507" type="qcurve"/>
      <point x="315" y="489"/>
      <point x="263" y="470" type="qcurve"/>
      <point x="247" y="464"/>
      <point x="244" y="472" type="qcurve"/>
      <point x="240" y="481"/>
      <point x="249" y="485" type="qcurve"/>
      <point x="313" y="509"/>
      <point x="356" y="538" type="qcurve"/>
      <point x="394" y="565"/>
      <point x="426" y="601" type="qcurve"/>
      <point x="432" y="607"/>
    </contour>
    <contour>
      <point x="691" y="407" type="line"/>
      <point x="712" y="407"/>
      <point x="714" y="410" type="qcurve"/>
      <point x="729" y="429" type="line"/>
      <point x="741" y="444" type="line"/>
      <point x="748" y="452"/>
      <point x="757" y="444" type="qcurve"/>
      <point x="794" y="423"/>
      <point x="824" y="402" type="qcurve"/>
      <point x="834" y="395"/>
      <point x="833" y="391" type="qcurve"/>
      <point x="832" y="384"/>
      <point x="819" y="384" type="qcurve"/>
      <point x="515" y="384" type="line"/>
      <point x="515" y="317" type="line"/>
      <point x="797" y="318" type="line"/>
      <point x="818" y="318"/>
      <point x="820" y="321" type="qcurve"/>
      <point x="835" y="340" type="line"/>
      <point x="847" y="355" type="line"/>
      <point x="854" y="363"/>
      <point x="863" y="355" type="qcurve"/>
      <point x="900" y="334"/>
      <point x="930" y="313" type="qcurve"/>
      <point x="940" y="306"/>
      <point x="939" y="302" type="qcurve"/>
      <point x="938" y="295"/>
      <point x="925" y="295" type="qcurve"/>
      <point x="148" y="295" type="line"/>
      <point x="121" y="295"/>
      <point x="87" y="288" type="qcurve"/>
      <point x="82" y="287"/>
      <point x="81" y="290" type="qcurve"/>
      <point x="67" y="306"/>
      <point x="57" y="318" type="qcurve"/>
      <point x="51" y="328"/>
      <point x="64" y="325" type="qcurve"/>
      <point x="124" y="319"/>
      <point x="132" y="318" type="qcurve"/>
      <point x="467" y="317" type="line"/>
      <point x="467" y="384" type="line"/>
      <point x="245" y="384" type="line"/>
      <point x="218" y="384"/>
      <point x="184" y="377" type="qcurve"/>
      <point x="179" y="376"/>
      <point x="178" y="379" type="qcurve"/>
      <point x="165" y="395"/>
      <point x="155" y="407" type="qcurve"/>
      <point x="149" y="417"/>
      <point x="162" y="414" type="qcurve"/>
      <point x="223" y="408"/>
      <point x="230" y="407" type="qcurve"/>
      <point x="467" y="407" type="line"/>
      <point x="467" y="418" type="line"/>
      <point x="467" y="443"/>
      <point x="463" y="483" type="qcurve"/>
      <point x="461" y="494"/>
      <point x="472" y="491" type="qcurve"/>
      <point x="522" y="474"/>
      <point x="548" y="455" type="qcurve"/>
      <point x="555" y="450"/>
      <point x="548" y="446" type="qcurve"/>
      <point x="526" y="433"/>
      <point x="522" y="430" type="qcurve"/>
      <point x="515" y="425"/>
      <point x="515" y="418" type="qcurve"/>
      <point x="515" y="407" type="line"/>
    </contour>
    <contour>
      <point x="533" y="688" type="line"/>
      <point x="505" y="688"/>
      <point x="472" y="681" type="qcurve"/>
      <point x="467" y="679"/>
      <point x="466" y="683" type="qcurve"/>
      <point x="453" y="699"/>
      <point x="443" y="711" type="qcurve"/>
      <point x="438" y="721"/>
      <point x="450" y="718" type="qcurve"/>
      <point x="512" y="712"/>
      <point x="518" y="711" type="qcurve"/>
      <point x="629" y="711" type="line"/>
      <point x="642" y="712"/>
      <point x="647" y="713" type="qcurve"/>
      <point x="652" y="716"/>
      <point x="659" y="720" type="qcurve"/>
      <point x="679" y="739" type="line"/>
      <point x="683" y="743"/>
      <point x="690" y="739" type="qcurve"/>
      <point x="723" y="720"/>
      <point x="746" y="702" type="qcurve"/>
      <point x="753" y="697"/>
      <point x="750" y="692" type="qcurve"/>
      <point x="748" y="688"/>
      <point x="734" y="688" type="qcurve"/>
      <point x="623" y="688" type="line"/>
      <point x="623" y="637" type="line"/>
      <point x="763" y="637" type="line"/>
      <point x="775" y="637"/>
      <point x="779" y="640" type="qcurve"/>
      <point x="785" y="644"/>
      <point x="793" y="653" type="qcurve"/>
      <point x="814" y="676" type="line"/>
      <point x="821" y="682"/>
      <point x="829" y="676" type="qcurve"/>
      <point x="864" y="655"/>
      <point x="896" y="634" type="qcurve"/>
      <point x="907" y="626"/>
      <point x="906" y="621" type="qcurve"/>
      <point x="905" y="615"/>
      <point x="891" y="614" type="qcurve"/>
      <point x="623" y="614" type="line"/>
      <point x="623" y="539" type="line"/>
      <point x="620" y="509"/>
      <point x="602" y="492" type="qcurve"/>
      <point x="581" y="473"/>
      <point x="557" y="467" type="qcurve"/>
      <point x="546" y="464"/>
      <point x="542" y="471" type="qcurve"/>
      <point x="537" y="480"/>
      <point x="504" y="496" type="qcurve"/>
      <point x="484" y="506"/>
      <point x="441" y="515" type="qcurve"/>
      <point x="429" y="518"/>
      <point x="430" y="525" type="qcurve"/>
      <point x="432" y="533"/>
      <point x="444" y="532" type="qcurve"/>
      <point x="481" y="532"/>
      <point x="513" y="531" type="qcurve"/>
      <point x="566" y="530"/>
      <point x="572" y="534" type="qcurve"/>
      <point x="575" y="537"/>
      <point x="575" y="548" type="qcurve"/>
      <point x="575" y="614" type="line"/>
      <point x="381" y="614" type="line"/>
      <point x="355" y="614"/>
      <point x="320" y="607" type="qcurve"/>
      <point x="315" y="606"/>
      <point x="314" y="609" type="qcurve"/>
      <point x="301" y="625"/>
      <point x="291" y="637" type="qcurve"/>
      <point x="284" y="647"/>
      <point x="298" y="644" type="qcurve"/>
      <point x="358" y="638"/>
      <point x="366" y="637" type="qcurve"/>
      <point x="575" y="637" type="line"/>
      <point x="575" y="688" type="line"/>
    </contour>
    <contour>
      <point x="595" y="869" type="qcurve"/>
      <point x="599" y="866"/>
      <point x="603" y="862" type="qcurve"/>
      <point x="618" y="848"/>
      <point x="635" y="830" type="qcurve"/>
      <point x="644" y="820"/>
      <point x="642" y="817" type="qcurve"/>
      <point x="640" y="814"/>
      <point x="632" y="816" type="qcurve"/>
      <point x="624" y="818" type="line"/>
      <point x="667" y="790"/>
      <point x="708" y="775" type="qcurve"/>
      <point x="779" y="748"/>
      <point x="841" y="735" type="qcurve"/>
      <point x="889" y="726"/>
      <point x="945" y="725" type="qcurve"/>
      <point x="954" y="724"/>
      <point x="966" y="724" type="qcurve"/>
      <point x="973" y="724"/>
      <point x="973" y="718" type="qcurve"/>
      <point x="972" y="710"/>
      <point x="963" y="707" type="qcurve"/>
      <point x="936" y="698" type="line"/>
      <point x="911" y="689"/>
      <point x="911" y="675" type="qcurve"/>
      <point x="908" y="670"/>
      <point x="894" y="673" type="qcurve"/>
      <point x="816" y="688"/>
      <point x="713" y="735" type="qcurve"/>
      <point x="650" y="765"/>
      <point x="602" y="813" type="qcurve"/>
      <point x="595" y="807"/>
      <point x="591" y="806" type="qcurve"/>
      <point x="550" y="772"/>
      <point x="487" y="744" type="qcurve"/>
      <point x="398" y="702"/>
      <point x="303" y="672" type="qcurve"/>
      <point x="293" y="669"/>
      <point x="290" y="676" type="qcurve"/>
      <point x="288" y="684"/>
      <point x="298" y="688" type="qcurve"/>
      <point x="387" y="721"/>
      <point x="465" y="771" type="qcurve"/>
      <point x="514" y="802"/>
      <point x="585" y="866" type="qcurve"/>
      <point x="592" y="872"/>
    </contour>
  </outline>
</glyph>
<glyph name="uniE082" format="2">
  <advance width="1024"/>
  <unicode hex="E082"/>
  <outline>
    <contour>
      <point x="430" y="-28"/>
      <point x="412" y="-53" type="qcurve"/>
      <point x="394" y="-78"/>
      <point x="367" y="-88" type="qcurve"/>
      <point x="358" y="-92"/>
      <point x="354" y="-83" type="qcurve"/>
      <point x="345" y="-62"/>
      <point x="323" y="-46" type="qcurve"/>
      <point x="301" y="-30"/>
      <point x="262" y="-26" type="qcurve"/>
      <point x="250" y="-24"/>
      <point x="251" y="-14" type="qcurve"/>
      <point x="252" y="-5"/>
      <point x="265" y="-6" type="qcurve"/>
      <point x="369" y="-11"/>
      <point x="375" y="-8" type="qcurve"/>
      <point x="382" y="-4"/>
      <point x="382" y="17" type="qcurve"/>
      <point x="382" y="108" type="line"/>
      <point x="149" y="108" type="line"/>
      <point x="149" y="19"/>
      <point x="150" y="-45" type="qcurve"/>
      <point x="149" y="-60"/>
      <point x="112" y="-85" type="qcurve"/>
      <point x="104" y="-89"/>
      <point x="100" y="-89" type="qcurve"/>
      <point x="94" y="-88"/>
      <point x="95" y="-69" type="qcurve"/>
      <point x="99" y="31"/>
      <point x="102" y="137" type="qcurve"/>
      <point x="102" y="349" type="line"/>
      <point x="101" y="381"/>
      <point x="95" y="427" type="qcurve"/>
      <point x="93" y="437"/>
      <point x="96" y="438" type="qcurve"/>
      <point x="97" y="438"/>
      <point x="136" y="407" type="qcurve"/>
      <point x="365" y="407" type="line"/>
      <point x="374" y="407"/>
      <point x="375" y="408" type="qcurve"/>
      <point x="400" y="441" type="line"/>
      <point x="402" y="445"/>
      <point x="406" y="445" type="qcurve"/>
      <point x="410" y="445"/>
      <point x="414" y="441" type="qcurve"/>
      <point x="445" y="416"/>
      <point x="469" y="391" type="qcurve"/>
      <point x="476" y="383"/>
      <point x="460" y="377" type="qcurve"/>
      <point x="436" y="367"/>
      <point x="433" y="363" type="qcurve"/>
      <point x="430" y="357"/>
      <point x="430" y="350" type="qcurve"/>
      <point x="430" y="6" type="line"/>
    </contour>
    <contour>
      <point x="382" y="139" type="line"/>
      <point x="382" y="244" type="line"/>
      <point x="150" y="244" type="line"/>
      <point x="150" y="139" type="line"/>
    </contour>
    <contour>
      <point x="382" y="275" type="line"/>
      <point x="382" y="376" type="line"/>
      <point x="150" y="376" type="line"/>
      <point x="150" y="275" type="line"/>
    </contour>
    <contour>
      <point x="98" y="500" type="line"/>
      <point x="98" y="477" type="line"/>
      <point x="97" y="469"/>
      <point x="93" y="468" type="qcurve"/>
      <point x="83" y="464"/>
      <point x="61" y="455" type="qcurve"/>
      <point x="46" y="449"/>
      <point x="47" y="459" type="qcurve"/>
      <point x="49" y="485"/>
      <point x="50" y="510" type="qcurve"/>
      <point x="50" y="800" type="line"/>
      <point x="49" y="826"/>
      <point x="48" y="845" type="qcurve"/>
      <point x="48" y="854"/>
      <point x="52" y="855" type="qcurve"/>
      <point x="56" y="858"/>
      <point x="65" y="849" type="qcurve"/>
      <point x="78" y="836"/>
      <point x="96" y="823" type="qcurve"/>
      <point x="406" y="823" type="line"/>
      <point x="412" y="823"/>
      <point x="415" y="827" type="qcurve"/>
      <point x="433" y="855" type="line"/>
      <point x="440" y="863"/>
      <point x="447" y="856" type="qcurve"/>
      <point x="476" y="837"/>
      <point x="504" y="815" type="qcurve"/>
      <point x="510" y="809"/>
      <point x="509" y="803" type="qcurve"/>
      <point x="506" y="797"/>
      <point x="496" y="796" type="qcurve"/>
      <point x="484" y="794"/>
      <point x="478" y="784" type="qcurve"/>
      <point x="474" y="775"/>
      <point x="474" y="762" type="qcurve"/>
      <point x="474" y="582" type="line"/>
      <point x="474" y="550"/>
      <point x="480" y="495" type="qcurve"/>
      <point x="482" y="483"/>
      <point x="473" y="479" type="qcurve"/>
      <point x="438" y="459"/>
      <point x="431" y="459" type="qcurve"/>
      <point x="426" y="460"/>
      <point x="426" y="470" type="qcurve"/>
      <point x="426" y="500" type="line"/>
    </contour>
    <contour>
      <point x="234" y="648" type="line"/>
      <point x="98" y="648" type="line"/>
      <point x="98" y="531" type="line"/>
      <point x="234" y="531" type="line"/>
    </contour>
    <contour>
      <point x="282" y="531" type="line"/>
      <point x="426" y="531" type="line"/>
      <point x="426" y="648" type="line"/>
      <point x="282" y="648" type="line"/>
    </contour>
    <contour>
      <point x="234" y="792" type="line"/>
      <point x="98" y="792" type="line"/>
      <point x="98" y="679" type="line"/>
      <point x="234" y="679" type="line"/>
    </contour>
    <contour>
      <point x="282" y="679" type="line"/>
      <point x="426" y="679" type="line"/>
      <point x="426" y="792" type="line"/>
      <point x="282" y="792" type="line"/>
    </contour>
    <contour>
      <point x="555" y="150"/>
      <point x="562" y="149" type="qcurve"/>
      <point x="569" y="149"/>
      <point x="569" y="139" type="qcurve"/>
      <point x="570" y="75"/>
      <point x="554" y="26" type="qcurve"/>
      <point x="534" y="-26"/>
      <point x="507" y="-48" type="qcurve"/>
      <point x="491" y="-59"/>
      <point x="478" y="-58" type="qcurve"/>
      <point x="465" y="-54"/>
      <point x="459" y="-47" type="qcurve"/>
      <point x="454" y="-37"/>
      <point x="455" y="-24" type="qcurve"/>
      <point x="457" y="-12"/>
      <point x="472" y="-2" type="qcurve"/>
      <point x="500" y="17"/>
      <point x="522" y="51" type="qcurve"/>
      <point x="544" y="86"/>
      <point x="554" y="141" type="qcurve"/>
    </contour>
    <contour>
      <point x="606" y="158"/>
      <point x="613" y="162" type="qcurve"/>
      <point x="622" y="166"/>
      <point x="628" y="153" type="qcurve"/>
      <point x="664" y="93"/>
      <point x="674" y="47" type="qcurve"/>
      <point x="683" y="15"/>
      <point x="676" y="3" type="qcurve"/>
      <point x="666" y="-18"/>
      <point x="648" y="-22" type="qcurve"/>
      <point x="630" y="-25"/>
      <point x="624" y="-24" type="qcurve"/>
      <point x="619" y="-20"/>
      <point x="622" y="-1" type="qcurve"/>
      <point x="626" y="40"/>
      <point x="625" y="74" type="qcurve"/>
      <point x="622" y="117"/>
      <point x="609" y="148" type="qcurve"/>
    </contour>
    <contour>
      <point x="690" y="174"/>
      <point x="697" y="178" type="qcurve"/>
      <point x="705" y="184"/>
      <point x="712" y="172" type="qcurve"/>
      <point x="749" y="123"/>
      <point x="764" y="86" type="qcurve"/>
      <point x="775" y="59"/>
      <point x="771" y="49" type="qcurve"/>
      <point x="764" y="29"/>
      <point x="748" y="23" type="qcurve"/>
      <point x="731" y="17"/>
      <point x="727" y="18" type="qcurve"/>
      <point x="722" y="20"/>
      <point x="722" y="39" type="qcurve"/>
      <point x="722" y="75"/>
      <point x="716" y="103" type="qcurve"/>
      <point x="708" y="140"/>
      <point x="695" y="165" type="qcurve"/>
    </contour>
    <contour>
      <point x="770" y="189"/>
      <point x="777" y="195" type="qcurve"/>
      <point x="783" y="200"/>
      <point x="792" y="190" type="qcurve"/>
      <point x="827" y="156"/>
      <point x="843" y="128" type="qcurve"/>
      <point x="854" y="109"/>
      <point x="853" y="99" type="qcurve"/>
      <point x="847" y="78"/>
      <point x="832" y="71" type="qcurve"/>
      <point x="817" y="63"/>
      <point x="811" y="64" type="qcurve"/>
      <point x="806" y="65"/>
      <point x="805" y="84" type="qcurve"/>
      <point x="803" y="112"/>
      <point x="796" y="134" type="qcurve"/>
      <point x="789" y="162"/>
      <point x="776" y="181" type="qcurve"/>
    </contour>
    <contour>
      <point x="603" y="580" type="line"/>
      <point x="603" y="491" type="line"/>
      <point x="835" y="491" type="line"/>
      <point x="835" y="580" type="line"/>
    </contour>
    <contour>
      <point x="603" y="704" type="line"/>
      <point x="603" y="611" type="line"/>
      <point x="835" y="611" type="line"/>
      <point x="835" y="704" type="line"/>
    </contour>
    <contour>
      <point x="594" y="210"/>
      <point x="585" y="195" type="qcurve"/>
      <point x="577" y="185"/>
      <point x="570" y="195" type="qcurve"/>
      <point x="552" y="217"/>
      <point x="536" y="230" type="qcurve"/>
      <point x="528" y="237"/>
      <point x="537" y="243" type="qcurve"/>
      <point x="551" y="251"/>
      <point x="552" y="255" type="qcurve"/>
      <point x="555" y="259"/>
      <point x="555" y="269" type="qcurve"/>
      <point x="555" y="674" type="line"/>
      <point x="555" y="725"/>
      <point x="548" y="759" type="qcurve"/>
      <point x="546" y="769"/>
      <point x="550" y="773" type="qcurve"/>
      <point x="555" y="776"/>
      <point x="568" y="764" type="qcurve"/>
      <point x="586" y="748"/>
      <point x="607" y="735" type="qcurve"/>
      <point x="663" y="735" type="line"/>
      <point x="670" y="759"/>
      <point x="677" y="790" type="qcurve"/>
      <point x="687" y="833"/>
      <point x="687" y="864" type="qcurve"/>
      <point x="687" y="870"/>
      <point x="690" y="871" type="qcurve"/>
      <point x="692" y="873"/>
      <point x="701" y="870" type="qcurve"/>
      <point x="736" y="859"/>
      <point x="760" y="847" type="qcurve"/>
      <point x="768" y="844"/>
      <point x="767" y="840" type="qcurve"/>
      <point x="765" y="836"/>
      <point x="755" y="830" type="qcurve"/>
      <point x="738" y="823"/>
      <point x="722" y="792" type="qcurve"/>
      <point x="707" y="766"/>
      <point x="694" y="735" type="qcurve"/>
      <point x="815" y="735" type="line"/>
      <point x="821" y="735"/>
      <point x="824" y="739" type="qcurve"/>
      <point x="842" y="767" type="line"/>
      <point x="849" y="775"/>
      <point x="856" y="768" type="qcurve"/>
      <point x="885" y="749"/>
      <point x="913" y="727" type="qcurve"/>
      <point x="922" y="719"/>
      <point x="921" y="715" type="qcurve"/>
      <point x="919" y="710"/>
      <point x="912" y="706" type="qcurve"/>
      <point x="886" y="694"/>
      <point x="885" y="687" type="qcurve"/>
      <point x="883" y="681"/>
      <point x="883" y="674" type="qcurve"/>
      <point x="883" y="550" type="line"/>
      <point x="883" y="514"/>
      <point x="889" y="453" type="qcurve"/>
      <point x="890" y="442"/>
      <point x="884" y="441" type="qcurve"/>
      <point x="841" y="426"/>
      <point x="837" y="427" type="qcurve"/>
      <point x="835" y="428"/>
      <point x="835" y="438" type="qcurve"/>
      <point x="835" y="460" type="line"/>
      <point x="603" y="460" type="line"/>
      <point x="603" y="367" type="line"/>
      <point x="848" y="367" type="line"/>
      <point x="859" y="367"/>
      <point x="869" y="377" type="qcurve"/>
      <point x="902" y="415" type="line"/>
      <point x="909" y="423"/>
      <point x="916" y="416" type="qcurve"/>
      <point x="942" y="392"/>
      <point x="958" y="367" type="qcurve"/>
      <point x="969" y="351"/>
      <point x="966" y="344" type="qcurve"/>
      <point x="962" y="337"/>
      <point x="949" y="336" type="qcurve"/>
      <point x="603" y="336" type="line"/>
      <point x="603" y="259" type="line"/>
      <point x="863" y="259" type="line"/>
      <point x="874" y="260"/>
      <point x="878" y="264" type="qcurve"/>
      <point x="901" y="296" type="line"/>
      <point x="907" y="306"/>
      <point x="916" y="296" type="qcurve"/>
      <point x="953" y="264"/>
      <point x="975" y="242" type="qcurve"/>
      <point x="981" y="235"/>
      <point x="974" y="232" type="qcurve"/>
      <point x="945" y="217"/>
      <point x="944" y="216" type="qcurve"/>
      <point x="942" y="215"/>
      <point x="942" y="211" type="qcurve"/>
      <point x="938" y="172"/>
      <point x="934" y="105" type="qcurve"/>
      <point x="930" y="40"/>
      <point x="923" y="3" type="qcurve"/>
      <point x="919" y="-23"/>
      <point x="906" y="-36" type="qcurve"/>
      <point x="874" y="-72"/>
      <point x="831" y="-90" type="qcurve"/>
      <point x="823" y="-94"/>
      <point x="819" y="-88" type="qcurve"/>
      <point x="813" y="-79"/>
      <point x="800" y="-66" type="qcurve"/>
      <point x="780" y="-49"/>
      <point x="719" y="-31" type="qcurve"/>
      <point x="704" y="-26"/>
      <point x="705" y="-19" type="qcurve"/>
      <point x="707" y="-11"/>
      <point x="719" y="-12" type="qcurve"/>
      <point x="802" y="-20"/>
      <point x="836" y="-17" type="qcurve"/>
      <point x="855" y="-15"/>
      <point x="864" y="-5" type="qcurve"/>
      <point x="872" y="2"/>
      <point x="876" y="17" type="qcurve"/>
      <point x="882" y="41"/>
      <point x="886" y="107" type="qcurve"/>
      <point x="890" y="185"/>
      <point x="893" y="228" type="qcurve"/>
      <point x="614" y="228" type="line"/>
    </contour>
  </outline>
</glyph>
<glyph name="uniE083" format="2">
  <advance width="1024"/>
  <unicode hex="E083"/>
  <outline>
    <contour>
      <point x="494" y="403" type="line"/>
      <point x="494" y="724" type="line"/>
      <point x="494" y="779"/>
      <point x="487" y="825" type="qcurve"/>
      <point x="486" y="837"/>
      <point x="490" y="838" type="qcurve"/>
      <point x="495" y="840"/>
      <point x="502" y="831" type="qcurve"/>
      <point x="512" y="818"/>
      <point x="536" y="799" type="qcurve"/>
      <point x="792" y="799" type="line"/>
      <point x="806" y="801" type="line"/>
      <point x="818" y="813" type="line"/>
      <point x="848" y="855" type="line"/>
      <point x="855" y="864"/>
      <point x="864" y="855" type="qcurve"/>
      <point x="897" y="827"/>
      <point x="925" y="796" type="qcurve"/>
      <point x="935" y="786"/>
      <point x="934" y="777" type="qcurve"/>
      <point x="932" y="769"/>
      <point x="919" y="768" type="qcurve"/>
      <point x="542" y="768" type="line"/>
      <point x="542" y="667" type="line"/>
      <point x="740" y="667" type="line"/>
      <point x="754" y="669" type="line"/>
      <point x="766" y="681" type="line"/>
      <point x="796" y="723" type="line"/>
      <point x="803" y="732"/>
      <point x="812" y="723" type="qcurve"/>
      <point x="845" y="695"/>
      <point x="873" y="664" type="qcurve"/>
      <point x="883" y="654"/>
      <point x="882" y="645" type="qcurve"/>
      <point x="880" y="637"/>
      <point x="867" y="636" type="qcurve"/>
      <point x="542" y="636" type="line"/>
      <point x="542" y="539" type="line"/>
      <point x="740" y="539" type="line"/>
      <point x="754" y="541" type="line"/>
      <point x="766" y="553" type="line"/>
      <point x="796" y="595" type="line"/>
      <point x="803" y="604"/>
      <point x="812" y="595" type="qcurve"/>
      <point x="845" y="567"/>
      <point x="873" y="536" type="qcurve"/>
      <point x="883" y="526"/>
      <point x="882" y="517" type="qcurve"/>
      <point x="880" y="509"/>
      <point x="867" y="508" type="qcurve"/>
      <point x="542" y="508" type="line"/>
      <point x="542" y="403" type="line"/>
      <point x="832" y="403" type="line"/>
      <point x="846" y="405" type="line"/>
      <point x="858" y="417" type="line"/>
      <point x="888" y="459" type="line"/>
      <point x="895" y="468"/>
      <point x="904" y="459" type="qcurve"/>
      <point x="937" y="431"/>
      <point x="965" y="400" type="qcurve"/>
      <point x="975" y="390"/>
      <point x="974" y="381" type="qcurve"/>
      <point x="972" y="373"/>
      <point x="959" y="372" type="qcurve"/>
      <point x="667" y="372" type="line"/>
      <point x="691" y="305"/>
      <point x="725" y="235" type="qcurve"/>
      <point x="736" y="212"/>
      <point x="749" y="191" type="qcurve"/>
      <point x="793" y="220"/>
      <point x="824" y="254" type="qcurve"/>
      <point x="852" y="284"/>
      <point x="874" y="326" type="qcurve"/>
      <point x="880" y="335"/>
      <point x="887" y="328" type="qcurve"/>
      <point x="917" y="303"/>
      <point x="938" y="282" type="qcurve"/>
      <point x="948" y="272"/>
      <point x="944" y="268" type="qcurve"/>
      <point x="940" y="264"/>
      <point x="936" y="265" type="qcurve"/>
      <point x="914" y="267"/>
      <point x="904" y="263" type="qcurve"/>
      <point x="900" y="261"/>
      <point x="890" y="252" type="qcurve"/>
      <point x="853" y="217"/>
      <point x="826" y="201" type="qcurve"/>
      <point x="799" y="185"/>
      <point x="762" y="170" type="qcurve"/>
      <point x="775" y="150"/>
      <point x="790" y="134" type="qcurve"/>
      <point x="833" y="86"/>
      <point x="881" y="58" type="qcurve"/>
      <point x="921" y="35"/>
      <point x="960" y="22" type="qcurve"/>
      <point x="968" y="19"/>
      <point x="975" y="18" type="qcurve"/>
      <point x="980" y="16"/>
      <point x="979" y="7" type="qcurve"/>
      <point x="977" y="-1"/>
      <point x="967" y="0" type="qcurve"/>
      <point x="951" y="1"/>
      <point x="933" y="-9" type="qcurve"/>
      <point x="913" y="-19"/>
      <point x="903" y="-35" type="qcurve"/>
      <point x="900" y="-39"/>
      <point x="891" y="-33" type="qcurve"/>
      <point x="846" y="0"/>
      <point x="807" y="36" type="qcurve"/>
      <point x="773" y="66"/>
      <point x="751" y="102" type="qcurve"/>
      <point x="720" y="146"/>
      <point x="695" y="212" type="qcurve"/>
      <point x="666" y="283"/>
      <point x="644" y="370" type="qcurve"/>
      <point x="643" y="372" type="line"/>
      <point x="542" y="372" type="line"/>
      <point x="542" y="27" type="line"/>
      <point x="612" y="81"/>
      <point x="687" y="117" type="qcurve"/>
      <point x="701" y="125"/>
      <point x="705" y="115" type="qcurve"/>
      <point x="709" y="104"/>
      <point x="696" y="97" type="qcurve"/>
      <point x="654" y="70"/>
      <point x="609" y="33" type="qcurve"/>
      <point x="575" y="-3"/>
      <point x="508" y="-81" type="qcurve"/>
      <point x="499" y="-90"/>
      <point x="495" y="-78" type="qcurve"/>
      <point x="486" y="-55"/>
      <point x="465" y="-37" type="qcurve"/>
      <point x="457" y="-29"/>
      <point x="464" y="-25" type="qcurve"/>
      <point x="488" y="-5"/>
      <point x="491" y="2" type="qcurve"/>
      <point x="494" y="10"/>
      <point x="494" y="23" type="qcurve"/>
      <point x="494" y="372" type="line"/>
      <point x="473" y="372" type="line"/>
      <point x="446" y="372"/>
      <point x="412" y="365" type="qcurve"/>
      <point x="407" y="364"/>
      <point x="406" y="367" type="qcurve"/>
      <point x="393" y="386"/>
      <point x="383" y="402" type="qcurve"/>
      <point x="377" y="412"/>
      <point x="390" y="409" type="qcurve"/>
      <point x="451" y="404"/>
      <point x="458" y="403" type="qcurve"/>
    </contour>
    <contour>
      <point x="156" y="115"/>
      <point x="202" y="131" type="qcurve"/>
      <point x="202" y="762" type="line"/>
      <point x="201" y="801"/>
      <point x="198" y="832" type="qcurve"/>
      <point x="197" y="848"/>
      <point x="207" y="845" type="qcurve"/>
      <point x="260" y="828"/>
      <point x="278" y="819" type="qcurve"/>
      <point x="292" y="810"/>
      <point x="276" y="803" type="qcurve"/>
      <point x="261" y="795"/>
      <point x="257" y="785" type="qcurve"/>
      <point x="250" y="772"/>
      <point x="250" y="762" type="qcurve"/>
      <point x="250" y="145" type="line"/>
      <point x="294" y="159"/>
      <point x="323" y="164" type="qcurve"/>
      <point x="325" y="217"/>
      <point x="326" y="259" type="qcurve"/>
      <point x="326" y="514" type="line"/>
      <point x="325" y="594"/>
      <point x="321" y="642" type="qcurve"/>
      <point x="319" y="659"/>
      <point x="331" y="655" type="qcurve"/>
      <point x="385" y="638"/>
      <point x="403" y="628" type="qcurve"/>
      <point x="417" y="621"/>
      <point x="401" y="612" type="qcurve"/>
      <point x="385" y="604"/>
      <point x="381" y="594" type="qcurve"/>
      <point x="374" y="575"/>
      <point x="374" y="514" type="qcurve"/>
      <point x="374" y="259" type="line"/>
      <point x="374" y="142"/>
      <point x="378" y="63" type="qcurve"/>
      <point x="379" y="55"/>
      <point x="373" y="51" type="qcurve"/>
      <point x="331" y="24" type="line"/>
      <point x="318" y="14"/>
      <point x="319" y="35" type="qcurve"/>
      <point x="322" y="93"/>
      <point x="323" y="141" type="qcurve"/>
      <point x="209" y="101"/>
      <point x="81" y="4" type="qcurve"/>
      <point x="73" y="-3"/>
      <point x="70" y="7" type="qcurve"/>
      <point x="66" y="27"/>
      <point x="51" y="45" type="qcurve"/>
      <point x="45" y="52"/>
      <point x="52" y="55" type="qcurve"/>
      <point x="82" y="81"/>
      <point x="82" y="103" type="qcurve"/>
      <point x="82" y="582" type="line"/>
      <point x="81" y="621"/>
      <point x="78" y="652" type="qcurve"/>
      <point x="77" y="668"/>
      <point x="87" y="665" type="qcurve"/>
      <point x="140" y="648"/>
      <point x="158" y="639" type="qcurve"/>
      <point x="172" y="630"/>
      <point x="156" y="623" type="qcurve"/>
      <point x="141" y="615"/>
      <point x="137" y="605" type="qcurve"/>
      <point x="130" y="592"/>
      <point x="130" y="582" type="qcurve"/>
      <point x="130" y="100" type="line"/>
    </contour>
  </outline>
</glyph>
<glyph name="uniE084" format="2">
  <advance width="1024"/>
  <unicode hex="E084"/>
  <outline>
    <contour>
      <point x="707" y="885" type="qcurve"/>
      <point x="726" y="871"/>
      <point x="756" y="841" type="qcurve"/>
      <point x="761" y="833"/>
      <point x="761" y="829" type="qcurve"/>
      <point x="758" y="824"/>
      <point x="747" y="825" type="qcurve"/>
      <point x="742" y="826"/>
      <point x="738" y="827" type="qcurve"/>
      <point x="763" y="785"/>
      <point x="794" y="754" type="qcurve"/>
      <point x="834" y="714"/>
      <point x="881" y="690" type="qcurve"/>
      <point x="925" y="667"/>
      <point x="964" y="666" type="qcurve"/>
      <point x="970" y="665"/>
      <point x="979" y="665" type="qcurve"/>
      <point x="983" y="665"/>
      <point x="984" y="659" type="qcurve"/>
      <point x="984" y="651"/>
      <point x="975" y="647" type="qcurve"/>
      <point x="965" y="642"/>
      <point x="953" y="632" type="qcurve"/>
      <point x="939" y="618"/>
      <point x="932" y="600" type="qcurve"/>
      <point x="929" y="594"/>
      <point x="920" y="600" type="qcurve"/>
      <point x="844" y="643"/>
      <point x="796" y="700" type="qcurve"/>
      <point x="754" y="748"/>
      <point x="725" y="817" type="qcurve"/>
      <point x="720" y="811"/>
      <point x="712" y="798" type="qcurve"/>
      <point x="662" y="722"/>
      <point x="621" y="678" type="qcurve"/>
      <point x="569" y="620"/>
      <point x="508" y="573" type="qcurve"/>
      <point x="500" y="567"/>
      <point x="493" y="577" type="qcurve"/>
      <point x="488" y="585"/>
      <point x="497" y="592" type="qcurve"/>
      <point x="550" y="639"/>
      <point x="605" y="712" type="qcurve"/>
      <point x="650" y="774"/>
      <point x="697" y="879" type="qcurve"/>
      <point x="702" y="889"/>
    </contour>
    <contour>
      <point x="331" y="750" type="qcurve"/>
      <point x="336" y="759"/>
      <point x="347" y="749" type="qcurve"/>
      <point x="387" y="721"/>
      <point x="408" y="694" type="qcurve"/>
      <point x="424" y="674"/>
      <point x="424" y="664" type="qcurve"/>
      <point x="424" y="639"/>
      <point x="411" y="626" type="qcurve"/>
      <point x="399" y="613"/>
      <point x="393" y="613" type="qcurve"/>
      <point x="388" y="613"/>
      <point x="382" y="634" type="qcurve"/>
      <point x="374" y="664"/>
      <point x="363" y="688" type="qcurve"/>
      <point x="349" y="716"/>
      <point x="334" y="735" type="qcurve"/>
      <point x="328" y="743"/>
    </contour>
    <contour>
      <point x="389" y="860" type="qcurve"/>
      <point x="394" y="869"/>
      <point x="405" y="859" type="qcurve"/>
      <point x="444" y="834"/>
      <point x="466" y="810" type="qcurve"/>
      <point x="482" y="792"/>
      <point x="483" y="782" type="qcurve"/>
      <point x="483" y="756"/>
      <point x="472" y="743" type="qcurve"/>
      <point x="461" y="729"/>
      <point x="455" y="729" type="qcurve"/>
      <point x="449" y="728"/>
      <point x="443" y="749" type="qcurve"/>
      <point x="433" y="778"/>
      <point x="423" y="800" type="qcurve"/>
      <point x="408" y="828"/>
      <point x="392" y="844" type="qcurve"/>
      <point x="386" y="851"/>
    </contour>
    <contour>
      <point x="516" y="745" type="qcurve"/>
      <point x="524" y="739"/>
      <point x="519" y="729" type="qcurve"/>
      <point x="500" y="646"/>
      <point x="465" y="525" type="qcurve"/>
      <point x="445" y="470"/>
      <point x="439" y="431" type="qcurve"/>
      <point x="430" y="345"/>
      <point x="435" y="279" type="qcurve"/>
      <point x="437" y="251"/>
      <point x="428" y="241" type="qcurve"/>
      <point x="421" y="233"/>
      <point x="406" y="237" type="qcurve"/>
      <point x="389" y="243"/>
      <point x="381" y="261" type="qcurve"/>
      <point x="372" y="280"/>
      <point x="380" y="305" type="qcurve"/>
      <point x="392" y="340"/>
      <point x="396" y="380" type="qcurve"/>
      <point x="399" y="410"/>
      <point x="396" y="423" type="qcurve"/>
      <point x="388" y="438"/>
      <point x="375" y="448" type="qcurve"/>
      <point x="359" y="460"/>
      <point x="340" y="461" type="qcurve"/>
      <point x="330" y="461"/>
      <point x="330" y="476" type="qcurve"/>
      <point x="330" y="490"/>
      <point x="343" y="489" type="qcurve"/>
      <point x="391" y="481"/>
      <point x="403" y="488" type="qcurve"/>
      <point x="411" y="491"/>
      <point x="427" y="528" type="qcurve"/>
      <point x="449" y="593"/>
      <point x="504" y="738" type="qcurve"/>
      <point x="508" y="749"/>
    </contour>
    <contour>
      <point x="312" y="449" type="qcurve"/>
      <point x="325" y="456"/>
      <point x="329" y="447" type="qcurve"/>
      <point x="334" y="438"/>
      <point x="319" y="429" type="qcurve"/>
      <point x="276" y="395"/>
      <point x="229" y="362" type="qcurve"/>
      <point x="229" y="32" type="line"/>
      <point x="227" y="-5"/>
      <point x="212" y="-30" type="qcurve"/>
      <point x="187" y="-67"/>
      <point x="163" y="-80" type="qcurve"/>
      <point x="155" y="-87"/>
      <point x="151" y="-87" type="qcurve"/>
      <point x="149" y="-86"/>
      <point x="143" y="-67" type="qcurve"/>
      <point x="133" y="-38"/>
      <point x="123" y="-28" type="qcurve"/>
      <point x="114" y="-15"/>
      <point x="67" y="-9" type="qcurve"/>
      <point x="52" y="-7"/>
      <point x="53" y="6" type="qcurve"/>
      <point x="54" y="20"/>
      <point x="69" y="19" type="qcurve"/>
      <point x="148" y="4"/>
      <point x="168" y="14" type="qcurve"/>
      <point x="182" y="20"/>
      <point x="183" y="42" type="qcurve"/>
      <point x="183" y="333" type="line"/>
      <point x="129" y="289"/>
      <point x="120" y="268" type="qcurve"/>
      <point x="117" y="258"/>
      <point x="113" y="257" type="qcurve"/>
      <point x="108" y="257"/>
      <point x="104" y="264" type="qcurve"/>
      <point x="89" y="286"/>
      <point x="65" y="301" type="qcurve"/>
      <point x="52" y="309"/>
      <point x="53" y="312" type="qcurve"/>
      <point x="53" y="315"/>
      <point x="62" y="318" type="qcurve"/>
      <point x="143" y="354"/>
      <point x="183" y="380" type="qcurve"/>
      <point x="183" y="606" type="line"/>
      <point x="147" y="606" type="line"/>
      <point x="106" y="605"/>
      <point x="76" y="599" type="qcurve"/>
      <point x="68" y="596"/>
      <point x="65" y="605" type="qcurve"/>
      <point x="61" y="623"/>
      <point x="47" y="635" type="qcurve"/>
      <point x="40" y="642"/>
      <point x="43" y="646" type="qcurve"/>
      <point x="47" y="649"/>
      <point x="54" y="645" type="qcurve"/>
      <point x="90" y="637"/>
      <point x="135" y="637" type="qcurve"/>
      <point x="183" y="637" type="line"/>
      <point x="183" y="722" type="line"/>
      <point x="182" y="802"/>
      <point x="179" y="851" type="qcurve"/>
      <point x="176" y="867"/>
      <point x="185" y="864" type="qcurve"/>
      <point x="241" y="844"/>
      <point x="259" y="834" type="qcurve"/>
      <point x="271" y="826"/>
      <point x="256" y="819" type="qcurve"/>
      <point x="239" y="811"/>
      <point x="235" y="802" type="qcurve"/>
      <point x="229" y="783"/>
      <point x="229" y="722" type="qcurve"/>
      <point x="229" y="637" type="line"/>
      <point x="245" y="637"/>
      <point x="250" y="644" type="qcurve"/>
      <point x="285" y="685" type="line"/>
      <point x="292" y="692"/>
      <point x="299" y="685" type="qcurve"/>
      <point x="324" y="659"/>
      <point x="342" y="637" type="qcurve"/>
      <point x="352" y="623"/>
      <point x="345" y="613" type="qcurve"/>
      <point x="341" y="607"/>
      <point x="328" y="606" type="qcurve"/>
      <point x="229" y="606" type="line"/>
      <point x="229" y="404" type="line"/>
      <point x="266" y="426"/>
    </contour>
    <contour>
      <point x="789" y="133" type="line"/>
      <point x="795" y="133"/>
      <point x="801" y="140" type="qcurve"/>
      <point x="837" y="181" type="line"/>
      <point x="844" y="188"/>
      <point x="851" y="181" type="qcurve"/>
      <point x="877" y="155"/>
      <point x="895" y="133" type="qcurve"/>
      <point x="906" y="119"/>
      <point x="899" y="109" type="qcurve"/>
      <point x="894" y="103"/>
      <point x="881" y="102" type="qcurve"/>
      <point x="665" y="102" type="line"/>
      <point x="665" y="-5" type="line"/>
      <point x="869" y="-5" type="line"/>
      <point x="875" y="-5"/>
      <point x="881" y="2" type="qcurve"/>
      <point x="917" y="43" type="line"/>
      <point x="924" y="50"/>
      <point x="931" y="43" type="qcurve"/>
      <point x="957" y="17"/>
      <point x="975" y="-5" type="qcurve"/>
      <point x="986" y="-19"/>
      <point x="979" y="-29" type="qcurve"/>
      <point x="974" y="-35"/>
      <point x="961" y="-36" type="qcurve"/>
      <point x="416" y="-36" type="line"/>
      <point x="374" y="-37"/>
      <point x="343" y="-43" type="qcurve"/>
      <point x="335" y="-46"/>
      <point x="332" y="-37" type="qcurve"/>
      <point x="328" y="-19"/>
      <point x="313" y="-7" type="qcurve"/>
      <point x="306" y="0"/>
      <point x="309" y="4" type="qcurve"/>
      <point x="313" y="7"/>
      <point x="320" y="3" type="qcurve"/>
      <point x="358" y="-5"/>
      <point x="404" y="-5" type="qcurve"/>
      <point x="617" y="-5" type="line"/>
      <point x="617" y="102" type="line"/>
      <point x="504" y="102" type="line"/>
      <point x="462" y="101"/>
      <point x="431" y="95" type="qcurve"/>
      <point x="423" y="92"/>
      <point x="420" y="101" type="qcurve"/>
      <point x="416" y="119"/>
      <point x="401" y="131" type="qcurve"/>
      <point x="394" y="138"/>
      <point x="397" y="142" type="qcurve"/>
      <point x="401" y="145"/>
      <point x="408" y="141" type="qcurve"/>
      <point x="446" y="133"/>
      <point x="492" y="133" type="qcurve"/>
      <point x="616" y="133" type="line"/>
      <point x="616" y="164" type="line"/>
      <point x="615" y="203"/>
      <point x="612" y="234" type="qcurve"/>
      <point x="611" y="250"/>
      <point x="621" y="247" type="qcurve"/>
      <point x="674" y="230"/>
      <point x="692" y="221" type="qcurve"/>
      <point x="706" y="212"/>
      <point x="690" y="205" type="qcurve"/>
      <point x="675" y="197"/>
      <point x="671" y="187" type="qcurve"/>
      <point x="664" y="174"/>
      <point x="664" y="164" type="qcurve"/>
      <point x="664" y="133" type="line"/>
    </contour>
    <contour>
      <point x="676" y="594" type="line"/>
      <point x="649" y="594"/>
      <point x="615" y="587" type="qcurve"/>
      <point x="610" y="586"/>
      <point x="609" y="589" type="qcurve"/>
      <point x="596" y="609"/>
      <point x="586" y="625" type="qcurve"/>
      <point x="580" y="635"/>
      <point x="593" y="632" type="qcurve"/>
      <point x="654" y="626"/>
      <point x="661" y="625" type="qcurve"/>
      <point x="734" y="625" type="line"/>
      <point x="748" y="626"/>
      <point x="752" y="627" type="qcurve"/>
      <point x="758" y="630"/>
      <point x="764" y="634" type="qcurve"/>
      <point x="784" y="653" type="line"/>
      <point x="789" y="659"/>
      <point x="795" y="653" type="qcurve"/>
      <point x="828" y="634"/>
      <point x="853" y="616" type="qcurve"/>
      <point x="865" y="609"/>
      <point x="864" y="603" type="qcurve"/>
      <point x="863" y="595"/>
      <point x="847" y="594" type="qcurve"/>
      <point x="745" y="594" type="line"/>
      <point x="745" y="501" type="line"/>
      <point x="828" y="500" type="line"/>
      <point x="840" y="500"/>
      <point x="844" y="504" type="qcurve"/>
      <point x="850" y="508"/>
      <point x="857" y="516" type="qcurve"/>
      <point x="881" y="552" type="line"/>
      <point x="889" y="560"/>
      <point x="896" y="552" type="qcurve"/>
      <point x="925" y="526"/>
      <point x="953" y="498" type="qcurve"/>
      <point x="964" y="486"/>
      <point x="963" y="478" type="qcurve"/>
      <point x="961" y="470"/>
      <point x="948" y="470" type="qcurve"/>
      <point x="745" y="470" type="line"/>
      <point x="745" y="321" type="line"/>
      <point x="743" y="288"/>
      <point x="724" y="266" type="qcurve"/>
      <point x="704" y="244"/>
      <point x="689" y="237" type="qcurve"/>
      <point x="678" y="234"/>
      <point x="674" y="241" type="qcurve"/>
      <point x="666" y="255"/>
      <point x="641" y="271" type="qcurve"/>
      <point x="623" y="283"/>
      <point x="585" y="296" type="qcurve"/>
      <point x="573" y="298"/>
      <point x="574" y="308" type="qcurve"/>
      <point x="575" y="317"/>
      <point x="588" y="316" type="qcurve"/>
      <point x="607" y="314"/>
      <point x="647" y="312" type="qcurve"/>
      <point x="684" y="309"/>
      <point x="694" y="315" type="qcurve"/>
      <point x="697" y="319"/>
      <point x="697" y="332" type="qcurve"/>
      <point x="697" y="470" type="line"/>
      <point x="582" y="470" type="line"/>
      <point x="555" y="470"/>
      <point x="521" y="463" type="qcurve"/>
      <point x="516" y="462"/>
      <point x="515" y="465" type="qcurve"/>
      <point x="502" y="485"/>
      <point x="492" y="501" type="qcurve"/>
      <point x="486" y="511"/>
      <point x="499" y="508" type="qcurve"/>
      <point x="560" y="502"/>
      <point x="567" y="501" type="qcurve"/>
      <point x="697" y="501" type="line"/>
      <point x="697" y="594" type="line"/>
    </contour>
    <contour>
      <point x="609" y="448" type="qcurve"/>
      <point x="638" y="425"/>
      <point x="659" y="409" type="qcurve"/>
      <point x="669" y="400"/>
      <point x="665" y="396" type="qcurve"/>
      <point x="662" y="392"/>
      <point x="658" y="392" type="qcurve"/>
      <point x="638" y="394"/>
      <point x="628" y="388" type="qcurve"/>
      <point x="623" y="386"/>
      <point x="610" y="371" type="qcurve"/>
      <point x="577" y="335"/>
      <point x="545" y="310" type="qcurve"/>
      <point x="516" y="288"/>
      <point x="481" y="268" type="qcurve"/>
      <point x="467" y="261"/>
      <point x="463" y="269" type="qcurve"/>
      <point x="459" y="280"/>
      <point x="469" y="287" type="qcurve"/>
      <point x="514" y="323"/>
      <point x="543" y="357" type="qcurve"/>
      <point x="569" y="386"/>
      <point x="597" y="446" type="qcurve"/>
      <point x="602" y="454"/>
    </contour>
    <contour>
      <point x="770" y="426" type="qcurve"/>
      <point x="773" y="436"/>
      <point x="788" y="429" type="qcurve"/>
      <point x="868" y="400"/>
      <point x="916" y="367" type="qcurve"/>
      <point x="934" y="355"/>
      <point x="939" y="334" type="qcurve"/>
      <point x="945" y="310"/>
      <point x="933" y="294" type="qcurve"/>
      <point x="922" y="277"/>
      <point x="915" y="276" type="qcurve"/>
      <point x="908" y="274"/>
      <point x="898" y="293" type="qcurve"/>
      <point x="877" y="332"/>
      <point x="851" y="358" type="qcurve"/>
      <point x="813" y="396"/>
      <point x="776" y="412" type="qcurve"/>
      <point x="766" y="416"/>
    </contour>
  </outline>
</glyph>
<glyph name="uniE085" format="2">
  <advance width="1024"/>
  <unicode hex="E085"/>
  <outline>
    <contour>
      <point x="243" y="499" type="line"/>
      <point x="177" y="544"/>
      <point x="144" y="601" type="qcurve"/>
      <point x="137" y="613"/>
      <point x="146" y="618" type="qcurve"/>
      <point x="154" y="623"/>
      <point x="160" y="613" type="qcurve"/>
      <point x="193" y="556"/>
      <point x="259" y="517" type="qcurve"/>
      <point x="265" y="514" type="line"/>
      <point x="265" y="514" type="line"/>
      <point x="269" y="521"/>
      <point x="273" y="527" type="qcurve"/>
      <point x="305" y="576"/>
      <point x="325" y="641" type="qcurve"/>
      <point x="258" y="641" type="line"/>
      <point x="245" y="630"/>
      <point x="235" y="620" type="qcurve"/>
      <point x="225" y="609"/>
      <point x="219" y="624" type="qcurve"/>
      <point x="209" y="647"/>
      <point x="194" y="663" type="qcurve"/>
      <point x="184" y="675"/>
      <point x="194" y="676" type="qcurve"/>
      <point x="201" y="677"/>
      <point x="208" y="681" type="qcurve"/>
      <point x="215" y="686"/>
      <point x="224" y="696" type="qcurve"/>
      <point x="285" y="778" type="line"/>
      <point x="173" y="778" type="line"/>
      <point x="146" y="778"/>
      <point x="112" y="771" type="qcurve"/>
      <point x="107" y="770"/>
      <point x="106" y="773" type="qcurve"/>
      <point x="93" y="792"/>
      <point x="83" y="808" type="qcurve"/>
      <point x="77" y="818"/>
      <point x="90" y="815" type="qcurve"/>
      <point x="151" y="810"/>
      <point x="158" y="809" type="qcurve"/>
      <point x="266" y="809" type="line"/>
      <point x="275" y="810"/>
      <point x="279" y="814" type="qcurve"/>
      <point x="301" y="846" type="line"/>
      <point x="309" y="855"/>
      <point x="316" y="846" type="qcurve"/>
      <point x="345" y="824"/>
      <point x="370" y="796" type="qcurve"/>
      <point x="375" y="789"/>
      <point x="359" y="783" type="qcurve"/>
      <point x="335" y="774"/>
      <point x="331" y="767" type="qcurve"/>
      <point x="326" y="762"/>
      <point x="322" y="755" type="qcurve"/>
      <point x="269" y="672" type="line"/>
      <point x="316" y="672" type="line"/>
      <point x="323" y="672"/>
      <point x="327" y="675" type="qcurve"/>
      <point x="351" y="705" type="line"/>
      <point x="355" y="709"/>
      <point x="359" y="709" type="qcurve"/>
      <point x="363" y="708"/>
      <point x="369" y="704" type="qcurve"/>
      <point x="395" y="685"/>
      <point x="417" y="663" type="qcurve"/>
      <point x="427" y="653"/>
      <point x="415" y="649" type="qcurve"/>
      <point x="392" y="643"/>
      <point x="383" y="633" type="qcurve"/>
      <point x="377" y="626"/>
      <point x="365" y="601" type="qcurve"/>
      <point x="336" y="541"/>
      <point x="309" y="504" type="qcurve"/>
      <point x="302" y="494" type="line"/>
      <point x="399" y="448"/>
      <point x="577" y="438" type="qcurve"/>
      <point x="741" y="429"/>
      <point x="939" y="451" type="qcurve"/>
      <point x="955" y="455"/>
      <point x="968" y="456" type="qcurve"/>
      <point x="975" y="456"/>
      <point x="975" y="449" type="qcurve"/>
      <point x="975" y="443"/>
      <point x="968" y="439" type="qcurve"/>
      <point x="952" y="430"/>
      <point x="942" y="420" type="qcurve"/>
      <point x="927" y="403"/>
      <point x="924" y="391" type="qcurve"/>
      <point x="922" y="384"/>
      <point x="906" y="384" type="qcurve"/>
      <point x="825" y="385"/>
      <point x="767" y="386" type="qcurve"/>
      <point x="585" y="387"/>
      <point x="456" y="408" type="qcurve"/>
      <point x="364" y="425"/>
      <point x="282" y="472" type="qcurve"/>
      <point x="282" y="472" type="line"/>
      <point x="252" y="442"/>
      <point x="219" y="423" type="qcurve"/>
      <point x="147" y="380"/>
      <point x="77" y="356" type="qcurve"/>
      <point x="65" y="351"/>
      <point x="61" y="361" type="qcurve"/>
      <point x="57" y="372"/>
      <point x="69" y="376" type="qcurve"/>
      <point x="155" y="417"/>
      <point x="204" y="452" type="qcurve"/>
      <point x="229" y="470"/>
      <point x="250" y="494" type="qcurve"/>
      <point x="250" y="494" type="line"/>
    </contour>
    <contour>
      <point x="753" y="105" type="line"/>
      <point x="765" y="117" type="line"/>
      <point x="795" y="159" type="line"/>
      <point x="802" y="168"/>
      <point x="811" y="159" type="qcurve"/>
      <point x="882" y="96"/>
      <point x="881" y="81" type="qcurve"/>
      <point x="879" y="73"/>
      <point x="866" y="72" type="qcurve"/>
      <point x="543" y="72" type="line"/>
      <point x="543" y="-22" type="line"/>
      <point x="815" y="-46"/>
      <point x="977" y="-1" type="qcurve"/>
      <point x="984" y="-1"/>
      <point x="985" y="-8" type="qcurve"/>
      <point x="986" y="-16"/>
      <point x="977" y="-19" type="qcurve"/>
      <point x="933" y="-34"/>
      <point x="930" y="-73" type="qcurve"/>
      <point x="929" y="-81"/>
      <point x="913" y="-81" type="qcurve"/>
      <point x="639" y="-79"/>
      <point x="545" y="-66" type="qcurve"/>
      <point x="381" y="-41"/>
      <point x="300" y="79" type="qcurve"/>
      <point x="184" y="-37"/>
      <point x="58" y="-88" type="qcurve"/>
      <point x="46" y="-95"/>
      <point x="42" y="-86" type="qcurve"/>
      <point x="39" y="-77"/>
      <point x="49" y="-73" type="qcurve"/>
      <point x="194" y="17"/>
      <point x="275" y="153" type="qcurve"/>
      <point x="265" y="151"/>
      <point x="258" y="147" type="qcurve"/>
      <point x="243" y="141"/>
      <point x="244" y="151" type="qcurve"/>
      <point x="246" y="177"/>
      <point x="247" y="202" type="qcurve"/>
      <point x="247" y="316" type="line"/>
      <point x="246" y="342"/>
      <point x="245" y="361" type="qcurve"/>
      <point x="245" y="370"/>
      <point x="249" y="371" type="qcurve"/>
      <point x="253" y="374"/>
      <point x="262" y="365" type="qcurve"/>
      <point x="275" y="352"/>
      <point x="293" y="339" type="qcurve"/>
      <point x="699" y="339" type="line"/>
      <point x="705" y="339"/>
      <point x="708" y="343" type="qcurve"/>
      <point x="726" y="371" type="line"/>
      <point x="733" y="379"/>
      <point x="740" y="372" type="qcurve"/>
      <point x="769" y="353"/>
      <point x="797" y="331" type="qcurve"/>
      <point x="803" y="325"/>
      <point x="802" y="319" type="qcurve"/>
      <point x="799" y="313"/>
      <point x="789" y="312" type="qcurve"/>
      <point x="777" y="310"/>
      <point x="771" y="300" type="qcurve"/>
      <point x="767" y="291"/>
      <point x="767" y="278" type="qcurve"/>
      <point x="767" y="274" type="line"/>
      <point x="767" y="242"/>
      <point x="773" y="187" type="qcurve"/>
      <point x="775" y="175"/>
      <point x="766" y="171" type="qcurve"/>
      <point x="731" y="151"/>
      <point x="724" y="151" type="qcurve"/>
      <point x="719" y="152"/>
      <point x="719" y="162" type="qcurve"/>
      <point x="719" y="188" type="line"/>
      <point x="543" y="188" type="line"/>
      <point x="543" y="103" type="line"/>
      <point x="739" y="103" type="line"/>
    </contour>
    <contour>
      <point x="316" y="93" type="qcurve"/>
      <point x="372" y="16"/>
      <point x="495" y="-14" type="qcurve"/>
      <point x="495" y="188" type="line"/>
      <point x="295" y="188" type="line"/>
      <point x="295" y="169" type="line"/>
      <point x="293" y="163" type="line"/>
      <point x="329" y="137"/>
      <point x="354" y="112" type="qcurve"/>
      <point x="362" y="105"/>
      <point x="359" y="101" type="qcurve"/>
      <point x="355" y="97"/>
      <point x="340" y="98" type="qcurve"/>
      <point x="327" y="100"/>
      <point x="320" y="96" type="qcurve"/>
      <point x="317" y="96"/>
    </contour>
    <contour>
      <point x="295" y="219" type="line"/>
      <point x="719" y="219" type="line"/>
      <point x="719" y="308" type="line"/>
      <point x="295" y="308" type="line"/>
    </contour>
    <contour>
      <point x="477" y="653" type="qcurve"/>
      <point x="477" y="645"/>
      <point x="489" y="633" type="qcurve"/>
      <point x="594" y="528"/>
      <point x="578" y="499" type="qcurve"/>
      <point x="567" y="479"/>
      <point x="550" y="470" type="qcurve"/>
      <point x="534" y="462"/>
      <point x="526" y="466" type="qcurve"/>
      <point x="520" y="469"/>
      <point x="519" y="485" type="qcurve"/>
      <point x="503" y="598"/>
      <point x="456" y="642" type="qcurve"/>
      <point x="444" y="653"/>
      <point x="452" y="667" type="qcurve"/>
      <point x="486" y="734"/>
      <point x="501" y="862" type="qcurve"/>
      <point x="502" y="870"/>
      <point x="505" y="870" type="qcurve"/>
      <point x="517" y="870"/>
      <point x="578" y="825" type="qcurve"/>
      <point x="586" y="819"/>
      <point x="585" y="815" type="qcurve"/>
      <point x="585" y="811"/>
      <point x="572" y="808" type="qcurve"/>
      <point x="561" y="806"/>
      <point x="552" y="800" type="qcurve"/>
      <point x="542" y="795"/>
      <point x="531" y="773" type="qcurve"/>
      <point x="509" y="719"/>
      <point x="483" y="674" type="qcurve"/>
      <point x="477" y="663"/>
    </contour>
    <contour>
      <point x="755" y="653" type="qcurve"/>
      <point x="755" y="650"/>
      <point x="778" y="632" type="qcurve"/>
      <point x="896" y="540"/>
      <point x="880" y="511" type="qcurve"/>
      <point x="869" y="491"/>
      <point x="852" y="482" type="qcurve"/>
      <point x="836" y="474"/>
      <point x="828" y="478" type="qcurve"/>
      <point x="822" y="481"/>
      <point x="821" y="497" type="qcurve"/>
      <point x="799" y="592"/>
      <point x="736" y="645" type="qcurve"/>
      <point x="730" y="650"/>
      <point x="730" y="653" type="qcurve"/>
      <point x="730" y="656"/>
      <point x="733" y="662" type="qcurve"/>
      <point x="771" y="732"/>
      <point x="794" y="850" type="qcurve"/>
      <point x="795" y="858"/>
      <point x="798" y="858" type="qcurve"/>
      <point x="810" y="858"/>
      <point x="871" y="813" type="qcurve"/>
      <point x="879" y="807"/>
      <point x="878" y="803" type="qcurve"/>
      <point x="878" y="799"/>
      <point x="865" y="796" type="qcurve"/>
      <point x="854" y="794"/>
      <point x="845" y="788" type="qcurve"/>
      <point x="835" y="783"/>
      <point x="824" y="765" type="qcurve"/>
      <point x="791" y="715"/>
      <point x="764" y="672" type="qcurve"/>
      <point x="755" y="657"/>
    </contour>
    <contour>
      <point x="618" y="653" type="qcurve"/>
      <point x="618" y="646"/>
      <point x="633" y="633" type="qcurve"/>
      <point x="743" y="534"/>
      <point x="727" y="505" type="qcurve"/>
      <point x="716" y="485"/>
      <point x="699" y="476" type="qcurve"/>
      <point x="683" y="468"/>
      <point x="675" y="472" type="qcurve"/>
      <point x="669" y="475"/>
      <point x="668" y="491" type="qcurve"/>
      <point x="652" y="592"/>
      <point x="595" y="645" type="qcurve"/>
      <point x="590" y="650"/>
      <point x="590" y="653" type="qcurve"/>
      <point x="590" y="657"/>
      <point x="592" y="663" type="qcurve"/>
      <point x="631" y="732"/>
      <point x="646" y="856" type="qcurve"/>
      <point x="647" y="864"/>
      <point x="650" y="864" type="qcurve"/>
      <point x="662" y="864"/>
      <point x="723" y="819" type="qcurve"/>
      <point x="731" y="813"/>
      <point x="730" y="809" type="qcurve"/>
      <point x="730" y="805"/>
      <point x="717" y="802" type="qcurve"/>
      <point x="706" y="800"/>
      <point x="697" y="794" type="qcurve"/>
      <point x="687" y="789"/>
      <point x="676" y="767" type="qcurve"/>
      <point x="652" y="718"/>
      <point x="624" y="670" type="qcurve"/>
      <point x="618" y="660"/>
    </contour>
  </outline>
</glyph>
<glyph name="uniE086" format="2">
  <advance width="1024"/>
  <unicode hex="E086"/>
  <outline>
    <contour>
      <point x="356" y="343" type="line"/>
      <point x="356" y="444" type="line"/>
      <point x="156" y="444" type="line"/>
      <point x="156" y="343" type="line"/>
    </contour>
    <contour>
      <point x="356" y="475" type="line"/>
      <point x="356" y="568" type="line"/>
      <point x="156" y="568" type="line"/>
      <point x="156" y="475" type="line"/>
    </contour>
    <contour>
      <point x="356" y="599" type="line"/>
      <point x="356" y="704" type="line"/>
      <point x="156" y="704" type="line"/>
      <point x="156" y="599" type="line"/>
    </contour>
    <contour>
      <point x="564" y="683" type="qcurve"/>
      <point x="509" y="599"/>
      <point x="442" y="541" type="qcurve"/>
      <point x="433" y="531"/>
      <point x="427" y="538" type="qcurve"/>
      <point x="422" y="546"/>
      <point x="429" y="553" type="qcurve"/>
      <point x="548" y="695"/>
      <point x="576" y="857" type="qcurve"/>
      <point x="578" y="867"/>
      <point x="587" y="866" type="qcurve"/>
      <point x="630" y="852"/>
      <point x="663" y="837" type="qcurve"/>
      <point x="672" y="833"/>
      <point x="671" y="827" type="qcurve"/>
      <point x="669" y="822"/>
      <point x="654" y="819" type="qcurve"/>
      <point x="630" y="816"/>
      <point x="606" y="755" type="qcurve"/>
      <point x="789" y="755" type="line"/>
      <point x="798" y="755"/>
      <point x="802" y="762" type="qcurve"/>
      <point x="825" y="790" type="line"/>
      <point x="829" y="795"/>
      <point x="832" y="795" type="qcurve"/>
      <point x="837" y="796"/>
      <point x="841" y="790" type="qcurve"/>
      <point x="874" y="762"/>
      <point x="893" y="737" type="qcurve"/>
      <point x="900" y="728"/>
      <point x="890" y="727" type="qcurve"/>
      <point x="850" y="724"/>
      <point x="831" y="676" type="qcurve"/>
      <point x="791" y="580"/>
      <point x="722" y="504" type="qcurve"/>
      <point x="840" y="417"/>
      <point x="987" y="396" type="qcurve"/>
      <point x="993" y="393"/>
      <point x="993" y="386" type="qcurve"/>
      <point x="992" y="380"/>
      <point x="985" y="381" type="qcurve"/>
      <point x="929" y="386"/>
      <point x="907" y="338" type="qcurve"/>
      <point x="903" y="329"/>
      <point x="893" y="335" type="qcurve"/>
      <point x="758" y="405"/>
      <point x="691" y="472" type="qcurve"/>
      <point x="685" y="467"/>
      <point x="679" y="461" type="qcurve"/>
      <point x="592" y="383"/>
      <point x="412" y="299" type="qcurve"/>
      <point x="408" y="297"/>
      <point x="404" y="296" type="qcurve"/>
      <point x="404" y="10" type="line"/>
      <point x="404" y="-24"/>
      <point x="386" y="-49" type="qcurve"/>
      <point x="368" y="-74"/>
      <point x="341" y="-84" type="qcurve"/>
      <point x="332" y="-88"/>
      <point x="329" y="-78" type="qcurve"/>
      <point x="310" y="-27"/>
      <point x="229" y="-18" type="qcurve"/>
      <point x="218" y="-16"/>
      <point x="219" y="-6" type="qcurve"/>
      <point x="220" y="3"/>
      <point x="233" y="2" type="qcurve"/>
      <point x="340" y="-8"/>
      <point x="349" y="-4" type="qcurve"/>
      <point x="356" y="0"/>
      <point x="356" y="21" type="qcurve"/>
      <point x="356" y="281" type="line"/>
      <point x="359" y="298"/>
      <point x="363" y="310" type="qcurve"/>
      <point x="364" y="315"/>
      <point x="360" y="316" type="qcurve"/>
      <point x="352" y="319"/>
      <point x="349" y="301" type="qcurve"/>
      <point x="258" y="133"/>
      <point x="60" y="-5" type="qcurve"/>
      <point x="46" y="-13"/>
      <point x="40" y="-6" type="qcurve"/>
      <point x="32" y="7"/>
      <point x="42" y="14" type="qcurve"/>
      <point x="137" y="88"/>
      <point x="188" y="146" type="qcurve"/>
      <point x="257" y="230"/>
      <point x="297" y="312" type="qcurve"/>
      <point x="139" y="312" type="line"/>
      <point x="97" y="311"/>
      <point x="66" y="305" type="qcurve"/>
      <point x="57" y="302"/>
      <point x="56" y="311" type="qcurve"/>
      <point x="51" y="329"/>
      <point x="36" y="342" type="qcurve"/>
      <point x="28" y="349"/>
      <point x="32" y="353" type="qcurve"/>
      <point x="36" y="356"/>
      <point x="43" y="352" type="qcurve"/>
      <point x="74" y="344"/>
      <point x="108" y="343" type="qcurve"/>
      <point x="108" y="656" type="line"/>
      <point x="108" y="711"/>
      <point x="101" y="757" type="qcurve"/>
      <point x="100" y="769"/>
      <point x="104" y="770" type="qcurve"/>
      <point x="109" y="772"/>
      <point x="116" y="763" type="qcurve"/>
      <point x="126" y="751"/>
      <point x="145" y="735" type="qcurve"/>
      <point x="202" y="735" type="line"/>
      <point x="225" y="796"/>
      <point x="234" y="863" type="qcurve"/>
      <point x="254" y="849"/>
      <point x="276" y="843" type="qcurve"/>
      <point x="297" y="837"/>
      <point x="304" y="833" type="qcurve"/>
      <point x="309" y="827"/>
      <point x="305" y="826" type="qcurve"/>
      <point x="264" y="810"/>
      <point x="225" y="735" type="qcurve"/>
      <point x="339" y="735" type="line"/>
      <point x="348" y="735"/>
      <point x="349" y="736" type="qcurve"/>
      <point x="374" y="769" type="line"/>
      <point x="376" y="773"/>
      <point x="380" y="773" type="qcurve"/>
      <point x="384" y="773"/>
      <point x="388" y="769" type="qcurve"/>
      <point x="419" y="744"/>
      <point x="443" y="719" type="qcurve"/>
      <point x="450" y="711"/>
      <point x="434" y="705" type="qcurve"/>
      <point x="410" y="695"/>
      <point x="407" y="691" type="qcurve"/>
      <point x="404" y="685"/>
      <point x="404" y="678" type="qcurve"/>
      <point x="404" y="328" type="line"/>
      <point x="551" y="398"/>
      <point x="663" y="501" type="qcurve"/>
      <point x="598" y="577"/>
    </contour>
    <contour>
      <point x="579" y="708" type="qcurve"/>
      <point x="630" y="583"/>
      <point x="691" y="532" type="qcurve"/>
      <point x="748" y="601"/>
      <point x="794" y="724" type="qcurve"/>
      <point x="589" y="724" type="line"/>
      <point x="583" y="715"/>
    </contour>
    <contour>
      <point x="548" y="4" type="line"/>
      <point x="547" y="-56"/>
      <point x="543" y="-62" type="qcurve"/>
      <point x="508" y="-89"/>
      <point x="502" y="-90" type="qcurve"/>
      <point x="494" y="-89"/>
      <point x="495" y="-70" type="qcurve"/>
      <point x="499" y="-9"/>
      <point x="500" y="133" type="qcurve"/>
      <point x="500" y="237" type="line"/>
      <point x="499" y="273"/>
      <point x="495" y="319" type="qcurve"/>
      <point x="493" y="331"/>
      <point x="497" y="332" type="qcurve"/>
      <point x="500" y="333"/>
      <point x="507" y="326" type="qcurve"/>
      <point x="519" y="313"/>
      <point x="543" y="295" type="qcurve"/>
      <point x="789" y="295" type="line"/>
      <point x="801" y="295"/>
      <point x="808" y="302" type="qcurve"/>
      <point x="833" y="328" type="line"/>
      <point x="838" y="335"/>
      <point x="847" y="329" type="qcurve"/>
      <point x="878" y="306"/>
      <point x="900" y="287" type="qcurve"/>
      <point x="907" y="279"/>
      <point x="898" y="278" type="qcurve"/>
      <point x="881" y="275"/>
      <point x="872" y="266" type="qcurve"/>
      <point x="864" y="257"/>
      <point x="864" y="247" type="qcurve"/>
      <point x="864" y="123" type="line"/>
      <point x="865" y="55"/>
      <point x="872" y="-44" type="qcurve"/>
      <point x="872" y="-57"/>
      <point x="862" y="-63" type="qcurve"/>
      <point x="817" y="-89"/>
      <point x="813" y="-88" type="qcurve"/>
      <point x="809" y="-86"/>
      <point x="810" y="-70" type="qcurve"/>
      <point x="813" y="-39"/>
      <point x="814" y="4" type="qcurve"/>
    </contour>
    <contour>
      <point x="548" y="35" type="line"/>
      <point x="814" y="35" type="line"/>
      <point x="815" y="63"/>
      <point x="816" y="94" type="qcurve"/>
      <point x="816" y="264" type="line"/>
      <point x="548" y="264" type="line"/>
    </contour>
  </outline>
</glyph>
<glyph name="uniE087" format="2">
  <advance width="1024"/>
  <unicode hex="E087"/>
  <outline>
    <contour>
      <point x="728" y="600"/>
      <point x="735" y="607" type="qcurve"/>
      <point x="743" y="615"/>
      <point x="753" y="603" type="qcurve"/>
      <point x="802" y="557"/>
      <point x="826" y="520" type="qcurve"/>
      <point x="843" y="494"/>
      <point x="840" y="481" type="qcurve"/>
      <point x="835" y="457"/>
      <point x="819" y="447" type="qcurve"/>
      <point x="801" y="436"/>
      <point x="795" y="437" type="qcurve"/>
      <point x="789" y="439"/>
      <point x="786" y="460" type="qcurve"/>
      <point x="771" y="543"/>
      <point x="735" y="591" type="qcurve"/>
    </contour>
    <contour>
      <point x="768" y="261"/>
      <point x="864" y="369" type="qcurve"/>
      <point x="870" y="377"/>
      <point x="876" y="373" type="qcurve"/>
      <point x="882" y="368"/>
      <point x="876" y="359" type="qcurve"/>
      <point x="781" y="231"/>
      <point x="774" y="194" type="qcurve"/>
      <point x="770" y="182"/>
      <point x="760" y="191" type="qcurve"/>
      <point x="736" y="210"/>
      <point x="717" y="219" type="qcurve"/>
      <point x="699" y="227"/>
      <point x="715" y="234" type="qcurve"/>
    </contour>
    <contour>
      <point x="884" y="755" type="line"/>
      <point x="893" y="755"/>
      <point x="894" y="756" type="qcurve"/>
      <point x="919" y="789" type="line"/>
      <point x="921" y="793"/>
      <point x="925" y="793" type="qcurve"/>
      <point x="929" y="793"/>
      <point x="933" y="789" type="qcurve"/>
      <point x="964" y="764"/>
      <point x="988" y="739" type="qcurve"/>
      <point x="995" y="731"/>
      <point x="979" y="725" type="qcurve"/>
      <point x="955" y="715"/>
      <point x="952" y="711" type="qcurve"/>
      <point x="949" y="705"/>
      <point x="949" y="698" type="qcurve"/>
      <point x="949" y="10" type="line"/>
      <point x="949" y="-24"/>
      <point x="931" y="-49" type="qcurve"/>
      <point x="913" y="-74"/>
      <point x="886" y="-84" type="qcurve"/>
      <point x="877" y="-88"/>
      <point x="874" y="-79" type="qcurve"/>
      <point x="854" y="-28"/>
      <point x="779" y="-22" type="qcurve"/>
      <point x="767" y="-20"/>
      <point x="768" y="-10" type="qcurve"/>
      <point x="769" y="-1"/>
      <point x="782" y="-2" type="qcurve"/>
      <point x="888" y="-7"/>
      <point x="894" y="-4" type="qcurve"/>
      <point x="901" y="0"/>
      <point x="901" y="21" type="qcurve"/>
      <point x="901" y="724" type="line"/>
      <point x="848" y="724" type="line"/>
      <point x="806" y="723"/>
      <point x="775" y="717" type="qcurve"/>
      <point x="766" y="714"/>
      <point x="765" y="723" type="qcurve"/>
      <point x="760" y="741"/>
      <point x="745" y="754" type="qcurve"/>
      <point x="737" y="761"/>
      <point x="741" y="765" type="qcurve"/>
      <point x="745" y="768"/>
      <point x="752" y="764" type="qcurve"/>
      <point x="790" y="755"/>
      <point x="836" y="755" type="qcurve"/>
    </contour>
    <contour>
      <point x="496" y="232"/>
      <point x="599" y="323" type="qcurve"/>
      <point x="608" y="331"/>
      <point x="612" y="325" type="qcurve"/>
      <point x="617" y="320"/>
      <point x="610" y="311" type="qcurve"/>
      <point x="508" y="200"/>
      <point x="493" y="163" type="qcurve"/>
      <point x="488" y="151"/>
      <point x="478" y="161" type="qcurve"/>
      <point x="458" y="183"/>
      <point x="439" y="193" type="qcurve"/>
      <point x="424" y="202"/>
      <point x="440" y="208" type="qcurve"/>
    </contour>
    <contour>
      <point x="616" y="755" type="line"/>
      <point x="625" y="755"/>
      <point x="626" y="756" type="qcurve"/>
      <point x="651" y="789" type="line"/>
      <point x="653" y="793"/>
      <point x="657" y="793" type="qcurve"/>
      <point x="661" y="793"/>
      <point x="665" y="789" type="qcurve"/>
      <point x="696" y="764"/>
      <point x="720" y="739" type="qcurve"/>
      <point x="727" y="731"/>
      <point x="711" y="725" type="qcurve"/>
      <point x="687" y="715"/>
      <point x="684" y="711" type="qcurve"/>
      <point x="681" y="705"/>
      <point x="681" y="698" type="qcurve"/>
      <point x="681" y="10" type="line"/>
      <point x="681" y="-24"/>
      <point x="663" y="-49" type="qcurve"/>
      <point x="645" y="-74"/>
      <point x="618" y="-84" type="qcurve"/>
      <point x="609" y="-88"/>
      <point x="605" y="-79" type="qcurve"/>
      <point x="596" y="-58"/>
      <point x="574" y="-42" type="qcurve"/>
      <point x="552" y="-26"/>
      <point x="503" y="-22" type="qcurve"/>
      <point x="491" y="-20"/>
      <point x="492" y="-10" type="qcurve"/>
      <point x="493" y="-1"/>
      <point x="506" y="-2" type="qcurve"/>
      <point x="620" y="-7"/>
      <point x="626" y="-4" type="qcurve"/>
      <point x="633" y="0"/>
      <point x="633" y="21" type="qcurve"/>
      <point x="633" y="724" type="line"/>
      <point x="552" y="724" type="line"/>
      <point x="510" y="723"/>
      <point x="479" y="717" type="qcurve"/>
      <point x="470" y="714"/>
      <point x="469" y="723" type="qcurve"/>
      <point x="464" y="741"/>
      <point x="449" y="754" type="qcurve"/>
      <point x="441" y="761"/>
      <point x="445" y="765" type="qcurve"/>
      <point x="449" y="768"/>
      <point x="456" y="764" type="qcurve"/>
      <point x="494" y="755"/>
      <point x="540" y="755" type="qcurve"/>
    </contour>
    <contour>
      <point x="448" y="600"/>
      <point x="455" y="607" type="qcurve"/>
      <point x="463" y="615"/>
      <point x="473" y="603" type="qcurve"/>
      <point x="522" y="557"/>
      <point x="546" y="520" type="qcurve"/>
      <point x="563" y="494"/>
      <point x="560" y="481" type="qcurve"/>
      <point x="555" y="457"/>
      <point x="539" y="447" type="qcurve"/>
      <point x="521" y="436"/>
      <point x="515" y="437" type="qcurve"/>
      <point x="509" y="439"/>
      <point x="506" y="460" type="qcurve"/>
      <point x="491" y="543"/>
      <point x="455" y="591" type="qcurve"/>
    </contour>
    <contour>
      <point x="153" y="71" type="line"/>
      <point x="325" y="71" type="line"/>
      <point x="325" y="300" type="line"/>
      <point x="153" y="300" type="line"/>
    </contour>
    <contour>
      <point x="153" y="40" type="line"/>
      <point x="152" y="-40"/>
      <point x="148" y="-46" type="qcurve"/>
      <point x="113" y="-73"/>
      <point x="107" y="-74" type="qcurve"/>
      <point x="99" y="-73"/>
      <point x="100" y="-54" type="qcurve"/>
      <point x="104" y="7"/>
      <point x="105" y="149" type="qcurve"/>
      <point x="105" y="273" type="line"/>
      <point x="104" y="309"/>
      <point x="100" y="355" type="qcurve"/>
      <point x="98" y="367"/>
      <point x="102" y="368" type="qcurve"/>
      <point x="105" y="369"/>
      <point x="112" y="362" type="qcurve"/>
      <point x="124" y="349"/>
      <point x="148" y="331" type="qcurve"/>
      <point x="211" y="331" type="line"/>
      <point x="211" y="512" type="line"/>
      <point x="144" y="512" type="line"/>
      <point x="102" y="511"/>
      <point x="71" y="505" type="qcurve"/>
      <point x="63" y="502"/>
      <point x="60" y="511" type="qcurve"/>
      <point x="56" y="529"/>
      <point x="41" y="541" type="qcurve"/>
      <point x="34" y="548"/>
      <point x="37" y="552" type="qcurve"/>
      <point x="41" y="555"/>
      <point x="48" y="551" type="qcurve"/>
      <point x="86" y="543"/>
      <point x="132" y="543" type="qcurve"/>
      <point x="212" y="543" type="line"/>
      <point x="216" y="741" type="line"/>
      <point x="138" y="726"/>
      <point x="73" y="722" type="qcurve"/>
      <point x="56" y="721"/>
      <point x="56" y="731" type="qcurve"/>
      <point x="55" y="741"/>
      <point x="67" y="742" type="qcurve"/>
      <point x="268" y="783"/>
      <point x="365" y="837" type="qcurve"/>
      <point x="377" y="843"/>
      <point x="380" y="836" type="qcurve"/>
      <point x="397" y="804"/>
      <point x="424" y="777" type="qcurve"/>
      <point x="432" y="767"/>
      <point x="429" y="763" type="qcurve"/>
      <point x="426" y="759"/>
      <point x="413" y="763" type="qcurve"/>
      <point x="392" y="767"/>
      <point x="362" y="767" type="qcurve"/>
      <point x="273" y="758"/>
      <point x="264" y="749" type="qcurve"/>
      <point x="260" y="543" type="line"/>
      <point x="313" y="543" type="line"/>
      <point x="319" y="543"/>
      <point x="325" y="550" type="qcurve"/>
      <point x="361" y="591" type="line"/>
      <point x="368" y="598"/>
      <point x="375" y="591" type="qcurve"/>
      <point x="401" y="565"/>
      <point x="419" y="543" type="qcurve"/>
      <point x="430" y="529"/>
      <point x="423" y="519" type="qcurve"/>
      <point x="418" y="513"/>
      <point x="405" y="512" type="qcurve"/>
      <point x="257" y="512" type="line"/>
      <point x="257" y="331" type="line"/>
      <point x="305" y="331" type="line"/>
      <point x="311" y="331"/>
      <point x="314" y="335" type="qcurve"/>
      <point x="332" y="363" type="line"/>
      <point x="339" y="371"/>
      <point x="346" y="364" type="qcurve"/>
      <point x="375" y="345"/>
      <point x="403" y="323" type="qcurve"/>
      <point x="409" y="317"/>
      <point x="408" y="311" type="qcurve"/>
      <point x="405" y="305"/>
      <point x="395" y="304" type="qcurve"/>
      <point x="383" y="302"/>
      <point x="377" y="292" type="qcurve"/>
      <point x="373" y="283"/>
      <point x="373" y="270" type="qcurve"/>
      <point x="373" y="70" type="line"/>
      <point x="373" y="38"/>
      <point x="379" y="-17" type="qcurve"/>
      <point x="381" y="-29"/>
      <point x="372" y="-33" type="qcurve"/>
      <point x="337" y="-53"/>
      <point x="330" y="-53" type="qcurve"/>
      <point x="325" y="-52"/>
      <point x="325" y="-42" type="qcurve"/>
      <point x="325" y="40" type="line"/>
    </contour>
  </outline>
</glyph>
<glyph name="uniE088" format="2">
  <advance width="1024"/>
  <unicode hex="E088"/>
  <outline>
    <contour>
      <point x="59" y="283" type="qcurve"/>
      <point x="68" y="288"/>
      <point x="75" y="275" type="qcurve"/>
      <point x="116" y="218"/>
      <point x="133" y="173" type="qcurve"/>
      <point x="144" y="141"/>
      <point x="140" y="128" type="qcurve"/>
      <point x="133" y="105"/>
      <point x="115" y="98" type="qcurve"/>
      <point x="97" y="92"/>
      <point x="91" y="93" type="qcurve"/>
      <point x="86" y="95"/>
      <point x="86" y="117" type="qcurve"/>
      <point x="86" y="160"/>
      <point x="79" y="194" type="qcurve"/>
      <point x="72" y="236"/>
      <point x="57" y="267" type="qcurve"/>
      <point x="52" y="277"/>
    </contour>
    <contour>
      <point x="263" y="295" type="qcurve"/>
      <point x="267" y="296"/>
      <point x="273" y="293" type="qcurve"/>
      <point x="298" y="285"/>
      <point x="319" y="275" type="qcurve"/>
      <point x="322" y="273"/>
      <point x="321" y="269" type="qcurve"/>
      <point x="321" y="264"/>
      <point x="317" y="263" type="qcurve"/>
      <point x="304" y="254"/>
      <point x="299" y="236" type="qcurve"/>
      <point x="267" y="157"/>
      <point x="247" y="120" type="qcurve"/>
      <point x="242" y="110"/>
      <point x="233" y="114" type="qcurve"/>
      <point x="226" y="119"/>
      <point x="229" y="128" type="qcurve"/>
      <point x="248" y="188"/>
      <point x="259" y="282" type="qcurve"/>
      <point x="260" y="294"/>
    </contour>
    <contour>
      <point x="131" y="360" type="line"/>
      <point x="105" y="360"/>
      <point x="73" y="353" type="qcurve"/>
      <point x="68" y="352"/>
      <point x="67" y="355" type="qcurve"/>
      <point x="55" y="374"/>
      <point x="45" y="390" type="qcurve"/>
      <point x="40" y="400"/>
      <point x="52" y="397" type="qcurve"/>
      <point x="110" y="392"/>
      <point x="116" y="391" type="qcurve"/>
      <point x="165" y="391" type="line"/>
      <point x="165" y="532" type="line"/>
      <point x="139" y="532"/>
      <point x="107" y="525" type="qcurve"/>
      <point x="102" y="524"/>
      <point x="101" y="527" type="qcurve"/>
      <point x="92" y="542"/>
      <point x="83" y="555" type="qcurve"/>
      <point x="70" y="535"/>
      <point x="56" y="516" type="qcurve"/>
      <point x="46" y="505"/>
      <point x="40" y="511" type="qcurve"/>
      <point x="32" y="518"/>
      <point x="41" y="528" type="qcurve"/>
      <point x="90" y="603"/>
      <point x="127" y="711" type="qcurve"/>
      <point x="164" y="817"/>
      <point x="164" y="851" type="qcurve"/>
      <point x="165" y="868"/>
      <point x="182" y="859" type="qcurve"/>
      <point x="218" y="837"/>
      <point x="233" y="827" type="qcurve"/>
      <point x="244" y="819"/>
      <point x="244" y="813" type="qcurve"/>
      <point x="243" y="810"/>
      <point x="231" y="807" type="qcurve"/>
      <point x="220" y="804"/>
      <point x="216" y="800" type="qcurve"/>
      <point x="215" y="800"/>
      <point x="214" y="799" type="qcurve"/>
      <point x="265" y="768"/>
      <point x="293" y="737" type="qcurve"/>
      <point x="314" y="714"/>
      <point x="315" y="701" type="qcurve"/>
      <point x="314" y="676"/>
      <point x="302" y="663" type="qcurve"/>
      <point x="287" y="649"/>
      <point x="282" y="649" type="qcurve"/>
      <point x="275" y="649"/>
      <point x="268" y="670" type="qcurve"/>
      <point x="255" y="706"/>
      <point x="238" y="734" type="qcurve"/>
      <point x="221" y="761"/>
      <point x="203" y="779" type="qcurve"/>
      <point x="198" y="768"/>
      <point x="192" y="752" type="qcurve"/>
      <point x="166" y="692"/>
      <point x="129" y="626" type="qcurve"/>
      <point x="113" y="599"/>
      <point x="93" y="568" type="qcurve"/>
      <point x="144" y="564"/>
      <point x="151" y="563" type="qcurve"/>
      <point x="205" y="563" type="line"/>
      <point x="210" y="563"/>
      <point x="216" y="570" type="qcurve"/>
      <point x="250" y="611" type="line"/>
      <point x="257" y="618"/>
      <point x="264" y="611" type="qcurve"/>
      <point x="288" y="585"/>
      <point x="305" y="563" type="qcurve"/>
      <point x="316" y="549"/>
      <point x="309" y="539" type="qcurve"/>
      <point x="304" y="533"/>
      <point x="292" y="532" type="qcurve"/>
      <point x="212" y="532" type="line"/>
      <point x="212" y="391" type="line"/>
      <point x="228" y="391" type="line"/>
      <point x="233" y="391"/>
      <point x="239" y="398" type="qcurve"/>
      <point x="273" y="439" type="line"/>
      <point x="280" y="446"/>
      <point x="286" y="439" type="qcurve"/>
      <point x="311" y="413"/>
      <point x="328" y="391" type="qcurve"/>
      <point x="339" y="377"/>
      <point x="332" y="367" type="qcurve"/>
      <point x="327" y="361"/>
      <point x="315" y="360" type="qcurve"/>
      <point x="212" y="360" type="line"/>
      <point x="212" y="68" type="line"/>
      <point x="255" y="81"/>
      <point x="349" y="111" type="qcurve"/>
      <point x="363" y="116"/>
      <point x="364" y="107" type="qcurve"/>
      <point x="368" y="97"/>
      <point x="353" y="90" type="qcurve"/>
      <point x="207" y="25"/>
      <point x="152" y="0" type="qcurve"/>
      <point x="133" y="-8"/>
      <point x="101" y="-38" type="qcurve"/>
      <point x="97" y="-43"/>
      <point x="93" y="-44" type="qcurve"/>
      <point x="89" y="-45"/>
      <point x="85" y="-36" type="qcurve"/>
      <point x="72" y="-12"/>
      <point x="51" y="6" type="qcurve"/>
      <point x="39" y="16"/>
      <point x="40" y="19" type="qcurve"/>
      <point x="41" y="24"/>
      <point x="51" y="25" type="qcurve"/>
      <point x="97" y="33"/>
      <point x="150" y="49" type="qcurve"/>
      <point x="157" y="53"/>
      <point x="167" y="54" type="qcurve"/>
      <point x="167" y="360" type="line"/>
    </contour>
    <contour>
      <point x="625" y="172" type="line"/>
      <point x="723" y="172" type="line"/>
      <point x="723" y="281" type="line"/>
      <point x="625" y="281" type="line"/>
    </contour>
    <contour>
      <point x="693" y="584" type="line"/>
      <point x="789" y="584" type="line"/>
      <point x="789" y="705" type="line"/>
      <point x="693" y="705" type="line"/>
    </contour>
    <contour>
      <point x="771" y="312" type="line"/>
      <point x="877" y="312" type="line"/>
      <point x="877" y="425" type="line"/>
      <point x="771" y="425" type="line"/>
    </contour>
    <contour>
      <point x="723" y="425" type="line"/>
      <point x="625" y="425" type="line"/>
      <point x="625" y="312" type="line"/>
      <point x="723" y="312" type="line"/>
    </contour>
    <contour>
      <point x="771" y="172" type="line"/>
      <point x="877" y="172" type="line"/>
      <point x="877" y="281" type="line"/>
      <point x="771" y="281" type="line"/>
    </contour>
    <contour>
      <point x="697" y="103" type="qcurve"/>
      <point x="724" y="83"/>
      <point x="741" y="64" type="qcurve"/>
      <point x="744" y="59"/>
      <point x="743" y="55" type="qcurve"/>
      <point x="739" y="51"/>
      <point x="733" y="52" type="qcurve"/>
      <point x="713" y="54"/>
      <point x="630" y="-1" type="qcurve"/>
      <point x="558" y="-48"/>
      <point x="502" y="-85" type="qcurve"/>
      <point x="492" y="-89"/>
      <point x="488" y="-79" type="qcurve"/>
      <point x="486" y="-68"/>
      <point x="496" y="-64" type="qcurve"/>
      <point x="576" y="-6"/>
      <point x="685" y="101" type="qcurve"/>
      <point x="692" y="107"/>
    </contour>
    <contour>
      <point x="777" y="89" type="qcurve"/>
      <point x="780" y="98"/>
      <point x="793" y="94" type="qcurve"/>
      <point x="888" y="61"/>
      <point x="943" y="21" type="qcurve"/>
      <point x="981" y="-5"/>
      <point x="987" y="-27" type="qcurve"/>
      <point x="993" y="-51"/>
      <point x="984" y="-67" type="qcurve"/>
      <point x="975" y="-85"/>
      <point x="970" y="-86" type="qcurve"/>
      <point x="964" y="-88"/>
      <point x="952" y="-70" type="qcurve"/>
      <point x="873" y="38"/>
      <point x="784" y="75" type="qcurve"/>
      <point x="776" y="79"/>
    </contour>
    <contour>
      <point x="645" y="584" type="line"/>
      <point x="645" y="705" type="line"/>
      <point x="632" y="705" type="line"/>
      <point x="610" y="704"/>
      <point x="579" y="698" type="qcurve"/>
      <point x="571" y="695"/>
      <point x="568" y="704" type="qcurve"/>
      <point x="564" y="722"/>
      <point x="549" y="734" type="qcurve"/>
      <point x="542" y="741"/>
      <point x="545" y="745" type="qcurve"/>
      <point x="549" y="748"/>
      <point x="556" y="744" type="qcurve"/>
      <point x="594" y="736"/>
      <point x="620" y="736" type="qcurve"/>
      <point x="645" y="736" type="line"/>
      <point x="645" y="779" type="line"/>
      <point x="644" y="818"/>
      <point x="641" y="849" type="qcurve"/>
      <point x="640" y="865"/>
      <point x="650" y="862" type="qcurve"/>
      <point x="703" y="845"/>
      <point x="721" y="836" type="qcurve"/>
      <point x="735" y="827"/>
      <point x="719" y="820" type="qcurve"/>
      <point x="704" y="812"/>
      <point x="700" y="802" type="qcurve"/>
      <point x="693" y="789"/>
      <point x="693" y="779" type="qcurve"/>
      <point x="693" y="736" type="line"/>
      <point x="789" y="736" type="line"/>
      <point x="789" y="779" type="line"/>
      <point x="788" y="818"/>
      <point x="785" y="849" type="qcurve"/>
      <point x="784" y="865"/>
      <point x="794" y="862" type="qcurve"/>
      <point x="847" y="845"/>
      <point x="865" y="836" type="qcurve"/>
      <point x="879" y="827"/>
      <point x="863" y="820" type="qcurve"/>
      <point x="848" y="812"/>
      <point x="844" y="802" type="qcurve"/>
      <point x="837" y="789"/>
      <point x="837" y="779" type="qcurve"/>
      <point x="837" y="736" type="line"/>
      <point x="853" y="736" type="line"/>
      <point x="859" y="736"/>
      <point x="865" y="743" type="qcurve"/>
      <point x="901" y="784" type="line"/>
      <point x="908" y="791"/>
      <point x="915" y="784" type="qcurve"/>
      <point x="941" y="758"/>
      <point x="959" y="736" type="qcurve"/>
      <point x="970" y="722"/>
      <point x="963" y="712" type="qcurve"/>
      <point x="958" y="706"/>
      <point x="945" y="705" type="qcurve"/>
      <point x="837" y="705" type="line"/>
      <point x="837" y="584" type="line"/>
      <point x="877" y="584" type="line"/>
      <point x="883" y="584"/>
      <point x="889" y="591" type="qcurve"/>
      <point x="925" y="632" type="line"/>
      <point x="932" y="639"/>
      <point x="939" y="632" type="qcurve"/>
      <point x="965" y="606"/>
      <point x="983" y="584" type="qcurve"/>
      <point x="994" y="570"/>
      <point x="987" y="560" type="qcurve"/>
      <point x="982" y="554"/>
      <point x="969" y="553" type="qcurve"/>
      <point x="771" y="553" type="line"/>
      <point x="771" y="456" type="line"/>
      <point x="857" y="456" type="line"/>
      <point x="863" y="456"/>
      <point x="866" y="460" type="qcurve"/>
      <point x="884" y="488" type="line"/>
      <point x="891" y="496"/>
      <point x="898" y="489" type="qcurve"/>
      <point x="927" y="470"/>
      <point x="955" y="448" type="qcurve"/>
      <point x="961" y="442"/>
      <point x="960" y="436" type="qcurve"/>
      <point x="957" y="430"/>
      <point x="947" y="429" type="qcurve"/>
      <point x="935" y="427"/>
      <point x="929" y="417" type="qcurve"/>
      <point x="925" y="408"/>
      <point x="925" y="395" type="qcurve"/>
      <point x="925" y="215" type="line"/>
      <point x="925" y="183"/>
      <point x="931" y="128" type="qcurve"/>
      <point x="933" y="116"/>
      <point x="924" y="112" type="qcurve"/>
      <point x="889" y="92"/>
      <point x="882" y="92" type="qcurve"/>
      <point x="877" y="93"/>
      <point x="877" y="103" type="qcurve"/>
      <point x="877" y="141" type="line"/>
      <point x="625" y="141" type="line"/>
      <point x="625" y="106" type="line"/>
      <point x="624" y="98"/>
      <point x="620" y="97" type="qcurve"/>
      <point x="610" y="93"/>
      <point x="588" y="84" type="qcurve"/>
      <point x="573" y="78"/>
      <point x="574" y="88" type="qcurve"/>
      <point x="576" y="114"/>
      <point x="577" y="139" type="qcurve"/>
      <point x="577" y="433" type="line"/>
      <point x="576" y="459"/>
      <point x="575" y="478" type="qcurve"/>
      <point x="575" y="487"/>
      <point x="579" y="488" type="qcurve"/>
      <point x="583" y="491"/>
      <point x="592" y="482" type="qcurve"/>
      <point x="605" y="469"/>
      <point x="623" y="456" type="qcurve"/>
      <point x="723" y="456" type="line"/>
      <point x="723" y="553" type="line"/>
      <point x="612" y="553" type="line"/>
      <point x="590" y="552"/>
      <point x="559" y="546" type="qcurve"/>
      <point x="551" y="543"/>
      <point x="548" y="552" type="qcurve"/>
      <point x="544" y="570"/>
      <point x="529" y="582" type="qcurve"/>
      <point x="522" y="589"/>
      <point x="525" y="593" type="qcurve"/>
      <point x="529" y="596"/>
      <point x="536" y="592" type="qcurve"/>
      <point x="574" y="584"/>
      <point x="600" y="584" type="qcurve"/>
    </contour>
    <contour>
      <point x="388" y="606" type="line"/>
      <point x="362" y="606"/>
      <point x="330" y="599" type="qcurve"/>
      <point x="325" y="598"/>
      <point x="324" y="601" type="qcurve"/>
      <point x="312" y="620"/>
      <point x="302" y="636" type="qcurve"/>
      <point x="297" y="646"/>
      <point x="309" y="643" type="qcurve"/>
      <point x="367" y="638"/>
      <point x="374" y="637" type="qcurve"/>
      <point x="416" y="637" type="line"/>
      <point x="416" y="718" type="line"/>
      <point x="415" y="798"/>
      <point x="412" y="846" type="qcurve"/>
      <point x="411" y="864"/>
      <point x="420" y="860" type="qcurve"/>
      <point x="473" y="842"/>
      <point x="493" y="830" type="qcurve"/>
      <point x="504" y="822"/>
      <point x="494" y="818" type="qcurve"/>
      <point x="465" y="801"/>
      <point x="464" y="797" type="qcurve"/>
      <point x="462" y="793"/>
      <point x="462" y="718" type="qcurve"/>
      <point x="462" y="637" type="line"/>
      <point x="473" y="637" type="line"/>
      <point x="479" y="637"/>
      <point x="485" y="644" type="qcurve"/>
      <point x="519" y="685" type="line"/>
      <point x="525" y="691"/>
      <point x="532" y="685" type="qcurve"/>
      <point x="557" y="659"/>
      <point x="574" y="637" type="qcurve"/>
      <point x="584" y="623"/>
      <point x="578" y="613" type="qcurve"/>
      <point x="573" y="607"/>
      <point x="561" y="606" type="qcurve"/>
      <point x="462" y="606" type="line"/>
      <point x="462" y="409" type="line"/>
      <point x="505" y="435"/>
      <point x="551" y="466" type="qcurve"/>
      <point x="564" y="474"/>
      <point x="567" y="465" type="qcurve"/>
      <point x="571" y="456"/>
      <point x="559" y="446" type="qcurve"/>
      <point x="500" y="397"/>
      <point x="462" y="366" type="qcurve"/>
      <point x="462" y="-1" type="line"/>
      <point x="460" y="-34"/>
      <point x="442" y="-56" type="qcurve"/>
      <point x="423" y="-78"/>
      <point x="399" y="-85" type="qcurve"/>
      <point x="391" y="-86"/>
      <point x="390" y="-79" type="qcurve"/>
      <point x="386" y="-67"/>
      <point x="371" y="-54" type="qcurve"/>
      <point x="352" y="-36"/>
      <point x="296" y="-23" type="qcurve"/>
      <point x="285" y="-19"/>
      <point x="286" y="-9" type="qcurve"/>
      <point x="288" y="-2"/>
      <point x="301" y="-3" type="qcurve"/>
      <point x="343" y="-5"/>
      <point x="376" y="-8" type="qcurve"/>
      <point x="407" y="-11"/>
      <point x="414" y="-7" type="qcurve"/>
      <point x="416" y="-3"/>
      <point x="416" y="10" type="qcurve"/>
      <point x="416" y="331" type="line"/>
      <point x="412" y="328"/>
      <point x="411" y="327" type="qcurve"/>
      <point x="394" y="314"/>
      <point x="370" y="278" type="qcurve"/>
      <point x="366" y="272"/>
      <point x="362" y="271" type="qcurve"/>
      <point x="359" y="270"/>
      <point x="353" y="277" type="qcurve"/>
      <point x="336" y="298"/>
      <point x="312" y="311" type="qcurve"/>
      <point x="298" y="318"/>
      <point x="298" y="321" type="qcurve"/>
      <point x="299" y="325"/>
      <point x="308" y="329" type="qcurve"/>
      <point x="355" y="348"/>
      <point x="406" y="378" type="qcurve"/>
      <point x="411" y="383"/>
      <point x="416" y="384" type="qcurve"/>
      <point x="416" y="606" type="line"/>
    </contour>
  </outline>
</glyph>
<glyph name="uniE08A" format="2">
  <advance width="1024"/>
  <unicode hex="E08A"/>
  <outline>
    <contour>
      <point x="652" y="772" type="line"/>
      <point x="652" y="607" type="line"/>
      <point x="820" y="607" type="line"/>
      <point x="820" y="772" type="line"/>
    </contour>
    <contour>
      <point x="204" y="772" type="line"/>
      <point x="204" y="607" type="line"/>
      <point x="372" y="607" type="line"/>
      <point x="372" y="772" type="line"/>
    </contour>
    <contour>
      <point x="420" y="772" type="line"/>
      <point x="420" y="607" type="line"/>
      <point x="604" y="607" type="line"/>
      <point x="604" y="772" type="line"/>
    </contour>
    <contour>
      <point x="813" y="805" type="qcurve"/>
      <point x="831" y="827" type="line"/>
      <point x="839" y="839"/>
      <point x="848" y="830" type="qcurve"/>
      <point x="869" y="812"/>
      <point x="888" y="791" type="qcurve"/>
      <point x="894" y="783"/>
      <point x="894" y="782" type="qcurve"/>
      <point x="894" y="781"/>
      <point x="890" y="778" type="qcurve"/>
      <point x="870" y="767"/>
      <point x="869" y="763" type="qcurve"/>
      <point x="868" y="759"/>
      <point x="868" y="756" type="qcurve"/>
      <point x="868" y="592" type="line"/>
      <point x="868" y="581"/>
      <point x="872" y="560" type="qcurve"/>
      <point x="872" y="551"/>
      <point x="868" y="548" type="qcurve"/>
      <point x="833" y="529"/>
      <point x="826" y="529" type="qcurve"/>
      <point x="819" y="529"/>
      <point x="820" y="539" type="qcurve"/>
      <point x="820" y="576" type="line"/>
      <point x="204" y="576" type="line"/>
      <point x="204" y="553" type="line"/>
      <point x="203" y="545"/>
      <point x="199" y="544" type="qcurve"/>
      <point x="189" y="540"/>
      <point x="167" y="531" type="qcurve"/>
      <point x="152" y="525"/>
      <point x="153" y="535" type="qcurve"/>
      <point x="155" y="561"/>
      <point x="156" y="586" type="qcurve"/>
      <point x="156" y="780" type="line"/>
      <point x="155" y="806"/>
      <point x="154" y="825" type="qcurve"/>
      <point x="154" y="834"/>
      <point x="158" y="835" type="qcurve"/>
      <point x="162" y="838"/>
      <point x="171" y="829" type="qcurve"/>
      <point x="184" y="816"/>
      <point x="202" y="803" type="qcurve"/>
      <point x="802" y="803" type="line"/>
      <point x="810" y="802"/>
    </contour>
    <contour>
      <point x="488" y="565" type="qcurve"/>
      <point x="553" y="537"/>
      <point x="566" y="509" type="qcurve"/>
      <point x="574" y="491"/>
      <point x="553" y="451" type="qcurve"/>
      <point x="838" y="451" type="line"/>
      <point x="848" y="451"/>
      <point x="852" y="457" type="qcurve"/>
      <point x="880" y="487" type="line"/>
      <point x="883" y="491"/>
      <point x="887" y="491" type="qcurve"/>
      <point x="898" y="491"/>
      <point x="943" y="431" type="qcurve"/>
      <point x="951" y="419"/>
      <point x="936" y="418" type="qcurve"/>
      <point x="932" y="418"/>
      <point x="929" y="417" type="qcurve"/>
      <point x="876" y="410"/>
      <point x="809" y="320" type="qcurve"/>
      <point x="802" y="309"/>
      <point x="792" y="313" type="qcurve"/>
      <point x="782" y="319"/>
      <point x="792" y="335" type="qcurve"/>
      <point x="815" y="380"/>
      <point x="834" y="420" type="qcurve"/>
      <point x="191" y="420" type="line"/>
      <point x="185" y="346"/>
      <point x="155" y="313" type="qcurve"/>
      <point x="140" y="299"/>
      <point x="125" y="300" type="qcurve"/>
      <point x="111" y="301"/>
      <point x="104" y="310" type="qcurve"/>
      <point x="103" y="311" type="line"/>
      <point x="85" y="338"/>
      <point x="115" y="359" type="qcurve"/>
      <point x="162" y="398"/>
      <point x="171" y="480" type="qcurve"/>
      <point x="172" y="489"/>
      <point x="179" y="489" type="qcurve"/>
      <point x="187" y="489"/>
      <point x="188" y="479" type="qcurve"/>
      <point x="189" y="464"/>
      <point x="190" y="451" type="qcurve"/>
      <point x="522" y="451" type="line"/>
      <point x="519" y="500"/>
      <point x="472" y="553" type="qcurve"/>
      <point x="465" y="559"/>
      <point x="470" y="565" type="qcurve"/>
      <point x="474" y="571"/>
    </contour>
    <contour>
      <point x="298" y="101" type="qcurve"/>
      <point x="282" y="103"/>
      <point x="283" y="109" type="qcurve"/>
      <point x="282" y="115"/>
      <point x="292" y="127" type="qcurve"/>
      <point x="337" y="175"/>
      <point x="371" y="236" type="qcurve"/>
      <point x="158" y="236" type="line"/>
      <point x="116" y="235"/>
      <point x="85" y="229" type="qcurve"/>
      <point x="76" y="226"/>
      <point x="75" y="235" type="qcurve"/>
      <point x="70" y="253"/>
      <point x="55" y="266" type="qcurve"/>
      <point x="47" y="273"/>
      <point x="51" y="277" type="qcurve"/>
      <point x="55" y="280"/>
      <point x="62" y="276" type="qcurve"/>
      <point x="100" y="267"/>
      <point x="146" y="267" type="qcurve"/>
      <point x="388" y="267" type="line"/>
      <point x="416" y="323"/>
      <point x="444" y="396" type="qcurve"/>
      <point x="446" y="402"/>
      <point x="453" y="399" type="qcurve"/>
      <point x="478" y="388"/>
      <point x="508" y="372" type="qcurve"/>
      <point x="516" y="366"/>
      <point x="516" y="362" type="qcurve"/>
      <point x="515" y="357"/>
      <point x="505" y="354" type="qcurve"/>
      <point x="481" y="346"/>
      <point x="439" y="267" type="qcurve"/>
      <point x="831" y="267" type="line"/>
      <point x="845" y="268"/>
      <point x="861" y="286" type="qcurve"/>
      <point x="887" y="323" type="line"/>
      <point x="894" y="332"/>
      <point x="903" y="323" type="qcurve"/>
      <point x="974" y="260"/>
      <point x="973" y="245" type="qcurve"/>
      <point x="971" y="237"/>
      <point x="958" y="236" type="qcurve"/>
      <point x="716" y="236" type="line"/>
      <point x="667" y="139"/>
      <point x="598" y="70" type="qcurve"/>
      <point x="654" y="57"/>
      <point x="708" y="41" type="qcurve"/>
      <point x="823" y="3"/>
      <point x="842" y="-13" type="qcurve"/>
      <point x="862" y="-26"/>
      <point x="866" y="-56" type="qcurve"/>
      <point x="869" y="-83"/>
      <point x="857" y="-92" type="qcurve"/>
      <point x="845" y="-103"/>
      <point x="817" y="-78" type="qcurve"/>
      <point x="744" y="-16"/>
      <point x="566" y="42" type="qcurve"/>
      <point x="429" y="-64"/>
      <point x="113" y="-88" type="qcurve"/>
      <point x="89" y="-90"/>
      <point x="88" y="-74" type="qcurve"/>
      <point x="89" y="-60"/>
      <point x="108" y="-59" type="qcurve"/>
      <point x="284" y="-40"/>
      <point x="378" y="-9" type="qcurve"/>
      <point x="457" y="20"/>
      <point x="515" y="57" type="qcurve"/>
      <point x="427" y="86"/>
    </contour>
    <contour>
      <point x="344" y="118" type="qcurve"/>
      <point x="450" y="104"/>
      <point x="547" y="82" type="qcurve"/>
      <point x="616" y="152"/>
      <point x="658" y="236" type="qcurve"/>
      <point x="422" y="236" type="line"/>
      <point x="387" y="179"/>
    </contour>
  </outline>
</glyph>
<glyph name="uniE08B" format="2">
  <advance width="1024"/>
  <unicode hex="E08B"/>
  <outline>
    <contour>
      <point x="535" y="210" type="qcurve"/>
      <point x="535" y="-1" type="line"/>
      <point x="533" y="-34"/>
      <point x="514" y="-56" type="qcurve"/>
      <point x="494" y="-78"/>
      <point x="469" y="-85" type="qcurve"/>
      <point x="459" y="-87"/>
      <point x="455" y="-80" type="qcurve"/>
      <point x="450" y="-69"/>
      <point x="423" y="-53" type="qcurve"/>
      <point x="396" y="-38"/>
      <point x="345" y="-26" type="qcurve"/>
      <point x="333" y="-24"/>
      <point x="334" y="-12" type="qcurve"/>
      <point x="335" y="-5"/>
      <point x="348" y="-6" type="qcurve"/>
      <point x="383" y="-7"/>
      <point x="429" y="-10" type="qcurve"/>
      <point x="474" y="-13"/>
      <point x="484" y="-7" type="qcurve"/>
      <point x="487" y="-3"/>
      <point x="487" y="10" type="qcurve"/>
      <point x="487" y="190" type="line"/>
      <point x="486" y="270"/>
      <point x="483" y="319" type="qcurve"/>
      <point x="483" y="324"/>
      <point x="482" y="328" type="qcurve"/>
      <point x="480" y="336"/>
      <point x="494" y="331" type="qcurve"/>
      <point x="548" y="312"/>
      <point x="566" y="302" type="qcurve"/>
      <point x="578" y="294"/>
      <point x="563" y="287" type="qcurve"/>
      <point x="552" y="283"/>
      <point x="546" y="277" type="qcurve"/>
      <point x="581" y="208"/>
      <point x="621" y="160" type="qcurve"/>
      <point x="671" y="182"/>
      <point x="714" y="212" type="qcurve"/>
      <point x="760" y="244"/>
      <point x="799" y="281" type="qcurve"/>
      <point x="806" y="287"/>
      <point x="813" y="283" type="qcurve"/>
      <point x="842" y="261"/>
      <point x="861" y="242" type="qcurve"/>
      <point x="865" y="237"/>
      <point x="862" y="233" type="qcurve"/>
      <point x="859" y="229"/>
      <point x="852" y="230" type="qcurve"/>
      <point x="842" y="231"/>
      <point x="821" y="224" type="qcurve"/>
      <point x="800" y="215"/>
      <point x="758" y="193" type="qcurve"/>
      <point x="702" y="164"/>
      <point x="638" y="142" type="qcurve"/>
      <point x="646" y="135"/>
      <point x="653" y="128" type="qcurve"/>
      <point x="706" y="81"/>
      <point x="779" y="51" type="qcurve"/>
      <point x="847" y="23"/>
      <point x="941" y="11" type="qcurve"/>
      <point x="957" y="8"/>
      <point x="967" y="7" type="qcurve"/>
      <point x="974" y="6"/>
      <point x="974" y="-1" type="qcurve"/>
      <point x="973" y="-8"/>
      <point x="967" y="-9" type="qcurve"/>
      <point x="946" y="-13"/>
      <point x="927" y="-28" type="qcurve"/>
      <point x="905" y="-42"/>
      <point x="895" y="-58" type="qcurve"/>
      <point x="888" y="-66"/>
      <point x="878" y="-62" type="qcurve"/>
      <point x="764" y="-13"/>
      <point x="704" y="30" type="qcurve"/>
      <point x="649" y="69"/>
      <point x="609" y="117" type="qcurve"/>
      <point x="571" y="163"/>
      <point x="538" y="235" type="qcurve"/>
      <point x="537" y="240" type="line"/>
      <point x="535" y="245"/>
      <point x="531" y="244" type="qcurve"/>
      <point x="526" y="242"/>
      <point x="527" y="238" type="qcurve"/>
      <point x="531" y="226"/>
    </contour>
    <contour>
      <point x="347" y="251" type="line"/>
      <point x="354" y="251"/>
      <point x="358" y="254" type="qcurve"/>
      <point x="382" y="284" type="line"/>
      <point x="386" y="288"/>
      <point x="390" y="288" type="qcurve"/>
      <point x="394" y="287"/>
      <point x="400" y="283" type="qcurve"/>
      <point x="426" y="264"/>
      <point x="448" y="242" type="qcurve"/>
      <point x="458" y="232"/>
      <point x="446" y="228" type="qcurve"/>
      <point x="423" y="222"/>
      <point x="414" y="212" type="qcurve"/>
      <point x="406" y="206"/>
      <point x="393" y="181" type="qcurve"/>
      <point x="362" y="117"/>
      <point x="323" y="77" type="qcurve"/>
      <point x="283" y="35"/>
      <point x="220" y="-1" type="qcurve"/>
      <point x="142" y="-44"/>
      <point x="64" y="-68" type="qcurve"/>
      <point x="52" y="-71"/>
      <point x="49" y="-61" type="qcurve"/>
      <point x="48" y="-50"/>
      <point x="58" y="-47" type="qcurve"/>
      <point x="157" y="-6"/>
      <point x="211" y="28" type="qcurve"/>
      <point x="276" y="73"/>
      <point x="304" y="113" type="qcurve"/>
      <point x="340" y="165"/>
      <point x="356" y="220" type="qcurve"/>
      <point x="229" y="220" type="line"/>
      <point x="202" y="220"/>
      <point x="168" y="213" type="qcurve"/>
      <point x="163" y="212"/>
      <point x="162" y="215" type="qcurve"/>
      <point x="149" y="234"/>
      <point x="139" y="250" type="qcurve"/>
      <point x="133" y="260"/>
      <point x="146" y="257" type="qcurve"/>
      <point x="207" y="252"/>
      <point x="214" y="251" type="qcurve"/>
    </contour>
    <contour>
      <point x="768" y="371" type="line"/>
      <point x="780" y="383" type="line"/>
      <point x="810" y="425" type="line"/>
      <point x="817" y="434"/>
      <point x="826" y="425" type="qcurve"/>
      <point x="897" y="362"/>
      <point x="896" y="347" type="qcurve"/>
      <point x="894" y="339"/>
      <point x="881" y="338" type="qcurve"/>
      <point x="209" y="338" type="line"/>
      <point x="189" y="320"/>
      <point x="180" y="305" type="qcurve"/>
      <point x="172" y="295"/>
      <point x="165" y="305" type="qcurve"/>
      <point x="147" y="327"/>
      <point x="131" y="340" type="qcurve"/>
      <point x="123" y="347"/>
      <point x="132" y="353" type="qcurve"/>
      <point x="146" y="361"/>
      <point x="147" y="365" type="qcurve"/>
      <point x="150" y="369"/>
      <point x="150" y="379" type="qcurve"/>
      <point x="150" y="750" type="line"/>
      <point x="150" y="801"/>
      <point x="143" y="835" type="qcurve"/>
      <point x="141" y="845"/>
      <point x="145" y="849" type="qcurve"/>
      <point x="150" y="852"/>
      <point x="163" y="840" type="qcurve"/>
      <point x="181" y="824"/>
      <point x="202" y="811" type="qcurve"/>
      <point x="730" y="811" type="line"/>
      <point x="744" y="813" type="line"/>
      <point x="756" y="825" type="line"/>
      <point x="786" y="867" type="line"/>
      <point x="793" y="876"/>
      <point x="802" y="867" type="qcurve"/>
      <point x="873" y="804"/>
      <point x="872" y="789" type="qcurve"/>
      <point x="870" y="781"/>
      <point x="857" y="780" type="qcurve"/>
      <point x="198" y="780" type="line"/>
      <point x="198" y="369" type="line"/>
      <point x="754" y="369" type="line"/>
    </contour>
    <contour>
      <point x="692" y="496" type="qcurve"/>
      <point x="718" y="531" type="line"/>
      <point x="725" y="539"/>
      <point x="734" y="531" type="qcurve"/>
      <point x="805" y="471"/>
      <point x="804" y="455" type="qcurve"/>
      <point x="802" y="447"/>
      <point x="789" y="447" type="qcurve"/>
      <point x="353" y="447" type="line"/>
      <point x="311" y="446"/>
      <point x="280" y="440" type="qcurve"/>
      <point x="271" y="437"/>
      <point x="270" y="446" type="qcurve"/>
      <point x="265" y="465"/>
      <point x="250" y="477" type="qcurve"/>
      <point x="242" y="484"/>
      <point x="246" y="487" type="qcurve"/>
      <point x="250" y="490"/>
      <point x="257" y="486" type="qcurve"/>
      <point x="295" y="478"/>
      <point x="341" y="478" type="qcurve"/>
      <point x="492" y="479" type="line"/>
      <point x="492" y="562" type="line"/>
      <point x="405" y="562" type="line"/>
      <point x="363" y="561"/>
      <point x="332" y="555" type="qcurve"/>
      <point x="323" y="552"/>
      <point x="322" y="561" type="qcurve"/>
      <point x="317" y="580"/>
      <point x="302" y="592" type="qcurve"/>
      <point x="294" y="598"/>
      <point x="298" y="602" type="qcurve"/>
      <point x="302" y="605"/>
      <point x="309" y="601" type="qcurve"/>
      <point x="347" y="593"/>
      <point x="393" y="593" type="qcurve"/>
      <point x="492" y="593" type="line"/>
      <point x="492" y="673" type="line"/>
      <point x="369" y="672" type="line"/>
      <point x="327" y="671"/>
      <point x="296" y="666" type="qcurve"/>
      <point x="287" y="663"/>
      <point x="286" y="671" type="qcurve"/>
      <point x="281" y="690"/>
      <point x="266" y="702" type="qcurve"/>
      <point x="258" y="709"/>
      <point x="262" y="712" type="qcurve"/>
      <point x="266" y="715"/>
      <point x="273" y="711" type="qcurve"/>
      <point x="311" y="703"/>
      <point x="357" y="703" type="qcurve"/>
      <point x="650" y="703" type="line"/>
      <point x="664" y="704"/>
      <point x="680" y="721" type="qcurve"/>
      <point x="706" y="756" type="line"/>
      <point x="713" y="764"/>
      <point x="722" y="756" type="qcurve"/>
      <point x="793" y="696"/>
      <point x="792" y="681" type="qcurve"/>
      <point x="790" y="673"/>
      <point x="777" y="672" type="qcurve"/>
      <point x="540" y="673" type="line"/>
      <point x="540" y="593" type="line"/>
      <point x="610" y="592" type="line"/>
      <point x="626" y="593"/>
      <point x="639" y="608" type="qcurve"/>
      <point x="663" y="641" type="line"/>
      <point x="671" y="649"/>
      <point x="678" y="641" type="qcurve"/>
      <point x="746" y="583"/>
      <point x="745" y="570" type="qcurve"/>
      <point x="743" y="562"/>
      <point x="730" y="562" type="qcurve"/>
      <point x="540" y="562" type="line"/>
      <point x="540" y="479" type="line"/>
      <point x="662" y="478" type="line"/>
      <point x="676" y="479"/>
    </contour>
  </outline>
</glyph>
